<?xml version="1.0" encoding="UTF-8"?>
<svg id="Layer_1" xmlns="http://www.w3.org/2000/svg" version="1.1" viewBox="0 0 595.28 841.89">
  <!-- Generator: Adobe Illustrator 29.5.1, SVG Export Plug-In . SVG Version: 2.1.0 Build 141)  -->
  <defs>
    <style>
      .st0 {
        fill: #a48064;
      }

      .st1 {
        fill: #a78468;
      }

      .st2, .st3 {
        fill: #c7aa8f;
      }

      .st4 {
        fill: #9f7a5e;
      }

      .st5 {
        fill: #866147;
      }

      .st6 {
        fill: #543d30;
      }

      .st7 {
        fill: #755039;
      }

      .st8 {
        fill: #fff;
      }

      .st9 {
        fill: #473328;
      }

      .st10 {
        fill: #60493a;
      }

      .st11 {
        fill: #e8e2da;
      }

      .st12 {
        fill: #aa886c;
      }

      .st13 {
        fill: #bb9b7e;
      }

      .st14 {
        fill: #ceb69c;
      }

      .st3 {
        font-family: Ebrima-Bold, Ebrima;
        font-size: 38.64px;
        font-weight: 700;
      }

      .st15 {
        fill: #bfa287;
      }

      .st16 {
        fill: #b19074;
      }
    </style>
  </defs>
  <path class="st8" d="M371.89,263.55c-.11-.62.07-1.24-.19-2.03-1.74-5.2-7.24-9.7-12.76-10.12l7.5-4.03-.21-1.03c-5.23-1.42-10.65-.13-15.79,1.01,2.88-2.62,5.08-6.17,5.67-10.12-1.54.58-2.5,1.84-4.05,2.62-1.02.51-8.58,2.98-8.9,2.64-.2-4.45-1.85-8.99-5.47-11.74-4.4-3.34-1.91.68-1.53,2.74.56,3.07,1.19,7.02-.5,9.8-.55-1.64-1.65-3.19-3.06-4.22-1.77-1.29-6.19-2.24-7.05-3.07-.91-.88-2.05-5.06-3.25-5.66-.69-.34-.66.25-.43.84,1.09,2.77,2.26,5.86,1.65,8.87-5.84-4.51-19.43-2.8-18.43-12.95-3.25.97-3.23,5.89-2.22,8.5.25.65,2.14,2.93,1.82,3.24-2.9.43-6.31.69-8.5,2.84-.13.01-.27,0-.4,0-6.21.03-11.95-4.49-16.19-8.5.27,4.07,3.43,7.66,6.47,10.12-2.49.92-5.44.16-8.1.41l1.62,2.42c-5.6,1.15-15.43,5.67-15.79,12.15-.04.67.03,1.35,0,2.02-2.88,1.2-7.57,2.46-10.63,1.93-1.24-.22-2.23-1.19-3.53-1.11.54,2.47,3.44,2.84,4.86,4.45-4.51,1.36-14.73,7.65-15.77,12.37-.62,2.78,3.73-1.18,4.44-.62-4.22,5.56-5.31,12.44-2.83,19.02,1.14,1.14.78-3.32.85-3.8.42-2.9,1.31-5.98,2.86-8.48.35-.57,1.13-2.06,1.95-1.89-2.36,6.98-4.47,16.21.81,22.27.02-.92-.43-1.65-.42-2.61,0-.43.25-2.5.82-2.65.45,2.6,1.65,5.72,3.44,7.69.48.52,1.02,1.31,1.82,1.21.17-.18-1.38-4.95-.2-4.85.36.03,2.4,3.68,2.54,4.33.84,4.06-.94,7.4-4.36,9.42-1.68-.07-4.15.85-6.07.41,1.65,1.96,5.33,1.23,7.69.81.31-.06,2.17-.88,1.62.2-.09.17-1.72,1.38-2.06,1.59-3.42,2.09-7.15,2.37-10.89,1.05,1.17,3.3,5.96,3.43,8.9,3.84-2.87,3.43-7.03,5.27-11.33,6.07,2.99,2.01,6.55.62,9.71,0-4.55,7.01-10.83,13.66-19.42,15.19-.11.58.77.53,1.2.61,2.64.47,5.08-.22,7.7-.42-4.93,4.61-10.1,10.01-10.11,17.21l4.25-2.83.59.59c-1.81,2.33-3.24,4.95-4.6,7.55-.7,1.33-2.51,6.38-3.05,6.98-.8.89-15,1.04-17.65,1.47-.6.1-1.25.02-1.41.81,9.21,1.01,18.49.88,27.75,1.2,18.09.63,36.29,1.09,54.44,1.23,7,.06,14.05.07,21.05,0,1.48-.02,2.97.02,4.46,0,.02-.27-.02-.54,0-.81.14-2.48-.89-4.21-1.62-6.48,1.03.82,1.94,1.14,3.04,2.42.73.85,2.94,4.99,3.61,4.85,2.48-.7,3.47-9.75,3.92-10.06,3.1-2.13,6.38,7.44,6.05,9.65l4.96.03c2.91-3.84,3.83-8.68,3.12-13.37-.1-.63-.44-1.06-.57-1.59-.1-.4.27-.98.1-1.18-.2-.23-.91.2-.74-.47,5.45-.55,7.64,5.62,7.69,10.12.57.1.59-.72.69-1.12,1.95-7.85-1.28-12.43-7.57-16.28-.16-.1-.28-.27-.4-.4,3.99-1.61,8.66.19,12.95-.41.94-.83-2.91-2.1-3.23-2.25-.49-.22-.99.04-.81-.78l7.69-5.07c.12.15.28.26.4.4,1.39,1.6,2.51,2.67,4.86,2.43.04.57-1.52.64-1.95.69-.74.08-1.35.14-2.1.12-.07,0-1.67-1.02-1.21.2.4,1.04,2.45,2.99,3.18,4.51.82,1.7,1.49,4.12,1.68,6.01l-.41,4.26c.08-1.45-4.34-7.92-5.67-6.88,4.26,6.19,4.75,13.53,2.84,20.64l46.15-1.21-.6-.81-40.24-2.08c-.27-.17-1.31-5.1-1.3-5.82.01-1.61,1.02-3.55,1.2-5.31.32-3.26-1-9.69-3.59-11.89,1.83-.73,5.11-.83,5.67-3.24-2.85.74-5.71-.45-8.09-2.03-.11-.89-.84-1.67.18-2.45,4.58-3.12,8.88-8.13,13.59-10.91.47-.28,1.46-.65,2.02-.61-.54,1.88-1.94,3.94-2.34,5.75-.65,2.95,2.7-1.99,3.04-2.63,1.17-2.19,2.04-4.94,2.55-7.37,1.05.28.69,1.32.81,2.02.04.25-.03.55,0,.81h.6c.35.02.23-.54.21-.81,0-.13.02-.28,0-.4,1.65-1.64,1.82-4.7,2.02-6.88.05,0,.11-.39.2-.38l.42.37c.4.76-.3,1.93.99,1.63,1.57-5.04,1.38-10.19-.39-15.19l1.21.03.39-.79c-.49-4.94-3.57-8.6-6.86-11.99h6.48c-1.01-1.22-7.72-3.12-8.07-4.3-.24-.8,2.28-3.16,2.88-4.33,2.09-4.03,1.99-9.16.75-13.43,3.61,1.06,8.05,2.29,11.62.3.46-.26.69.02.52-.9-5.45-.81-10.42-5.28-13.36-9.72.31-.67-.35-1.3-.4-1.62Z"/>
  <path class="st9" d="M346.39,342.49c.15-.12.26-.29.4-.4-.12.14-.27.27-.4.4Z"/>
  <path class="st9" d="M346.79,342.09c.13-.11.24-.29.4-.4-.09.18-.29.27-.4.4Z"/>
  <path class="st9" d="M343.55,340.47v.81c-.17,0-.57.31-.81.4,0-.36.07-.93,0-1.21h.81Z"/>
  <path class="st9" d="M348.41,340.87c-.18.81-1.03.68-1.21.81v-.4c.1-.06.75-.85,1.21-1.21-.03.16-.03.76,0,.81Z"/>
  <path class="st9" d="M348.41,340.06c.15-.11.26-.28.4-.4-.05.14-.38.3-.4.4Z"/>
  <path class="st9" d="M349.63,338.45c-.05.23.08.71,0,.81-.1.13-.61.23-.81.4.08-.26-.18-.88.07-1.14.19-.21.61,0,.74-.07Z"/>
  <path class="st9" d="M325.74,342.49h-.81c.25-.65-2.51-6.87-1.42-6.89.48,1.86,1.28,3.52,2.04,5.27.25.57.09,1.39.19,1.61Z"/>
  <path class="st9" d="M273.11,253.83c1.49-.38,2.63-1.13,3.85-2.02.21.37-.39,1.1-.62,1.4-1.75,2.34-8.02,7.6-10.56,9.28-5.8,3.83-12.48,4.53-17.98,8.74-.56.78.74.29,1.03.22,2.03-.54,4.04-.92,6.06-1.43l-1.21,2.83,8.09-1.01c-6.27,3.7-11.05,11.58-10.48,18.98.03.39.17,1.91.76,1.87-.04-5.93,3.22-10.8,7.5-14.57-2.94,5.35-4.78,11.23-3.44,17.4,1.01.07.69.09.8-.61.34-2.29.28-5.48,2.03-7.08.3.66-.4,1.51-.4,1.82v6.48c0,1.1,1.07,4.92,1.42,6.27,1.19,4.58,3.55,8.93,3.85,13.77l1.21-3.03v-15.18c.59-.09.55.7.69,1.13,1.45,4.61,1.72,10.28,2.55,15.07,1.73-1.91,1.26-5.35,2.22-7.69,1.78,3.08,1.28,6.74,1.83,10.12.59-.08.93-1.4,1.11-1.92,1.51-4.17.8-7.97.5-12.25.54-.75,1.79,4.33,1.89,4.78,1.28,5.56,2.05,11.82.14,17.29,2.88-1.4,3.88-4.61,6.06-6.69-.3,4.24-3.1,7.59-6.51,9.88l-4.01,2.26c2.39.22,4.18.49,6.57-.11s4.07-2.19,6.39-2.72c-2.36,1.78-4.63,3.93-7.69,4.46-.1.7.92.38,1.41.4,12.33.46,19.64-15.3,18.38-26.07-.88-7.5-8.36-14.7-10.48-21.7-.3-1-.57-2.88-.69-3.96-.05-.44-.47-1.38.28-1.3.51,2.87,1.14,5.26,2.5,7.84.2.38.67.54.74.66.1.17-.04.83.38,1.42.25.35,2.51,3,2.86,2.62l-.42-3.01.42-11.56c.14-.42.21-.78.4-1.21l.4-.4c.08-.15-.05-.56,0-.81l.4.4c-.17,5.27-.11,10.21,2.14,15.07.29.64.93,1.98,1.5,2.34-1.64-6.42-.52-12.63,0-19.03h.81c-.24-.36-.11-.5,0-.81l.41.81,1.21-.81c-1.27,8.55-.33,17.23,5.28,24.1-1.05,3.3-3.19,6.31-3.25,9.9l1.21-.81c-.76,1.19-1.46,1.49-1.57,1.67-.04.07.38.87.2,1.57-.86,3.47-3.06,7.01-3.49,10.73l3.59-5.34c.34-.39.32-.9.47-1.34l1.62-.4c-3.51,6.72-5.25,15.29-1.98,22.42l3.19,4.7c-1.38-4.31-2.09-8.97-1.11-13.46.13-.57.46-2.16,1.11-2.33.09,5.71.76,13.13,4.86,17.41v-5.67l1.54,4.33c1.34,2.7,3.48,5.29,6.55,6-5.39-4.54-7.28-13.81-5.26-20.45.1-.34,1.06-1.96,1.21-1.62.02.81-.02,1.62,0,2.43.15,5.84,1.68,16.92,8.87,18.06,2.09.33-.24-1.42-.7-2.14-2.95-4.6-2.71-7.46-4.12-12.28,1.2-.25.71.6.92,1.29.89,2.91,3.8,9.75,6.37,11.26.12.07.4,1.05.81,0,.39.83,4.91,5.22,5.67,4.45-1.78-3.74-2.47-7.58-2.02-11.74.12-1.15.84-3.43,1.21-4.66,1.26-4.22,3.47-8.28,6.89-11.13-.03,1-.89,4.1-1.21,5.26-.17.62-.54,1.42-.81,2.43-.03.09-.55.48-.71,1.1-1.35,5.47-1.32,11.43,1.12,16.55.27.2.37-.24.4-.24,3.2-.18,4.04-1.89,6.48-2.83v1.21c-1.18.27-1.87,1.85-2.83,2.83.21.16,3.8-1,4.45-1.21-.44.47-.65,1.26-1.62,1.22-.9,1.22,3.91.26,4.38.12,3.2-.94,3.58-1.92,5.34-4.18.69-.89,2.23-1.64,2.02-3.24.24,0,.63.08.79-.02.04-.02.34-.62.43-.79l-2.23,5.66c2.03-1.2,3.12-1.94,4.26-4.04,2.41-4.47,5.23-11.27.1-14.94-.69-.22-.68.22-.91.36-.98.59-1.37,1.77-1.62,2.83h-.4c-.03-.27.01-.54,0-.81-.06-.98.09-1.87.21-2.83-2.12,1.31-4.4,2.26-6.68,3.23-.18.08-.31.36-.4.4-.19.08-.62-.08-.81,0-1.35.6-2.87,1.02-4.2,1.67-2.74,1.34-5.17,3.44-8.15,4.4.67-1.83,1.33-4.41,2.23-6.06.97-1.78,2.94-3.74,4.66-4.85-.01.83-.5,1.71-.7,2.54-.13.52-.78.77.28.69l8.11-5.65c-.11.51-.09,1.73-.21,2.02-.17.42-1.83,1.57-1.01,2.43,2.07-1.13,3.81-1.9,5.47-3.64.91-.95,1.86-1.78,2.24-3.23,1-3.87-.07-2.9-2.39-4.11-1.99-1.04-4.7-3.33-5.92-5.21-.94-1.45-1.45-3.87-2.83-5.26.98-.26,1.94-.77,2.83-1.22-.08,2.67,1.95,6.42,5.01,4.8.31-.16,3.81-2.95,3.9-3.19,2.8.28,5.61.61,8.1,2.02h.4c-.39,3.66-2.69,3.34-2.99,4.83-.16.8.4,1.44-.04,2.45-.55,1.24-2.69,1.68-3.85,2.03-.21.06-.55-.05-.81,0l1.62,6.07.81-2.43,1.62,3.23.4-2.43c.27-.02.54.02.81,0l3.23,5.26c.34-1.93-.35-3.5-.81-5.26-.23-.88-.41-1.82-.4-2.02.28.12.53.3.81.4,1.98,4.6,3.71,9.05,2.43,14.17-.53.58-1.48.71-1.21,2.02-4.71,2.78-9.01,7.79-13.59,10.91-1.01.78-.28,1.56-.18,2.45.02.16-.17.49-.4.4-.12-.14-.29-.25-.4-.4-.11-.14-.02-.8-.38-1.04l-.56-.13c-6.7,2.55-12.48,7.92-20.11,7.24l4.45,2.43c.12.14.25.31.4.4-.33.72-1.34.17-1.89.08-2.61-.43-5.21-.93-7.83-1.29,3.12,3.35,5.61,7.82,5.26,12.55-.07.93.21,2.09-1.21,2.02-.29-1.43-.91-2.79-1.62-4.05-1.59-2.77-2.94-4.31-5.93-5.61-4.45-1.93-8.16-.67-12.51-2.06-3.11-.99-5.89-3.39-8.49-5.28,1.63,8.23,9.2,11.2,16.4,13.36.1.69-.96.43-1.41.39-7.64-.6-14.49-3.13-19.64-8.9.02,2.12,1.43,3.72,2.49,5.4l3.78,3.91c-8.41-4.04-15.01-11.2-17.62-20.23-.63.07-.87,1.49-1.01,2.02-1.32,4.95.04,9.18,1.82,13.77-.48.49-5.47-3.44-6.07-4.05-.08-.08-.09-.68-.39-1.01-4.21-4.63-7.76-9.96-8.52-16.4-.68.24-1.11,2.06-1.18,2.66-.65,5.62.62,7.33,3.61,11.42.35.49,3.09,3.9,2.83,4.13-.93.14-1.53-.31-2.22-.81-.8-.57-2.86-2.26-2.64-3.24l-.31.92.73,2.52c-.14,2.02-4.36-3.84-4.63-4.28-2.79-4.63-4.76-11.58-4.69-16.97l-1.42,2.82-1,7.29c-3.27-5.78-1.81-11.47,0-17.41-3,2.22-3.92,6.2-4.45,9.71-.6.1-.5-.76-.6-1.21-1.3-5.76.28-10.32,1.82-15.8-2.47,1.8-4.17,4.35-5.99,6.75-3.92,5.17-9.12,12.29-10.51,18.65-.09.41-.41,1.42.31,1.32,1.74-4.15,5.26-8.71,9.31-10.73-3.48,4.01-5.4,8.31-6.06,13.57-.34,2.72-.51,4.13.19,6.9.13.5.42,1.94,1.02,2.01.27-2.85.69-6.64,1.62-9.31.87-2.5,3.18-5.88,5.47-7.28-.76,2.57-2.12,4.62-2.64,7.28-1.15,5.98-.28,11.6,2.43,17l.1-6.57,2.33-6.38c.39,1.02.29,1.06.4,2.02.3,2.52.2,4.79.93,7.37,1.06,3.74,4.14,8.62,7.97,9.84-1.52-2.84-3.23-7.21-2.72-10.43.06-.36.17-1.22.7-1.11.73,4.2,2.47,7.02,5.67,9.71,3.48,2.93,5.84,3.65,10.12,4.86.32.09.72.41,1.26.55,2.77.69,5.94.71,8.46,1.88-18.15-.15-36.35-.6-54.44-1.23-9.26-.32-18.54-.19-27.75-1.2.17-.79.81-.71,1.41-.81,2.65-.43,16.85-.58,17.65-1.47.54-.6,2.35-5.65,3.05-6.98,1.37-2.6,2.79-5.22,4.6-7.55l-.59-.59-4.25,2.83c0-7.2,5.18-12.6,10.11-17.21-2.62.2-5.06.89-7.7.42-.42-.08-1.31-.03-1.2-.61,8.6-1.53,14.87-8.19,19.42-15.19-3.16.62-6.71,2.02-9.71,0,4.31-.8,8.46-2.65,11.33-6.07-2.94-.41-7.73-.54-8.9-3.84,3.74,1.32,7.47,1.04,10.89-1.05.34-.21,1.97-1.42,2.06-1.59.56-1.08-1.31-.25-1.62-.2l-.04-.77c-.54.18-1.4-.44-1.58-.45,3.42-2.03,5.2-5.37,4.36-9.42-.13-.65-2.18-4.3-2.54-4.33-1.17-.1.37,4.67.2,4.85-.8.1-1.35-.68-1.82-1.21-1.79-1.97-2.99-5.09-3.44-7.69-.57.15-.82,2.22-.82,2.65-.01.96.43,1.69.42,2.61-5.28-6.06-3.17-15.29-.81-22.27-.83-.17-1.6,1.32-1.95,1.89-1.54,2.49-2.43,5.58-2.86,8.48-.07.48.29,4.94-.85,3.8-2.48-6.59-1.39-13.46,2.83-19.02-.71-.56-5.06,3.4-4.44.62,1.05-4.72,11.27-11.01,15.77-12.37-1.41-1.6-4.31-1.98-4.86-4.45,1.3-.08,2.3.9,3.53,1.11,3.07.53,7.76-.72,10.63-1.93,3.21-1.34,3.4-2.42,5.67-4.05.84-.6,3.1-.91,3.64-2.43ZM253.27,272.86h-.81v.4h.81v-.4ZM350.84,310.11c2.35,3.7,6.96.3,6.47-3.24-.75.23-.85,1.4-1.44,1.99-1.36,1.36-3.23,1.34-5.03,1.25Z"/>
  <path class="st9" d="M345.17,343.71c-.26.27.58.36-.81.81.38-.4.5-.5.81-.81Z"/>
  <path class="st9" d="M345.17,343.71c.14-.13.26-.27.4-.4-.13.14-.28.27-.4.4Z"/>
  <path class="st9" d="M345.58,343.3c.14-.13.26-.28.4-.4-.12.15-.28.27-.4.4Z"/>
  <path class="st9" d="M345.98,342.9c.14-.13.26-.29.4-.4-.13.14-.29.26-.4.4Z"/>
  <path class="st12" d="M280.39,358.28c.6.61,5.59,4.54,6.07,4.05-1.79-4.59-3.15-8.82-1.82-13.77.14-.52.39-1.94,1.01-2.02,2.61,9.04,9.22,16.19,17.62,20.23l-3.78-3.91c-1.07-1.67-2.48-3.28-2.49-5.4,5.15,5.77,12,8.3,19.64,8.9.44.03,1.51.3,1.41-.39-7.2-2.16-14.76-5.13-16.4-13.36,2.59,1.89,5.38,4.28,8.49,5.28,4.36,1.39,8.06.13,12.51,2.06,2.99,1.3,4.34,2.84,5.93,5.61-3.43-1.1-6.78-2.76-10.53-2.43l.81,7.29-10.93-.81c-.84.71,3.32,3.39,3.64,3.64.73,2.26,1.76,4,1.62,6.48-5.65-1.67-10.29-4.78-13.69-9.59-1.69-2.39-2.68-5.19-4.52-7.41-.52,8.53,5.5,15.97,13.76,17.81-7,.07-14.05.06-21.05,0-2.52-1.17-5.69-1.19-8.46-1.88-.54-.13-.94-.46-1.26-.55l1.56-.86c1.28-2.52-.43-4.94-.7-7.49-.32-3.12.34-5.09,1.18-7.98l-2.85-2.69c1.08-.33,3.69,1.6,3.24-.81Z"/>
  <path class="st2" d="M311.16,237.23l.65,1.98,5.01,2.87c-7.07-.83-13.8-1.05-19.83,3.25.05,1.07,1.59,0,1.82,0h7.69c.31,0,1.79,1.06,1.41,1.61-1.01-.05-7.2,4.7-6.48,5.27,2.68-.36,4.88-1.8,7.6-2.31,6.37-1.21,13.43-.12,16.28,6.36l-3.27-2.6c-2.5-1.83-9.22-3.31-11.83-1.78-3.1,1.82,3.63,1.46,4.37,1.55.65.07,8.72,1.74,7.9,2.82-4.84.74-9.12,1.92-12.96,5.06-1.04.86-4.24,4.03-4.85,5.07.14-1.38-.25-1.28-1.21-1.62-.27-.09-.13-.66-1.01-.04-1.99,1.4-3.89,5.46-4.66,7.73-.11.31-.24.45,0,.8h-.81c.02-.25-.29-.79-.25-1.32.12-1.82.94-3.76.46-5.55-.56,1.27-4.01,6.16-3.78,6.99.13.48.82.71.76,1.31l-.82.2-.4-.4c-.06.25.07.66,0,.81-.07.14-.34.26-.4.4-.2.44-.26.8-.4,1.21-.48,1.43-.99,2.78-1.17,4.3-.13,1.12.3,4.72-.45,5.01-1.87-7.28-2.06-12.06,2.85-18,1.42-1.72,4.19-3.15,4.03-5.48-1.18-1.23-8.4,6.37-9.11,7.69-.34-1.25.95-3.29,1.65-4.42,2.61-4.17,6.82-6.89,10.7-9.75-5.59,1.18-10.72,5.47-14.59,9.52-.39.41-.37,1.65-1.21.8-.12-1.6,2.91-5.57,4.04-6.89,1.57-1.81,3.84-3.24,5.28-4.84.41-.45.95-.7.8-1.42-3.47.63-7.04,2.8-9.72,5.05-1.01.85-3.47,3.9-4.25,4.25-1.22.54.05-2.47.21-2.83,2.06-4.67,7.84-8.13,11.74-11.14-1.82-1.5-9.92,3.18-10.52,2.63l1.4-2.03,3.86-3.23c5.6-.98.26-2.4-.81-3.24-.04-.03-.05-.65-.42-.98-1.39-1.2-3.1-2.33-3.62-4.28l3.27,2.6c2.51,1.62,5.29,2.25,8.28,2.26.77,0,1.64.38,1.4-.82.13,0,.27.01.4,0,2.34-.25,5.54-1.63,8.35-1.97,1.13-.14,2.26-.02,3.39-.05.1-1.1-1.16-1.23-1.8-2.05-1.4-1.79-2.59-4.1-2.25-6.45l1.82,2.83c1.78,1.43,3.31,2.45,5.46,3.25Z"/>
  <path class="st10" d="M296.18,241.68c2.19-2.15,5.6-2.4,8.5-2.84.33-.31-1.56-2.59-1.82-3.24-1.01-2.6-1.03-7.52,2.22-8.5-1.01,10.15,12.59,8.44,18.43,12.95.61-3.02-.57-6.11-1.65-8.87-.23-.58-.26-1.18.43-.84,1.21.6,2.35,4.78,3.25,5.66.86.83,5.28,1.78,7.05,3.07,1.42,1.03,2.51,2.58,3.06,4.22,1.69-2.79,1.06-6.74.5-9.8-.38-2.06-2.87-6.09,1.53-2.74,3.62,2.75,5.27,7.29,5.47,11.74.32.34,7.88-2.13,8.9-2.64,1.56-.78,2.52-2.04,4.05-2.62-.59,3.95-2.79,7.5-5.67,10.12,5.15-1.14,10.57-2.44,15.79-1.01l.21,1.03-7.5,4.03c5.53.43,11.02,4.93,12.76,10.12.26.79.08,1.4.19,2.03-.26-.15-.56-.24-.81-.4-.15-.34-.14-1.09-.44-1.77-3.21-7.27-11.25-9.39-18.58-9.16l7.69-4.04c-4.83.45-10.16,1.48-14.3,4.11-.51.32-2.27,2.41-2.7,1.96,1.64-5.68,8.17-8.04,10.33-13.35-1.89,1.51-8.79,4.2-10.87,3.65-.46-.12-.22-.78-.27-.82-.32-4.26-1.36-8.01-4.05-11.33l.41,9.31c-.55,2.46-1.34,4.71-2.62,6.89-.19.32-1.65,3.09-2.23,2.42.42-6.13-.56-11.17-7.29-12.55.02.82-.16,4.21-1.38,4.02-3.94-3.22-9.12-3.57-13.61-5.23-2.15-.8-3.68-1.81-5.46-3.25l-1.82-2.83c-.35,2.35.84,4.66,2.25,6.45.64.81,1.9.95,1.8,2.05-1.12.03-2.26-.08-3.39.05-2.81.35-6.01,1.73-8.35,1.97Z"/>
  <path class="st10" d="M371.08,263.14c.54,1.21.63,1.14,1.21,2.02,2.94,4.44,7.91,8.91,13.36,9.72.17.92-.06.64-.52.9-3.57,1.99-8.01.76-11.62-.3,1.25,4.28,1.34,9.41-.75,13.43-.61,1.17-3.12,3.54-2.88,4.33.35,1.18,7.06,3.08,8.07,4.3h-6.48c3.29,3.39,6.37,7.04,6.86,11.99l-.39.79-1.21-.03c1.77,5,1.96,10.15.39,15.19-1.29.3-.6-.87-.99-1.63l-.42-.37c-.09,0-.14.38-.2.38-.26.04-.55-.02-.81,0,.38-3.46-.18-5.01-.81-8.1l1.29,1.34,1.94,3.93c.63-7.37-2.17-13.07-8.28-17.01-.91-.59-2.7-.6-2.64-2.01,4.41.27,7.4,3.72,10.92,5.87-1.86-5.84-7.29-10.38-12.94-12.36-.03-.61,1.78-.67,2.16-.65,1.54.07,3.14.79,4.72.65l-4.05-2.83c1.54-4.18.79-8.41-.4-12.55,2.43,2.49,3.02,6.7,3.24,10.12.6-.04.62-.63.81-1.01,2.49-4.8,1.99-10.61-.48-15.32-1.2-2.28-3.19-3.85-4.59-5.93,4.79,1.2,8.21,5.41,13.16,6.06-1.69-1.89-3.78-3.36-5.47-5.25-1.35-1.51-2.55-3.82-4.05-5.27-1.91-1.84-4.35-3.06-6.68-4.26,3.44-.51,5.95,2.14,8.5,3.85ZM379.38,274.07v.4c.26-.13.26-.27,0-.4Z"/>
  <path class="st2" d="M328.57,365.57c.72,1.25,1.34,2.61,1.62,4.05,1.42.07,1.14-1.09,1.21-2.02l4.86-.81c.71,4.68-.21,9.53-3.12,13.37l-4.96-.03c.33-2.21-2.94-11.78-6.05-9.65-.45.31-1.44,9.36-3.92,10.06-.67.15-2.88-4-3.61-4.85-1.11-1.28-2.01-1.61-3.04-2.42-.32-.25-4.48-2.93-3.64-3.64l10.93.81-.81-7.29c3.75-.33,7.1,1.33,10.53,2.43Z"/>
  <path class="st6" d="M353.27,351c-.25,1.06,1.16.89,2.02,1.62,2.59,2.2,3.91,8.63,3.59,11.89-.17,1.76-1.18,3.7-1.2,5.31,0,.72,1.03,5.65,1.3,5.82l40.24,2.08.6.81-46.15,1.21c1.92-7.11,1.42-14.45-2.84-20.64,1.33-1.05,5.76,5.42,5.67,6.88l.41-4.26c-.19-1.88-.87-4.31-1.68-6.01-.73-1.52-2.79-3.47-3.18-4.51-.46-1.21,1.14-.2,1.21-.2Z"/>
  <path class="st15" d="M335.86,356.26c6.3,3.85,9.53,8.43,7.57,16.28-.1.41-.11,1.22-.69,1.12-.05-4.5-2.25-10.67-7.69-10.12-.17.67.54.24.74.47.17.19-.2.78-.1,1.18.13.52.48.95.57,1.59l-4.86.81c.34-4.73-2.14-9.2-5.26-12.55,2.62.35,5.22.85,7.83,1.29.56.09,1.56.64,1.89-.08Z"/>
  <path class="st2" d="M313.19,379.74c-.01.27.03.54,0,.81-1.48.02-2.97-.01-4.46,0-8.26-1.85-14.28-9.29-13.76-17.81,1.85,2.22,2.83,5.02,4.52,7.41,3.4,4.81,8.04,7.92,13.69,9.59Z"/>
  <path class="st6" d="M287.68,246.14c-1.69.3-4.01.15-5.77.51-4.99,1.01-12.64,5.17-15.29,9.61-.98.6-1.9,1.36-2.83,2.02.36-6.48,10.19-11,15.79-12.15l-1.62-2.42c2.66-.24,5.61.51,8.1-.41.28-.1.61-.08.81-.4,1.07.84,6.41,2.26.81,3.24Z"/>
  <path class="st15" d="M352.05,347.35l-7.69,5.07c-.18.82.32.56.81.78.32.14,4.18,1.42,3.23,2.25-4.3.59-8.96-1.2-12.95.41l-4.45-2.43c7.64.68,13.41-4.69,20.11-7.24l.56.13c.36.24.28.9.38,1.04Z"/>
  <path class="st10" d="M373.11,329.13c.03.96.33,1.19.4,1.62.02.13,0,.27,0,.4h-.81c-.11-.7.25-1.75-.81-2.02-.51,2.43-1.38,5.19-2.55,7.37-.34.64-3.7,5.58-3.04,2.63.4-1.82,1.8-3.88,2.34-5.75-.56-.04-1.54.33-2.02.61-.27-1.31.68-1.45,1.21-2.02,4.6-4.97,5.2-9.89,2.43-16.19.27.12.63-.08,1,.4,1.95,2.51,1.73,9.83,1.83,12.96Z"/>
  <path class="st10" d="M295.78,241.68c.23,1.19-.63.82-1.4.82-2.99-.02-5.77-.64-8.28-2.26l-3.27-2.6c.52,1.95,2.23,3.08,3.62,4.28.37.32.38.94.42.98-.2.33-.53.3-.81.4-3.04-2.46-6.21-6.06-6.47-10.12,4.24,4.01,9.99,8.54,16.19,8.5Z"/>
  <path class="st5" d="M352.86,347.35c2.38,1.58,5.25,2.77,8.09,2.03-.56,2.4-3.83,2.51-5.67,3.24-.86-.73-2.27-.55-2.02-1.62.75.02,1.36-.04,2.1-.12.43-.05,1.99-.12,1.95-.69-2.35.23-3.47-.83-4.86-2.43.24.08.42-.24.4-.4Z"/>
  <path class="st11" d="M268.65,255.45v.81s.81,0,.81,0c-2.26,1.63-2.46,2.71-5.67,4.05.03-.67-.04-1.35,0-2.02.93-.66,1.86-1.43,2.83-2.02.71-.43,1.47-.52,2.02-.81Z"/>
  <path class="st5" d="M250.43,316.99c.18,0,1.04.63,1.58.45l.04.77c-2.36.43-6.04,1.15-7.69-.81,1.92.44,4.39-.48,6.07-.41Z"/>
  <path class="st5" d="M375.54,323.87c-.2,2.18-.37,5.25-2.02,6.88-.07-.43-.37-.66-.4-1.62l.78-.02c.3-1.77.64-3.45.84-5.24.26-.02.55.04.81,0Z"/>
  <path class="st11" d="M371.89,263.55c.06.32.71.95.4,1.62-.59-.89-.68-.81-1.21-2.02.25.16.55.25.81.4Z"/>
  <path class="st11" d="M311.16,237.23c4.49,1.67,9.67,2.01,13.61,5.23,1.22.19,1.39-3.2,1.38-4.02,6.73,1.38,7.7,6.42,7.29,12.55.59.67,2.04-2.1,2.23-2.42,1.29-2.18,2.07-4.43,2.62-6.89,1-.14,1.99.3,2.71.96.16.15.06.71.26.92.22.23.63.09.68.14.05.04-.19.7.27.82,2.08.55,8.98-2.14,10.87-3.65-2.15,5.31-8.68,7.67-10.33,13.35.43.45,2.19-1.63,2.7-1.96,4.14-2.63,9.47-3.66,14.3-4.11l-7.69,4.04c7.34-.22,15.37,1.89,18.58,9.16.3.68.29,1.43.44,1.77-2.55-1.7-5.06-4.36-8.5-3.85,2.33,1.2,4.77,2.41,6.68,4.26,1.5,1.45,2.7,3.75,4.05,5.27,1.69,1.9,3.78,3.37,5.47,5.25-4.95-.65-8.37-4.86-13.16-6.06,1.4,2.09,3.39,3.65,4.59,5.93,2.48,4.71,2.97,10.52.48,15.32-.2.38-.21.96-.81,1.01-.22-3.42-.81-7.63-3.24-10.12.4-.7-1.54-.99-.81-1.62,1.58-1.36,4.59,5.49,4.05,6.88.69.11.44-.98.4-1.41-.92-8.94-9.48-11.24-16.99-8.51,3.14-3.42,8.29-3.4,12.54-2.64-2.78-3.44-8.3-3.38-12.14-2.02l1.61-2.43c-4.92,1.23-8.15,5.72-10.12,10.12-.54-.7.06-2.37.27-3.17.84-3.12,2.06-6.25,4.58-8.37-1.54-.63-3.73,1.18-4.05,2.63-.8.06-.37-1.24-.19-1.61,1.07-2.17,6.64-4.18,8.91-4.86.58-.17.71.25.6-.82-5.31-1.17-10.24,1.71-13.16,6.07-.62-1.25-.01-2.73.11-3.95.2-2.07-1.34-.19-1.86.58-1.61,2.38-1.79,4.67-1.29,7.42l-3.03-5.26-.2,4.45c-.79-.54-.96-1.76-1.62-2.63-.43-.56-1.02-1.05-1.62-1.42-3.01-1.87-5.84-.18-8.9.81-.11.67.99.44,1.43.42,1.83-.11,3.18-.74,5.05.39,0,.04.59.25.4.81-5.02.13-10.76,1.2-14.57,4.66-.1,1.44,1.6,0,2.24-.19,1.85-.51,4.63-1.68,5.85.38-1.84-.01-4.13.71-5.67,1.62-5.53,3.27-9.11,11.72-9.29,18.09-.02.61.39.89.39.94-.04,1.88.07,3.79,0,5.67h-.81c-1.41-6.1-2.33-11.94-1.22-18.22l-3.23,3.64c.37-5.34,1.92-10.71,4.85-15.19l-3.63,2.23c-.13-.13,1.5-3.1,1.62-3.24.07-.07.71-.08,1.01-.39,2.51-2.67,4.89-4.44,7.9-6.48-2.92-1.71-6.94,1.16-9.13,3.22-.69.64-.84,1.48-.99,1.64-.67.69-1.95,1.82-2.83,2.23.63-1.18.96-3.16,1.61-4.26.61-1.03,3.81-4.21,4.85-5.07,3.84-3.14,8.12-4.32,12.96-5.06.82-1.08-7.25-2.75-7.9-2.82-.74-.09-7.46.27-4.37-1.55,2.61-1.53,9.33-.06,11.83,1.78l3.27,2.6c-2.85-6.48-9.92-7.57-16.28-6.36-2.72.52-4.92,1.95-7.6,2.31-.73-.56,5.47-5.32,6.48-5.27.38-.55-1.11-1.61-1.41-1.61h-7.69c-.23,0-1.77,1.07-1.82,0,6.03-4.29,12.76-4.08,19.83-3.25l-5.01-2.87-.65-1.98Z"/>
  <path class="st5" d="M373.51,331.16c.02.26.14.83-.21.81h-.6c-.03-.27.04-.56,0-.81h.81Z"/>
  <path class="st11" d="M335.45,282.17c.12,1.6,3.71,5.7,4.85,6.28,2.16,1.11.15-4.73.06-5.73-.25-2.62.04-5.9.78-8.43.41-1.4,2.01-5.15,2.42-1.66.34,2.87-.96,6.49-.42,9.53l.81-2.43.4.41c.02.81-.03,1.62,0,2.43.05,1.24-.04,2.52.61,3.64,1.27-1.2,1.4-2.91,1.82-4.45.18-.66.36-1.33.41-2.02h.4s0,6.68,0,6.68c-.99.94.71.15.73.12.5-1.08.35-2.96,1.7-3.56l.39,3.8c.19.55,1.05.13,1.23.25.12.08-.41,1.71,2.02,0l-.4,2.43,4.86-.8-2.43,2.63c-.23,1.05.76.42,1.21.6.97.39,1.64.94,2.83,1.21,1.62.38,4.32,1.2,4.05-1.21,1.02.08,2.19.67,3.24.81l4.05,2.83c-1.59.14-3.18-.58-4.72-.65-.38-.02-2.19.04-2.16.65,5.65,1.98,11.09,6.52,12.94,12.36-3.52-2.15-6.51-5.6-10.92-5.87-.06,1.41,1.73,1.42,2.64,2.01,6.12,3.95,8.92,9.64,8.28,17.01l-1.94-3.93-1.29-1.34c-.39-1.9-.41-.82-1.15-1.87-1.32-1.86-2.24-3.38-4.32-4.6.48,1.52,1.97,2.65,2.23,4.3.2,1.26-1.22.8-.81,2.17-.32-.05-.57-.59-.8-.21.46,1.14,1.68,6,.8,6.68-1.94-1.39-2.11-3.55-4.45-4.45-.28-.11-.53-.29-.81-.4.02-1.41-.41-2.95-2.05-2.19l-1.01,2.18-3.42-2.42c1.16-.36,3.3-.79,3.85-2.03.44-1-.11-1.65.04-2.45.3-1.5,2.6-1.17,2.99-4.83,0-.05.32-.22.29-.53-.26-3.28-7.31-5.04-10.01-5.14,0-1.29-1.45-1.46-2.29-1.98l-.77.79-7.46-1.64c.08.74,5.1,1.88,3.24,3.04-.38.24-4.34-.41-5.78-.12-1.82.37-5.79,3.03-5.96,5.17.28.26,5.25-1.83,6.38-1.93.7-.06.84-.13,1.3.51-.02.65-7.1,6.12-7.08,7.89,2.87-1.27,6.22-4.21,9.52-2.83-4.04,2.94-5.91,4.53-9.31,8.1-2.85,2.99-6.04,5.78-7.69,9.72.06-.52-.08-1.13,0-1.62.73-4.29,2.14-7.79,3.85-11.73-3.68,3.15-5.63,6.64-6.68,11.33-.39,1.73-.62,3.5-.81,5.26h-.4c-.04-.53.01-1.08,0-1.62,0-.27,0-.54,0-.81,0-.66-.06-1.37,0-2.02.3-3.35,1.21-6.1,2.02-9.31-2.15,2.3-3.89,5.8-4.45,8.91-.07.37.07.85,0,1.21-.02.12-.5.46-.4.81l-.81.4c-.09-3.67-.16-6.96.81-10.53.64-2.36,1.96-4.17,2.64-6.47-2,1.6-3.32,3.56-4.66,5.66-.93,1.46-1.5,2.27-2.32,3.97-.27.55.26,1.12-.91.89.57-1.96.82-4.18,1.62-6.07,1.45-3.43,4.48-6.34,7.07-8.92l6.28-4.44c-5.63,1.1-12.12,6-15.8,10.31-.87,1.02-1.04,1.79-1.61,2.64-2.06,3.06-3.91,5.76-4.05,9.72-.08-.08-.75.24-.83-.24-.06-4.1,1.44-8,2.45-11.91l6.07-8.5c-.82-.79-6.22,4.68-6.87,5.47s-.82,1.61-1.23,2.22c-.71,1.06-1.9,2.07-2.03,3.64-.79-.01-.12-2.46,0-2.83,1.02-3,4.86-7.82,7.28-9.92,1.79-1.55,4.41-3.64,6.89-3.44-.11.25-1.37,4.13-.21,3.64.75-.32,2.99-2.36,4.25-3.04,2.42-1.31,5.05-2.29,7.7-3.04,1.19-1.19-3.83-.8-4.21-.76l-6.32,1.98c1.8-2.12,2.45-2.71,5.26-3.24s4.99.1,7.7-.19c1.29-1.63-1.04-2.5-1.63-3.05-.51-.47-1.77-1.59-2.02-2.02h2.02c.6.6,1.08.93,2.02.81-.36-1.22-.79-2.44-1.21-3.64-.49-1.39-.81-2.89-1.21-4.05h.4c.13-.03.36.05.4,0ZM367.23,308.49c-.4.28.22.56.41.79.4-.27-.19-.54-.41-.79Z"/>
  <path class="st0" d="M244.36,352.21c.66-5.26,2.58-9.55,6.06-13.57-4.05,2.02-7.57,6.58-9.31,10.73-.72.1-.4-.91-.31-1.32,1.39-6.35,6.58-13.47,10.51-18.65,1.82-2.4,3.52-4.95,5.99-6.75-1.54,5.47-3.12,10.04-1.82,15.8.1.45,0,1.31.6,1.21.54-3.52,1.45-7.5,4.45-9.71-1.8,5.94-3.26,11.62,0,17.41l1-7.29,1.42-2.82c-.07,5.39,1.9,12.34,4.69,16.97.27.44,4.49,6.3,4.63,4.28l-.73-2.52.31-.92c-.23.97,1.83,2.67,2.64,3.24.7.49,1.3.94,2.22.81.25-.23-2.48-3.65-2.83-4.13-2.98-4.09-4.26-5.8-3.61-11.42.07-.6.5-2.42,1.18-2.66.76,6.43,4.31,11.76,8.52,16.4.3.33.31.93.39,1.01.45,2.41-2.16.48-3.24.81l2.85,2.69c-.84,2.9-1.5,4.86-1.18,7.98.26,2.55,1.97,4.97.7,7.49l-1.56.86c-4.28-1.21-6.64-1.93-10.12-4.86.99-1.99-1.13-6.77-2.42-8.31-1.45-1.72-3.24-1.37-4.49-2.39-1.77-1.45-2.1-5.67-5.63-4.69-.12-.97-.01-1-.4-2.02-.75-1.95-2.81-3.48-4.86-4.05.51-2.66,1.87-4.71,2.64-7.28-2.29,1.4-4.6,4.78-5.47,7.28l-2.83.4Z"/>
  <path class="st12" d="M281.2,259.9c-.16.36-1.43,3.37-.21,2.83.78-.35,3.24-3.4,4.25-4.25,2.68-2.26,6.25-4.43,9.72-5.05.15.73-.39.98-.8,1.42-1.44,1.6-3.72,3.03-5.28,4.84-1.14,1.31-4.16,5.29-4.04,6.89.84.85.82-.39,1.21-.8,3.87-4.05,8.99-8.34,14.59-9.52-3.88,2.86-8.09,5.58-10.7,9.75-.71,1.13-1.99,3.17-1.65,4.42.71-1.32,7.93-8.91,9.11-7.69.16,2.32-2.61,3.75-4.03,5.48-4.91,5.95-4.72,10.72-2.85,18-.62.24-1.69-.25-1.62,1.21-.07-.12-.54-.29-.74-.66-1.37-2.58-1.99-4.97-2.5-7.84-.75-.09-.33.85-.28,1.3.12,1.08.39,2.97.69,3.96-.23-.05-.69.08-.81,0-.24-.17-.4-.5-.41-.81h-.39c.06,1.2-.1,2.44,0,3.64l-3.64-.4-.4-3.64-1.83,6.07-1,6.88c-1.97-5.32-1.67-10.48,0-15.79-2.85,3.36-2.94,8.63-2.83,12.96h-.81c-1.2-5.77-1.14-10.59.81-16.19-1.96,2.17-3.49,6.85-3.64,9.72h-1.21c-.16-4.08.42-7.04,1.95-10.8.93-2.27,2.49-4.29,3.31-6.61-.9-.95-5.23,5.87-5.66,6.28-.48.45-.5.05-.41-.41.59-3.08,6.2-10.84,8.1-13.97,1.63.34,2.45-1.37,4.05-1.21ZM275.33,275.29v.4c.26-.13.26-.27,0-.4ZM274.93,276.1v.4c.26-.13.26-.27,0-.4ZM281.2,282.57v-.81h-.4v.81h.4Z"/>
  <path class="st13" d="M303.47,264.76c.97.34,1.35.24,1.21,1.62-.65,1.1-.99,3.08-1.61,4.26.88-.42,2.16-1.54,2.83-2.23l1.21,2.02c-.12.13-1.74,3.11-1.62,3.24l3.63-2.23c-2.93,4.48-4.47,9.84-4.85,15.19l3.23-3.64c-1.11,6.28-.19,12.12,1.22,18.22.14.61-.09,1.47.81,1.62.02-.54-.02-1.08,0-1.62.07-1.88-.04-3.79,0-5.67l1.62.4c.84-.18,2.54-6.71,5.26-5.67.83,1.6,2.47,2.66,4.25,2.83,2.11.21,8-.65,6.28-3.64.23-.24,2.6,1.39,3.24,1.62.59,2-1.02,1.97-1.21,3.24-2.81.53-3.46,1.12-5.26,3.24-.33.38-.87.42-1.21,1.21-2.48-.21-5.09,1.88-6.89,3.44-2.43,2.1-6.26,6.93-7.28,9.92l-3.42-1.62c-.7.67-1.06,1.3-1.44,2.02l-1.62.4c.21-.63.11-1.56.5-2.54.87-2.19,3-5.54,3.55-7.39s-2.54,1.15-2.85,1.62c-.27.41-.28.86-.38,1.02l-1.21.81c.06-3.6,2.19-6.6,3.25-9.9-5.61-6.87-6.55-15.56-5.28-24.1.04-.26-.05-.58,0-.81l.81-2.02,3.24-4.86ZM305.49,274.08h-.81v.4h.81v-.4ZM305.9,309.7h-.81v.4h.81v-.4Z"/>
  <path class="st1" d="M308.33,312.13c-.13.38-.79,2.82,0,2.83.13-1.57,1.32-2.58,2.03-3.64.44.69,1.26.83,2.02.81-1.01,3.91-2.51,7.8-2.45,11.91.08.48.75.16.83.24.53.49.77,1.27,1.62,1.21-2.02,6.64-.14,15.91,5.26,20.45-3.07-.71-5.2-3.29-6.55-6l-1.54-4.33v5.67c-4.11-4.28-4.77-11.7-4.86-17.41-.65.16-.98,1.76-1.11,2.33-.99,4.49-.27,9.15,1.11,13.46l-3.19-4.7c-3.28-7.13-1.54-15.7,1.98-22.42.38-.73.73-1.35,1.44-2.02l3.42,1.62Z"/>
  <path class="st16" d="M325.74,342.49c-.41,1.05-.69.07-.81,0h.81Z"/>
  <path class="st16" d="M318.86,314.96c-.8,1.89-1.05,4.11-1.62,6.07,1.17.23.65-.34.91-.89.82-1.69,1.39-2.51,2.32-3.97l2.02.81c-.97,3.57-.89,6.86-.81,10.53l.81-.4.66,1.24,2.18-.03c.01.54-.04,1.09,0,1.62.03.32-.16.81.2.81l.2-.81c.19-1.76.42-3.53.81-5.26l.65.81,2.18-.4c-.08.49.06,1.1,0,1.62-.93,2.22-1.52,6.46,0,8.5-.45,4.15.24,8,2.02,11.74-.76.77-5.27-3.62-5.67-4.45-.1-.22.05-1.05-.19-1.61-.76-1.75-1.56-3.41-2.04-5.27-1.09.02,1.67,6.23,1.42,6.89-2.57-1.52-5.48-8.35-6.37-11.26-.21-.69.28-1.53-.92-1.29-.58-1.99-1.59-3.72-4.05-3.64-.02-.81.02-1.62,0-2.43-.15-.34-1.11,1.28-1.21,1.62-.85.06-1.09-.72-1.62-1.21.14-3.96,1.99-6.66,4.05-9.72,1.01,2.13,2.45.86,4.05.4Z"/>
  <path class="st5" d="M286.06,284.19c2.12,7,9.61,14.2,10.48,21.7,1.26,10.77-6.06,26.53-18.38,26.07-.49-.02-1.5.31-1.41-.4,3.06-.53,5.33-2.68,7.69-4.46.15-.11.27-.28.4-.4h.4c3.52-2.3,4.94-6.21,6.88-9.72,2.71-4.89,3.36-4.05,2.02-10.12-.58-2.63-1.3-5.09-2.36-7.56-2.14-4.98-6.15-9.53-6.55-15.11.12.08.58-.05.81,0Z"/>
  <path class="st2" d="M347.6,308.49c1.22,1.88,3.93,4.17,5.92,5.21,2.32,1.21,3.39.24,2.39,4.11-.37,1.45-1.33,2.27-2.24,3.23v-2.83c-.94.62-1.71,1.59-2.43,2.43-.32-1.4-1.77-1.58-3.05-1.62-.66-.02-5.78.6-6.26.81.53-2.18,5.51-5.67,5.67-7.51.26-2.86-3.09-.07-4.06.83-1.92,1.79-4.19,5.47-4.98,7.98-.24.77-.73,1.3.53,1.14-.83.79-1.46,2.33-2.83,2.43.33-1.17,1.18-4.26,1.21-5.26.03-.82-.41-1.61-.4-2.43,3.4-3.57,5.27-5.16,9.31-8.1.2-.14.92-.13,1.21-.4ZM348.82,316.99c2.27.68,3.8-3.16,1.81-4.04-.54-.24-1.52,1.66-1.63,2-.22.67-.23,1.35-.18,2.04Z"/>
  <path class="st15" d="M354.89,326.7l-3.44,2.02c-2.06,1.37-.24,3.86-.35,5.82-.07,1.31-1.01,2.22-1.07,3.5-.22.1-.33.37-.4.4-.14.06-.55-.14-.74.07-.24.27.02.88-.07,1.14-.14.12-.26.29-.4.4-.46.36-1.11,1.15-1.21,1.21-.09.06-1.52.58-2.02.81-.5-.34-.96-.81-1.62-.81v-.81l.4-.2c-.04-.42-.83-.32-.81.2h-.4c-.21-.81-1.41-2.37-2.43-2.02,1.23-1.92,2.19-4.12,3.48-6.04,1.12-1.67,2.48-3.16,3.41-4.89.19-.08.62.08.81,0l.4-.4c2.28-.97,4.57-1.92,6.68-3.23-.12.95-.26,1.85-.21,2.83Z"/>
  <path class="st15" d="M354.48,338.45c.21,1.6-1.33,2.35-2.02,3.24-.24-2.41-2.32,0-3.03.02-.15-.77-.98-.77-1.02-.83-.03-.05-.03-.65,0-.81.02-.11.36-.26.4-.4.2-.18.71-.27.81-.4,2.51,1.51,2.38-.38,4.1-1.03.6-.23.71.22.76.22Z"/>
  <path class="st0" d="M337.07,327.51c-.9,1.66-1.57,4.24-2.23,6.06,2.98-.95,5.41-3.05,8.15-4.4,1.33-.65,2.85-1.06,4.2-1.67-.93,1.73-2.29,3.22-3.41,4.89-1.28,1.92-2.25,4.12-3.48,6.04s-3.26,3.74-4.05,6.07c-.02,0-.13.43-.4.24-2.44-5.12-2.47-11.08-1.12-16.55.15-.62.68-1,.71-1.1.69-.56,1.33-.48,1.62.4Z"/>
  <path class="st1" d="M313.59,326.3c2.46-.08,3.47,1.65,4.05,3.64,1.41,4.82,1.17,7.68,4.12,12.28.46.72,2.79,2.47.7,2.14-7.19-1.14-8.72-12.22-8.87-18.06Z"/>
  <path class="st14" d="M357.72,339.26l-.41-2.83-.42.78-1.19-.38c-.07.25.08.67,0,.81-.09.17-.39.77-.43.79-.16.1-.54.01-.79.02-.05,0-.16-.45-.76-.22-1.72.65-1.59,2.54-4.1,1.03.08-.1-.05-.58,0-.81.07-.03.18-.3.4-.4,2.86-1.31,4.38-3.13,5.88-6.07.85-1.67,2.95-5.99,1-7.29.23-.14.22-.58.91-.36,5.12,3.67,2.31,10.47-.1,14.94Z"/>
  <path class="st16" d="M296.99,273.26c-.52,6.39-1.64,12.6,0,19.03-.57-.36-1.21-1.7-1.5-2.34-2.25-4.86-2.31-9.8-2.14-15.07l.82-.2c.06-.6-.63-.82-.76-1.31-.23-.83,3.22-5.72,3.78-6.99.48,1.79-.34,3.73-.46,5.55-.03.53.27,1.07.25,1.33Z"/>
  <path class="st7" d="M355.29,299.98c2.7.1,9.75,1.86,10.01,5.14.02.31-.29.48-.29.53h-.4c-.56-3.37-4.63-4.65-7.64-4.4-.51.64-.27,1.85-.46,2.38-.09.24-3.59,3.02-3.9,3.19-3.07,1.62-5.09-2.13-5.01-4.8,2.83-1.43,4.31-2.14,7.69-2.02Z"/>
  <path class="st11" d="M356.91,324.68c1.94,1.31-.15,5.62-1,7.29-1.5,2.94-3.02,4.76-5.88,6.07.06-1.27,1-2.18,1.07-3.5.11-1.96-1.71-4.45.35-5.82l3.44-2.02c.02.27-.03.54,0,.81h.4c.25-1.06.64-2.24,1.62-2.83Z"/>
  <path class="st13" d="M341.93,319.82c.47-.21,5.6-.83,6.26-.81,1.28.04,2.73.22,3.05,1.62-.52.61-.75,2.46-2.02,1.62.11-.28.09-1.5.21-2.02l-8.11,5.65c-1.07.08-.41-.17-.28-.69.2-.83.69-1.71.7-2.54-1.72,1.11-3.69,3.07-4.66,4.85-.29-.88-.93-.96-1.62-.4.27-1.01.64-1.81.81-2.43,1.37-.1,2-1.64,2.83-2.43.63-.6,2.19-2.14,2.83-2.43Z"/>
  <path class="st4" d="M254.89,355.85l-2.33,6.38-.1,6.57c-2.71-5.4-3.58-11.03-2.43-17,2.05.57,4.11,2.1,4.86,4.05Z"/>
  <path class="st2" d="M369.87,315.77c.14.02.31-.04.4,0,2.77,6.3,2.17,11.22-2.43,16.19,1.28-5.12-.45-9.57-2.43-14.17,2.33.9,2.51,3.07,4.45,4.45.88-.68-.33-5.54-.8-6.68.23-.38.48.16.8.21Z"/>
  <path class="st15" d="M337.48,319.42c-3.42,2.85-5.63,6.9-6.89,11.13-.37,1.23-1.08,3.51-1.21,4.66-1.52-2.04-.93-6.28,0-8.5,1.65-3.94,4.84-6.72,7.69-9.72,0,.82.43,1.61.4,2.43Z"/>
  <path class="st2" d="M358.13,314.96l3.42,2.42,1.01-2.18c1.64-.76,2.08.78,2.05,2.19,0,.2.18,1.14.4,2.02-.81.03-1.62-.04-2.43,0-.27.01-.54-.02-.81,0l-.4,2.43-1.62-3.23-.81,2.43-1.62-6.07c.26-.05.6.06.81,0Z"/>
  <path class="st4" d="M302.66,305.65c.1-.16.12-.61.38-1.02.31-.47,3.39-3.43,2.85-1.62s-2.67,5.2-3.55,7.39c-.39.98-.28,1.91-.5,2.54-.15.44-.12.95-.47,1.34l-3.59,5.34c.44-3.72,2.64-7.26,3.49-10.73.17-.71-.24-1.51-.2-1.57.11-.17.81-.48,1.57-1.67Z"/>
  <path class="st16" d="M347.2,341.28v.4c-.17.12-.27.3-.4.4-.15.12-.26.29-.4.4s-.27.28-.4.4-.27.28-.4.4-.27.27-.4.4c-.31.31-.43.4-.81.81-.65.21-4.24,1.37-4.45,1.21.96-.98,1.65-2.56,2.83-2.83.46-.11,1.01.04,1.64-.18.42-.14.63-.56.78-.63.51-.23,1.93-.75,2.02-.81Z"/>
  <path class="st16" d="M348.41,340.87c.04.06.88.05,1.02.83.71-.02,2.79-2.43,3.03-.02-1.76,2.26-2.13,3.24-5.34,4.18-.47.14-5.28,1.1-4.38-.12.97.04,1.18-.75,1.62-1.22,1.39-.45.55-.54.81-.81.13-.14.27-.26.4-.4s.28-.26.4-.4.28-.27.4-.4.28-.26.4-.4c.12-.14.32-.23.4-.4.18-.13,1.03,0,1.21-.81Z"/>
  <path class="st13" d="M345.17,342.09c-.16.07-.36.49-.78.63-.64.22-1.18.07-1.64.18v-1.21c.24-.09.64-.41.81-.4.66,0,1.12.47,1.62.81Z"/>
  <path class="st13" d="M342.74,340.47c.07.28,0,.85,0,1.21-2.44.94-3.28,2.65-6.48,2.83.79-2.33,2.82-4.15,4.05-6.07,1.02-.34,2.21,1.21,2.43,2.02Z"/>
  <path class="st4" d="M292.13,276.91l-.42,11.56.42,3.01c-.35.37-2.61-2.27-2.86-2.62-.42-.59-.28-1.25-.38-1.42-.07-1.47.99-.97,1.62-1.21.75-.29.33-3.89.45-5.01.17-1.52.68-2.87,1.17-4.3Z"/>
  <path class="st2" d="M364.61,305.65c-2.49-1.41-5.3-1.74-8.1-2.02.19-.53-.05-1.73.46-2.38,3.01-.25,7.08,1.03,7.64,4.4Z"/>
  <path class="st4" d="M247.19,351.81c-.93,2.67-1.35,6.46-1.62,9.31-.61-.07-.9-1.51-1.02-2.01-.7-2.77-.53-4.18-.19-6.9l2.83-.4Z"/>
  <path class="st1" d="M353.67,321.04c-1.66,1.74-3.39,2.51-5.47,3.64-.81-.86.85-2.01,1.01-2.43,1.27.84,1.51-1.01,2.02-1.62.71-.84,1.49-1.81,2.43-2.43v2.83Z"/>
  <path class="st13" d="M357.72,339.26c-1.14,2.1-2.22,2.84-4.26,4.04l2.23-5.66c.08-.15-.06-.57,0-.81l1.19.38.42-.78.41,2.83Z"/>
  <path class="st5" d="M350.84,310.11c1.8.09,3.67.11,5.03-1.25.6-.6.7-1.76,1.44-1.99.48,3.54-4.12,6.94-6.47,3.24Z"/>
  <path class="st10" d="M303.47,264.76l-3.24,4.86c-.84.51-.64,1.29-.81,2.02-.05.23.04.55,0,.81l-1.21.81-.41-.81c.77-2.26,2.67-6.32,4.66-7.73.88-.62.74-.06,1.01.04Z"/>
  <path class="st16" d="M365.01,319.42c.45,1.76,1.15,3.34.81,5.26l-3.23-5.26c.81-.04,1.62.03,2.43,0Z"/>
  <path class="st14" d="M273.11,253.83c-.54,1.52-2.8,1.82-3.64,2.43h-.81s0-.81,0-.81c.46-.24.9-1.12,2.02-1.43.93-.26,1.83-.04,2.44-.19Z"/>
  <rect class="st7" x="252.46" y="272.86" width=".81" height=".4"/>
  <path class="st0" d="M348.01,327.51c.1-.04.22-.33.4-.4l-.4.4Z"/>
  <path class="st7" d="M254.89,270.02c2.17-.55,5.01-1.29,7.1-2.01,1.05-.36,6.73-3.18,7.07-2.85l-2.23,8.09c2.3-3.73,4.3-7.67,7.29-10.93.57-.63,3.11-3.49,3.85-2.83.12.71-.47,1.07-.81,1.62-1.91,3.13-7.51,10.89-8.1,13.97-.09.46-.07.86.41.41.43-.41,4.76-7.23,5.66-6.28-.82,2.32-2.38,4.33-3.31,6.61-1.53,3.76-2.11,6.72-1.95,10.8s.77,6.63,3.24,9.72c.05.07-.13.5.09.71.3.29,1.46.28,1.94.5.3.73,1.03,2.11,1.5,2.73.26.34.3,1.14.93.3l-2.84-7.48c-.11-4.32-.02-9.6,2.83-12.96-1.67,5.31-1.96,10.47,0,15.79l1-6.88,1.83-6.07.4,3.64c-1.74,6.7,4.45,15,4.45,21.26v6.28c.69-.17.95-1.74,1.1-2.35.42-1.77.66-3.52.53-5.35.67.15.91,1.02,1.03,1.6.17.78.59,3.8.59,4.48-.02,2.42-1.34,5.01-2.02,7.29.89.93,4.02-5.03,4.26-5.67.17-.45.09-.88.19-1.21.71-2.45,1.1-4.2.81-6.88.85-.12.9-.03.81.81l-.4,10.12c-1.94,3.51-3.36,7.42-6.88,9.72-.24-.3-.21-.19-.4,0-.14.13-.25.29-.4.4-2.31.54-4.01,2.13-6.39,2.72s-4.18.33-6.57.11l4.01-2.26c3.41-2.29,6.21-5.64,6.51-9.88-2.18,2.08-3.18,5.29-6.06,6.69,1.91-5.47,1.15-11.73-.14-17.29-.1-.45-1.35-5.53-1.89-4.78.29,4.29,1,8.09-.5,12.25-.19.51-.53,1.83-1.11,1.92-.55-3.37-.04-7.04-1.83-10.12-.96,2.34-.5,5.78-2.22,7.69-.83-4.79-1.1-10.46-2.55-15.07-.14-.43-.1-1.22-.69-1.13v15.18l-1.21,3.03c-.29-4.83-2.65-9.18-3.85-13.77-.35-1.35-1.42-5.18-1.42-6.27v-6.48c0-.31.7-1.16.4-1.82-1.75,1.6-1.69,4.79-2.03,7.08-.1.71.22.68-.8.61-1.33-6.17.5-12.05,3.44-17.4-4.28,3.77-7.53,8.63-7.5,14.57-.59.04-.73-1.48-.76-1.87-.58-7.4,4.21-15.28,10.48-18.98l-8.09,1.01,1.21-2.83ZM262.38,271.24v.4c.26-.13.26-.27,0-.4ZM268.85,276.1v.4c.26-.13.26-.27,0-.4ZM273.71,301.6v.4c.26-.13.26-.27,0-.4ZM282.22,316.99v.4c.26-.13.26-.27,0-.4ZM286.26,320.23v.4c.26-.13.26-.27,0-.4Z"/>
  <path class="st4" d="M267.84,373.26c-3.21-2.7-4.94-5.51-5.67-9.71-.53-.11-.64.75-.7,1.11-.51,3.23,1.2,7.59,2.72,10.43-3.83-1.22-6.91-6.1-7.97-9.84-.73-2.58-.62-4.86-.93-7.37,3.53-.98,3.86,3.24,5.63,4.69,1.25,1.02,3.04.67,4.49,2.39,1.3,1.54,3.42,6.31,2.42,8.31Z"/>
  <path class="st4" d="M292.54,275.69c.07-.15.33-.26.4-.4l-.4.4Z"/>
  <path class="st8" d="M338.29,241.68l-.41-9.31c2.69,3.33,3.73,7.07,4.05,11.33-.05-.05-.46.09-.68-.14-.19-.21-.1-.77-.26-.92-.71-.66-1.7-1.1-2.71-.96Z"/>
  <path class="st14" d="M369.87,315.77c-.41-1.37,1.01-.92.81-2.17-.26-1.65-1.75-2.78-2.23-4.3,2.08,1.22,2.99,2.75,4.32,4.6.74,1.04.77-.04,1.15,1.87.63,3.09,1.19,4.63.81,8.1-.2,1.79-.54,3.47-.84,5.24l-.78.02c-.1-3.13.12-10.46-1.83-12.96-.37-.47-.73-.28-1-.4-.09-.04-.26.02-.4,0Z"/>
  <path class="st11" d="M379.38,274.07c.26.13.26.27,0,.4v-.4Z"/>
  <path class="st9" d="M324.12,274.88c.6,0,1.47.19,2.02.4,3.21,1.28,6.37,6.69,6.78,10.02.17,1.4-.32,3,.11,3.74.25.43,1.52,1.55,2.02,2.02-.55,1.43-3.69.42-4.86,0-.64-.23-3-1.85-3.24-1.62,1.73,3-4.16,3.85-6.28,3.64-1.78-.17-3.42-1.23-4.25-2.83-.3-.59-.37-2.02-.61-2.03-1.37.32-2.39,1.41-3.45,2.22-.6.46-.86,1.23-.8-.19,1.09-7.26,5.18-12.67,12.95-12.96.04-.59-1.47-.72-1.87-.75-1.5-.13-2.89.29-4.2-.05,1.54-.91,3.83-1.63,5.67-1.62Z"/>
  <path class="st2" d="M332.62,267.59c.6.37,1.19.86,1.62,1.42.66.87.83,2.09,1.62,2.63l.2-4.45,3.03,5.26c-.5-2.75-.32-5.04,1.29-7.42.52-.77,2.06-2.65,1.86-.58-.12,1.22-.73,2.69-.11,3.95,2.92-4.36,7.86-7.24,13.16-6.07.11,1.06-.01.64-.6.82-2.27.67-7.84,2.69-8.91,4.86-.18.37-.62,1.66.19,1.61.32-1.45,2.51-3.26,4.05-2.63-2.52,2.12-3.74,5.26-4.58,8.37-.21.79-.81,2.47-.27,3.17-.17.39-.22,1.69-.81,1.62l-.4-.41-.81,2.43c-.55-3.04.76-6.67.42-9.53-.41-3.49-2.01.27-2.42,1.66-.74,2.53-1.03,5.81-.78,8.43.09,1,2.1,6.84-.06,5.73-1.14-.59-4.73-4.69-4.85-6.28.39-.42,1.26-2.39,1.21-3.01-.03-.39-1.13-2.47-1.3-2.57-1.61-.91-1.98,1.01-2.94.73-.56-1.51-2.45-.99-2.26-2.84-.99.75-.54-.36-1.37-.46-1.31-.15-1.98.16-2.65,1.26-.55-.22-1.43-.4-2.02-.4-1.22-2.07-4-.9-5.85-.38-.64.18-2.35,1.62-2.24.19,3.81-3.47,9.54-4.53,14.57-4.66.19-.56-.39-.76-.4-.81-.05-.24.02-.55,0-.8l2.43-.81Z"/>
  <path class="st9" d="M351.65,287.03c1.39-3.04,3.03-7.34,6.19-8.99.56-.29,2.7-1.03,3.11-.72.86.64-.43,2.84-.99.8l-3.04,2.83c3.31-.27,6.56,2.32,6.88,5.67l-2.02-.81c.67,3.53-1.87,5.18-4.86,6.07-.45-.18-1.45.45-1.21-.6l2.43-2.63-4.86.8.4-2.43c-2.43,1.71-1.9.08-2.02,0Z"/>
  <path class="st13" d="M326.14,275.29c.68-1.1,1.34-1.41,2.65-1.26.83.1.38,1.2,1.37.46-.19,1.85,1.71,1.32,2.26,2.84.96.28,1.33-1.65,2.94-.73.17.1,1.27,2.18,1.3,2.57.04.61-.83,2.59-1.21,3.01-.05.05-.27-.03-.4,0l-1.01-1.22c-.86.56.56,1.08.6,1.22.4,1.16.73,2.66,1.21,4.05-1.62.26-1.98,1.67-.81,2.83h-2.02c-.43-.74.06-2.34-.11-3.74-.4-3.33-3.57-8.74-6.78-10.02Z"/>
  <path class="st15" d="M314.81,314.56c.57-.85.74-1.62,1.61-2.64,3.67-4.31,10.17-9.21,15.8-10.31l-6.28,4.44c-2.59,2.57-5.63,5.49-7.07,8.92-1.6.46-3.04,1.72-4.05-.4Z"/>
  <path class="st2" d="M323.71,297.55l6.32-1.98c.38-.04,5.4-.43,4.21.76-2.65.74-5.28,1.73-7.7,3.04-1.26.68-3.5,2.72-4.25,3.04-1.16.49.1-3.39.21-3.64.34-.79.89-.83,1.21-1.21Z"/>
  <path class="st15" d="M329.38,325.08l-2.18.4-.65-.81c1.05-4.69,3-8.18,6.68-11.33-1.71,3.94-3.12,7.44-3.85,11.73Z"/>
  <path class="st13" d="M325.33,325.49h-.81s0,1.77,0,1.77l.82.26c0,.27,0,.54,0,.81l-2.18.03-.66-1.24c-.09-.35.38-.69.4-.81.5-.26.7-1.13,0-1.21.56-3.1,2.3-6.6,4.45-8.91-.81,3.21-1.72,5.96-2.02,9.31Z"/>
  <path class="st16" d="M310.35,311.32c.41-.6.57-1.41,1.23-2.22s6.05-6.26,6.87-5.47l-6.07,8.5c-.76.02-1.59-.12-2.02-.81Z"/>
  <path class="st2" d="M335.05,291.08c.59.55,2.93,1.41,1.63,3.05-2.71.29-4.88-.34-7.7.19.19-1.27,1.81-1.24,1.21-3.24,1.17.42,4.31,1.43,4.86,0Z"/>
  <path class="st15" d="M322.5,316.99l-2.02-.81c1.34-2.1,2.66-4.06,4.66-5.66-.68,2.3-2,4.11-2.64,6.47Z"/>
  <path class="st2" d="M346.79,281.76c-.42,1.54-.55,3.25-1.82,4.45-.65-1.13-.56-2.4-.61-3.64l2.43-.81Z"/>
  <path class="st14" d="M335.86,286.22c.42,1.2.85,2.42,1.21,3.64-.94.12-1.42-.2-2.02-.81-1.17-1.17-.81-2.57.81-2.83Z"/>
  <path class="st14" d="M363.8,291.89c.27,2.42-2.42,1.59-4.05,1.21-.23-1.39,3.01-1.29,4.05-1.21Z"/>
  <path class="st16" d="M325.33,325.49c-.06.65,0,1.36,0,2.02l-.82-.26v-1.77s.82,0,.82,0Z"/>
  <path class="st2" d="M335.05,282.17h-.4c-.05-.14-1.46-.66-.6-1.22l1.01,1.22Z"/>
  <path class="st16" d="M322.9,326.3c.07-.36-.07-.84,0-1.21.7.09.5.96,0,1.21Z"/>
  <path class="st13" d="M325.74,329.94l-.2.81c-.36,0-.18-.5-.2-.81h.4Z"/>
  <path class="st15" d="M345.17,278.53c1.97-4.4,5.2-8.89,10.12-10.12l-1.61,2.43c3.84-1.35,9.36-1.42,12.14,2.02-4.25-.76-9.4-.78-12.54,2.64,7.51-2.73,16.07-.43,16.99,8.51.04.43.29,1.51-.4,1.41.54-1.39-2.47-8.24-4.05-6.88-.73.63,1.21.92.81,1.62,1.2,4.14,1.94,8.37.4,12.55-1.05-.14-2.22-.73-3.24-.81s-4.28-.18-4.05,1.21c-1.2-.28-1.86-.83-2.83-1.21,3-.89,5.54-2.54,4.86-6.07l2.02.81c-.32-3.35-3.57-5.94-6.88-5.67l3.04-2.83c.56,2.04,1.85-.15.99-.8-.41-.31-2.54.43-3.11.72-3.17,1.65-4.8,5.95-6.19,8.99-.18-.12-1.05.31-1.23-.25l-.39-3.8c-1.34.6-1.2,2.48-1.7,3.56-.02.04-1.72.82-.73-.12v-6.68h-.4c-.04.69-.23,1.36-.41,2.02l-2.43.81c-.03-.81.02-1.62,0-2.43.59.07.64-1.23.81-1.62Z"/>
  <path class="st14" d="M367.23,308.49c.22.26.82.53.41.79-.2-.24-.81-.51-.41-.79Z"/>
  <path class="st14" d="M346.39,308.89c-3.3-1.38-6.64,1.56-9.52,2.83-.02-1.77,7.06-7.24,7.08-7.89-.46-.65-.6-.58-1.3-.51-1.13.1-6.1,2.19-6.38,1.93.17-2.14,4.14-4.8,5.96-5.17,1.45-.3,5.4.35,5.78.12,1.86-1.16-3.16-2.29-3.24-3.04l7.46,1.64.77-.79c.85.52,2.29.7,2.29,1.98-3.38-.12-4.87.59-7.69,2.02-.89.45-1.86.96-2.83,1.22,1.39,1.39,1.9,3.81,2.83,5.26-.29.28-1.02.26-1.21.4Z"/>
  <path class="st4" d="M284.44,287.03c.71,8.63,6.44,16.67,4.45,25.51h-.4c0-.67-.42-3.69-.59-4.48-.12-.57-.36-1.45-1.03-1.6.13,1.83-.1,3.58-.53,5.35-.15.61-.41,2.17-1.1,2.35v-6.28c0-6.25-6.2-14.55-4.45-21.26l3.64.4Z"/>
  <path class="st13" d="M285.25,284.19c.4,5.58,4.41,10.13,6.55,15.11,1.06,2.47,1.78,4.93,2.36,7.56h-1.62c.1-.83.04-.93-.81-.81.29,2.68-.1,4.43-.81,6.88l-2.02-.4c1.99-8.84-3.75-16.87-4.45-25.51-.1-1.2.07-2.44,0-3.64h.39c.01.3.17.64.41.81Z"/>
  <path class="st5" d="M273.92,293.1c.29,1.41.67,3.14,1.21,4.45-.48-.22-1.64-.21-1.94-.5-.21-.21-.03-.64-.09-.71-.96-3.17-2.2-6.32-2.02-9.72.15-2.87,1.68-7.54,3.64-9.72-1.95,5.6-2,10.43-.81,16.19Z"/>
  <path class="st12" d="M294.16,306.87c1.33,6.07.68,5.24-2.02,10.12l.4-10.12h1.62Z"/>
  <path class="st12" d="M290.92,312.94c-.1.33-.02.76-.19,1.21-.24.64-3.37,6.6-4.26,5.67.68-2.28,2-4.86,2.02-7.29h.4l2.02.4Z"/>
  <path class="st4" d="M271.08,286.62c-.18,3.4,1.07,6.55,2.02,9.72-2.47-3.09-3.09-5.84-3.24-9.72h1.21Z"/>
  <path class="st4" d="M274.73,293.1l2.84,7.48c-.64.84-.67.04-.93-.3-.47-.62-1.2-1.99-1.5-2.73-.54-1.32-.92-3.04-1.21-4.45h.81Z"/>
  <path class="st9" d="M282.22,316.99c.26.13.26.27,0,.4v-.4Z"/>
  <path class="st12" d="M286.26,320.23c.26.13.26.27,0,.4v-.4Z"/>
  <path class="st9" d="M285.25,326.7h-.4c.2-.19.16-.3.4,0Z"/>
  <path class="st9" d="M273.71,301.6c.26.13.26.27,0,.4v-.4Z"/>
  <path class="st12" d="M268.85,276.1c.26.13.26.27,0,.4v-.4Z"/>
  <path class="st16" d="M287.68,246.14l-3.86,3.23-1.4,2.03c.6.54,8.7-4.13,10.52-2.63-3.9,3-9.68,6.46-11.74,11.14-1.6-.16-2.42,1.55-4.05,1.21.33-.55.93-.9.81-1.62-.74-.67-3.28,2.2-3.85,2.83-2.99,3.25-4.99,7.2-7.29,10.93l2.23-8.09c-.34-.34-6.02,2.48-7.07,2.85-2.09.73-4.92,1.46-7.1,2.01-2.02.51-4.03.88-6.06,1.43-.29.08-1.59.56-1.03-.22,5.51-4.21,12.19-4.9,17.98-8.74,2.54-1.68,8.81-6.94,10.56-9.28.23-.31.82-1.03.62-1.4-1.22.89-2.36,1.64-3.85,2.02-.61.15-1.51-.07-2.44.19-1.12.31-1.56,1.19-2.02,1.43-.55.29-1.32.38-2.02.81,2.65-4.44,10.3-8.6,15.29-9.61,1.75-.36,4.08-.21,5.77-.51ZM278.58,258.29l-.6.6.19.19c.22-.26.82-.53.41-.79Z"/>
  <path class="st9" d="M262.38,271.24c.26.13.26.27,0,.4v-.4Z"/>
  <rect class="st7" x="280.8" y="281.77" width=".4" height=".81"/>
  <path class="st5" d="M274.93,276.1c.26.13.26.27,0,.4v-.4Z"/>
  <path class="st5" d="M275.33,275.29c.26.13.26.27,0,.4v-.4Z"/>
  <path class="st15" d="M318.45,276.5c1.32.34,2.7-.08,4.2.05.4.03,1.91.16,1.87.75-7.77.29-11.86,5.7-12.95,12.96-.02.11-.37.44-.42.98-.15,1.49.13,3.17.02,4.69l-1.62-.4c0-.05-.41-.33-.39-.94.19-6.38,3.76-14.82,9.29-18.09Z"/>
  <path class="st15" d="M305.9,268.4c.15-.16.31-.99.99-1.64,2.19-2.06,6.21-4.93,9.13-3.22-3.01,2.05-5.39,3.82-7.9,6.48-.29.31-.94.32-1.01.39l-1.21-2.02Z"/>
  <path class="st4" d="M311.57,290.27c-.06,1.42.2.65.8.19,1.06-.81,2.07-1.9,3.45-2.22.24,0,.31,1.44.61,2.03-2.72-1.04-4.42,5.49-5.26,5.67.12-1.52-.16-3.2-.02-4.69.05-.54.4-.87.42-.98Z"/>
  <path class="st15" d="M309.54,301.2c-.02.54.02,1.08,0,1.62-.89-.15-.66-1.01-.81-1.62h.81Z"/>
  <path class="st9" d="M299.42,271.64c.17-.73-.03-1.51.81-2.02l-.81,2.02Z"/>
  <rect class="st1" x="305.09" y="309.7" width=".81" height=".4"/>
  <rect class="st11" x="304.69" y="274.08" width=".81" height=".4"/>
  <path class="st7" d="M278.58,258.29c.4.27-.19.54-.41.79l-.19-.19.6-.6Z"/>
  <path class="st11" d="M341.93,319.82c-.64.29-2.2,1.83-2.83,2.43-1.26.16-.77-.37-.53-1.14.79-2.51,3.06-6.19,4.98-7.98.97-.9,4.31-3.69,4.06-.83-.17,1.85-5.14,5.34-5.67,7.51Z"/>
  <path class="st14" d="M348.82,316.99c-.05-.69-.04-1.37.18-2.04.11-.34,1.1-2.24,1.63-2,1.98.89.45,4.72-1.81,4.04Z"/>
  <path class="st13" d="M343.15,340.47c-.03-.53.76-.62.81-.2l-.4.2h-.4Z"/>
  <path class="st14" d="M332.62,267.59l-2.43.81c.02.26-.05.57,0,.8-1.87-1.13-3.22-.5-5.05-.39-.44.03-1.54.26-1.43-.42,3.07-.99,5.89-2.68,8.9-.81Z"/>
  <text class="st3" transform="translate(209.88 410.59)"><tspan x="0" y="0">shaggylab</tspan></text>
</svg>