<?xml version="1.0" encoding="UTF-8"?>
<svg id="Layer_1" xmlns="http://www.w3.org/2000/svg" version="1.1" viewBox="0 0 595.28 841.89">
  <!-- Generator: Adobe Illustrator 29.5.1, SVG Export Plug-In . SVG Version: 2.1.0 Build 141)  -->
  <defs>
    <style>
      .st0 {
        fill: #db7827;
      }

      .st1 {
        fill: #f7ac1c;
      }

      .st2 {
        fill: #376ba3;
      }

      .st3 {
        fill: #372b19;
      }

      .st4 {
        fill: #8b471f;
      }

      .st5 {
        fill: #f09221;
      }

      .st6, .st7 {
        fill: #fdc41a;
      }

      .st8 {
        fill: #eb8624;
      }

      .st9 {
        fill: #fab518;
      }

      .st10 {
        fill: #fece27;
      }

      .st11 {
        fill: #7d431c;
      }

      .st7 {
        font-family: Ebrima-Bold, Ebrima;
        font-size: 38.64px;
        font-weight: 700;
      }

      .st12 {
        fill: #f6a61d;
      }

      .st13 {
        fill: #994b22;
      }

      .st14 {
        fill: #facd3e;
      }

      .st15 {
        fill: #75401b;
      }

      .st16 {
        fill: #6e3f1a;
      }

      .st17 {
        fill: #f6a31f;
      }

      .st18 {
        fill: #633d1a;
      }

      .st19 {
        fill: #f39a20;
      }
    </style>
  </defs>
  <rect class="st2" x="181.22" y="307.21" width="243.56" height="211.24" rx="48" ry="48"/>
  <g>
    <path class="st14" d="M303.24,326.55c.79.96,1.56,2.02,1.82,3.34-2.59-1.58-5.42-3.12-8.49-3.34-4.72-1.34-9.35-.48-13.96.61-.86.2-1.72.25-2.66.53-.61.18-1.87.43-2.19.99,1.97.67,5.06.54,5.62,3.03-1.43-.51-3.6-.18-5.16.01-5.18.64-9.07,2.01-13.2,5.16-1.84,1.4-3.66,3.02-5.16,4.85h6.37s-.91,1.22-.91,1.22c-1.24.42-2.89,1.81-4.35,2.48-1.92.87-3.98,1.41-5.97,2.07-4.25.33-7.63-.08-11.22-2.43.03,4.76,3.24,7.9,7.58,9.25-5.81,3.67-9.93,9.43-9.71,16.54,2.94-.15,4.92-3.7,8.2-2.58-1.54,5.64-1.93,11.9-9.11,12.74l-.15.78c.14.27.6.41.76.59,2.5,2.83,5.1,4.59,9.04,4.77.7.03,2.92-.87,2.8.39-1.4,1.89-2.93,3.76-4,5.87-.64,1.25-1.84,3.35-1.18,4.62.83.58,5.82-2.22,7.3-1.99.12.47-.12.71-.29,1.08-1.29,2.86-3.95,5.7-5.43,8.83-1.58,3.33-2.71,6.7-2.17,10.42.23.28,4.15-3.07,4.55-3.34.48.9-.37,2.51-.61,3.64-.61,2.97-.8,4.2-.3,7.28.35,2.16.95,4.1,2.43,5.76-3.18-.76-5.8-2.88-8.04-5.15-1.4,5.8,2.04,10.53,6.14,14.17.2.18.58-.02.39.69-1.17.17-2.57.29-3.73-.02-.24-.06-.21-.5-.45-.57-1.44-.38-3.12-.36-4.48-1.22-.3.2-.4.4-.46.75-.54,3.14,4.38,7.6,7.29,8.35.05.57-.84.24-1.21.3-.74.12-1.8.24-2.43.61-4.77-.13-9.79-.09-14.57,0-.61.01-1.21-.02-1.82,0-2.56.07-6.81,0-9.1.61-.4.11-.89-.12-1.21.46,0,.96,5.82,1.03,6.67,1.06,1.41.05,2.84-.04,4.25,0,1.01.56,2.7.3,3.94.3,18.91.06,37.84,0,56.75,0h.91c24.16,0,48.72.57,72.83,0,2.86-.07,6.12-.07,8.95-.31.72-.06,4.69-.43,4.7-1.06-.61-.55-1.79-.67-2.58-.75-2.96-.3-5.98-.25-8.95-.31-4.04-.08-8.1.01-12.14,0-.56-4.16-2.43-8.07-5.16-11.23.17.05.44-.05.61,0,.86.26,5.77,2.66,6.07,2.42-1.62-5.01-5.53-8.65-10.32-10.62-.25-1.02,1.15-.49,1.9-.67,2.36-.59,4.59-1.84,5.99-3.87-2.78-.59-5.6-1.26-8.09-2.68-1.26-.72-3.73-2.73-4.35-4-1.44-2.97-.81-8.1,2.12-10.01-.01.2.02.41,0,.61-.51.78-.37,2.28-.3,3.19.03.45-.24.88.45.75.55-.44.98-1.11,1.52-1.54,2.22-1.76,4.92-3.25,6.98-5.74,2.67-3.23,3.73-7.59,5.01-11.53,1.35.58.99,2.2,1.81,3.2.31.23.74-.25.92-.47.91-1.1,2.77-6.04,3.19-7.58.82-3.01.63-5.82,1.36-8.8.82-1.11,2.73-4.45,2.96-5.69.36-1.95.29-4.52-1.14-6-1.25-1.29-4.62-2.44-6.37-2.58-7.53-2.64-19.65-4.09-25.5-9.85-4.08-4.02-2.24-7.2-2.76-12.11s-4.16-10.18-8.16-13.24c-.11-.08-.19-.22-.3-.3-.41-.3-.74-.63-1.21-.91-.68-.41-4.33-2.3-4.85-1.82,1,2.14,2.08,4.24,2.12,6.67-1.42-.91-3.67-4.89-5.46-4.86-.34-1.03-.96-.97-1.82-1.52-1.77-1.12-5.05-2.73-7.13-2.73h-4.4c.82.79,1.7,1.54,2.43,2.43Z"/>
    <path class="st6" d="M303.24,326.55c.66-.95.62.45,1.09.55.24.05.6-.25,1.02-.09s.88.83,1.54.76l-.31.9c1.21-.11,1.23.95,1.8,1.4.43.34,1.67,1.22,2.01.75-.14,1.25,1.15,1.59,1.62,2.29.43.64,2.47,5.05,2.67,5.82.28,1.05.11,2.51.34,3.27.19.63,1.69,1.09.35,1.51.5.51-.27,2.05.46,2.25.38.1.85,0,.94-.45.24-1.15-.23-4.77-.7-5.85-.17-.39-.65-.31-.69-.55-.44-2.88-.23-4.59-1.86-7.46-.55-.96-1.98-1.15-2.39-2.22,1.42-1.34,1.42.06,1.94.47.4.31,1.16.48,1.31.67.69.84-.01,3.11,2.5,2.65-.7-1.5-2.03-2.34-2.64-3.89-.13-.33-.02-.75-.09-.97l-.6.6c-.13-.38-.17-1.19-.38-1.44-.24-.29-1.66-.31-.84-.68.86.54,1.48.48,1.82,1.52,1.79-.03,4.04,3.95,5.46,4.86.35.23.79.23,1.18.34l.04,1.18,2.12.31c-.03.63.02,1.18-.25,1.78l1.47,1.41-.61.3.59,1.64c-1.39.08-.29,2.4-.1,3.59.27,1.73.62,3.32.76,5.07.07.85.28,1.24,1.18,1.09l-.91,1.51h.91s-.61.91-.61.91c2.04.6,1.55,2.81,2.72,4.1.22.24,3.07,2.49,3.27,2.54.4.11.85.04,1.15-.25-.37,2.87,3.95.56,3.81,2.69l1.19.04c-.39.69-1.53.14-1.21,1.51,1.28.16,2.4-.64,3.49-1.21l-.14.87.75.34.21-.52.54.21.31-.91c.07.24-.2.73.18.94l3.15.43c-.45-.93-.57-1.9-1.71-2.24-.31-.09-.96.98-1.62.88-.13-.43-.08-.93-.51-1.23-.85-.6-3.34-.77-4.4-1.22-.38-.16-.71-.95-.95-1.07-2.09-1.07-2.07-.47-3.84-2.38-2.04-2.2-3.68-4.85-4.53-7.62-.47-1.52-.73-3.28-1.24-4.81.16-.06.58-.46.61-.48h-.61s0-.61,0-.61h.6s0,.61,0,.61c.17-.07.62.12.88-.02.21-.27-.36-1.37.63-1.2-1.44-1.2-.47-1.95-.62-3.45-.05-.53-.51-2.06-.69-2.66s-1.73-4.58-1.89-4.79c-.24-.31-.32-.4-.74-.32l-.3.91v-1.82c3.99,3.06,7.62,8.09,8.15,13.24s-1.32,8.09,2.76,12.11c5.85,5.76,17.98,7.21,25.5,9.85-3.19-.25-7.2,1.11-7.89,4.55,0-.42-.41-.99.3-1.67l-.45-.45c-1.44.78-1.82-.01-2.88-.46-.59-.25-1.12.14-1.36-.75h-.45s-.17.63-.17.63l-1.05-.32v.91s-1.37-.01-1.37-.01l-.15-1.5c-.5-.13-.13.52-.49.61-.74.18-1.84-.18-2.63,0-.12.03-.64.77-1.92.87-1.66.13-.99.2-1.53.33-1.08.26-1.77-.63-1.93,1.21-.52.14-.14-.6-.46-.63-.46-.03-.82.29-1.22.45-.17.07-.42-.14-.44-.13l-.91-.3-.3-.6c.12.91-.93.52-1.61.91-3.01,1.72-3.22,2.97-4.75,5.63-.47.81-2.21,3.09-2.31,3.76-.15.99.88,1.38,1.69.93-.07.19.1.66,0,.99-.14.47-.78-.26-.3,1.13l-1.21.61.6.6c-.87-.1-1,.93-1.27,1.14-.09.07-.51-.13-.76,0-.77.41-.88,1.17-1.92.69l.3.91c-2.65.26-4.58,1.71-6.53,3.34l-.75-.6c.21.89-.7,1.39-1.52,1.51.09-.6.15-1.6.91-1.52l-.56-.33,1.15-2.57-.58-.27c1.87-2.42,2.46-5.89,4.54-8.14.26-.28.69-.12.94-.4s.33-1.19.89-1.47l-.6-.45.94-.19,1.33-2.85c-1.45.31-1.9,2.84-3.79,2.43l.3.91c-.71-.03-1.65.34-1.52-.6h-.3c.34.81-.54,1.72-1.23,1.98-.48.18-.75-.17-1.02-.15-.08,0-.75.75-1.04.86-.46.19-1.08.07-1.42.65l-.45-.6c.15.88-.73.47-1.2.76-.28.18-.35.69-.64.89-.64.44-3.13.75-3.26.85-.19.15-.25.8-.66,1-.49.24-1.3-.48-2.13,1.04.03-.2-.79-.71.3-.61l-1.51-.9c1.58.52.92-.01,1.59-.4.8-.46,1.7-.2,1.75-1.73l.76.27.88-.83,1.69.26-.31-.6,1.21.3-.17-1.52h-1.34s.16.61.16.61c-.53-.48-1.82.03-2.36.33-.36.19-.06.7-.53.59l.3-2.73c1.09-.6,3.22-1.14,3.98-1.96.22-.24-.04-.71,0-.74.32-.25,1.91-.22,2.09-1.25-1.08-.38-1.14.44-1.45.57-.43.19-1.67.48-1.88.64l-.91-.3c-.05.18.06.51,0,.61-.22.37-.46.22-.61.3.78-1.28-.85.29-.76-.91l-1.06,1.52c-2.36.77-4.41.9-6.68,1.52-.04-1.47-.38-1.08-1.21-2.12l3.34-1.22c-.43-1.74-.62-.42-.75-.37-.63.23-1.69,0-2.07.07-.13.03-1.93,1.37-2.09,1.45-.19.09-.63-.27-.85-.24,1.07-1.48,3.41-2.35,3.64-4.25l.91.6-.31-.9,1.22-.31-.27-1.17c1.85-.84,3.2-2.94,4.37-4.59.42-.59-.44-.08-.46-.45l.91-.15-.6-.45c.24-.25.54-.52.67-.85.69-1.78,1.63-4.62,1.72-6.46,0-.15-.43-.13-.58-.35-.52-.78.31-1.14.33-1.74,0-.13-.49-.12-.67-.58-.48-1.21-.14-2.03-.25-2.75-.02-.14-1.57-.41,0-.94v-.76s-.57.26-.57.26l-.66-1.77.91-.61-.91.15-.04-1.03c-1.03.15-.77-.53-.87-.64.3-.49.42-1.04.25-1.6-.2-.67-1.53-2.28-1.77-.83v-.61s-.61.3-.61.3c-1.05-1.76-2.94-3.15-4.38-4.73-.11-.12-.31-.14-.47-.14-.08-.11.22-.41.3-.6s.51-.37.31-.91l-1.82-.61.6-.9c-.69-.01-1.33-.23-1.22.6l-.3-.6-.3.61c-.54-.63-.85-.29-.91-.3-.09-.02-.21.02-.3,0v-1.21c-.39-.1-.65.23-.91.3-.08.02-.2-.01-.3,0l.24-1.48-.54-.19.92-1.06h.6s-.31.9-.31.9l2,.03.26.55c.33-.24.69-.25,1.08-.28-.03.22-.4.56-.31.91l.77.31.3-.61c.38.65,1.62,1.65,2.29,1.96.51.24,1.18.04,1.45.21.1.06.32.95.65,1.32.56.62,2.51,2.71,3.21,1.68.89-1.31-.51-1.17-.67-1.31-.66-.54-1.81-2.55-2.83-2.05.12-.88-.04-1.04-.92-.91l.31-.6c-1.48-.14-1.77-1.21-3.51-1.17-.36,0-.62.24-.74.25.2-1.35-.44-.82-1.29-1.23-.38-.19-.02-.96-1.14-.29v-.91c.88-.22,1.82.24,2.6.25.35,0,.67-.26.74-.25,3.07.21,5.9,1.76,8.49,3.34-.26-1.31-1.03-2.38-1.82-3.34ZM293.53,330.19h-.6v.6h.6v-.6ZM312,339.25c.48-.53-1.97-5.51-2.67-6.2-.79-.77-1.94-.29-1.54-2.26l-.91,1.36.95.34c.25,1.37.67,2.94,1.12,4.26.15.45.62.42.66.63.12.62-.3,1.42-.25,1.56.01.03.42.05.54.27,1.11,1.97,1.24,3.62,1.78,5.75.24.93,1.01,1.67.64,2.81l-.89.17.91.16.02,6.2-.93.17.61.49v1.61s-1.22.33-1.22.33l.76.91c1.58-2.62,2.99-8.1,1.97-11.02-.14-.4-.72-.02-.6-.51l1.22-.15-.9-.3c.29-1.19.14-3.23-.62-4.26l.61-.3c-.86-.63-.56-1.96-1.82-1.67l.56-.34ZM327.07,343.24v.3c.2-.1.2-.2,0-.3ZM327.82,344.45v-.91h-.3v.91h.3ZM321.51,346.5c-.17-.1.14-.66-.35-.53v1.82s1.51-.91,1.51-.91c.06-.6-.72-.1-1.16-.38ZM322.21,345.97v.3c.2-.1.2-.2,0-.3ZM315.69,350.5l1.2.17c-.61-1.28.37-3.15-.75-4.4.53,1.23-.34,1.19-.39,1.35-.17.64.33,2.11-.06,2.87ZM322.29,348.16l-1.15.44-.06,5.94-1.44,4.17,2.09-1.09c1.24-.8,1.47-1.86,3.22-1.64.78,1.45-2.03,1.86-2.6,2.29-.25.19-.1,1.79-1.89,1.34-.21-.05-.68-1.21-1.43-.9-.08.07.37.58.26,1-.04.15-1.41,2.51-1.53,2.59-.18.12.12-.39-.85.5-.54.49-2.98,2.08-1.75,2.66,1.3.62,1.09-.2,1.78-.81.74-.66.71-.82.92-1.03.29-.28,1.73.28,1.47-1.28l.73.31c.07-.13.79-.77.85-.8,1.25-.53,2.16-.85,3.66-1.35.3-.1.25-.62.8-.77,1.87-.51,2.84.5,2.33,2.33-2.08.05-1.19,1.45-1.78,2.02-.15.15-.63.11-.94.41-.36.37-.86,1.14-1.17,1.41-.15.13-.72-.78-.54.69-.7.47-.6-.95-.91-.61-.09.1-1.16,1.9-1.17,2.02-.03.46.6.83.56,1.32l3.34-3.51,1.07.16-.14-.86c1.49-.8,2.89-.85,4.54-.95l-.6-.6c.81.08,5.58-.62,5.76-1.07.36-.89-1.03-.14-1.16-.2-.04-.02-.05-.45-.25-.55-1.01-.51-2.24-.65-3.05-1.01-.72-.31-1.36-2.77-2.97-1.43l.16-.89c-1.15.02-1.32-.46-1.22-1.54-1.21.77-1.22-1.03-2.42-1.22l.91-1.2c-1.6-.04-.98-.79-1.36-1.52-.32-.63-.73-1.07-.99-1.75-.43-1.11-.09-2.19-1.06-3.04ZM306.73,349.91v.3c.2-.1.2-.2,0-.3ZM339.66,358.41c-.55-.1-1.01.33-.91.91h.6s.31-.91.31-.91ZM338.44,364.17l-3.34.31.3.76-.9-.46v.91s-1.82-.3-1.82-.3l.6-.6c-.85.1-1.79.3-2.6.58-.48.17-1.81,1.08-2.1,1.17-.24.07-1.43-.1-1.97.37l.63.48-.33,1.03-.6-.91-1.51.92.6.9c-1.2-.06-1.53.51-2.13,1.37l.61,1.06-.9-.61c0,.64-.61.95-.89,1.43-.47.77-.87,2.31-1.26,3.19-.18.42-1.09,1.07-.87,2.17l-.92.2v2.42s-.91.61-.91.61l1.22-.22v-.69s1.2.3,1.2.3l-.6-.91c.46,0,.84.15,1.24-.2.13-.11,1.47-2.61,1.71-3.07.58-1.12.5-1.23,1.29-2.43.37-.56-.13-1.55,1.22-1.28l-.6-.9c.85.12.33-.44.41-.53.74-.88,2.03-.61,1.73-2.2.92.25,2.42-1.08,2.58-1.85,1.34.43,2.35-.77,3.47-.28v-.91c1.43.43,2.45-.3,3.77-.63l.63.63.5-.86.56.26v-1.22ZM334.8,367.51v-.6h-.3v.6h.3ZM336.17,366.91v.3c.2-.1.2-.2,0-.3ZM301.27,369.94v.3c.2-.1.2-.2,0-.3ZM315.53,374.19v.3c.2-.1.2-.2,0-.3ZM311.13,374.8c-.97-.86-1.37,1.63-.3.76.23-.19.45-.62.3-.76ZM304.31,379.04v.3c.2-.1.2-.2,0-.3ZM319.03,381.78l-.76-.3-.46,1.21-.59-.3.14,1.51c.13.04.78-1.67,1.35-.91l.32-1.21Z"/>
    <path class="st18" d="M248.93,447.02c-.2,1.18,1.32.32,1.94.34,1.23.03,2.43.7,3.35-.35l2,.62c-.48-1.18-1.67-.92-2.73-.91-.17-.85.31-.59.91-.61v-3.33s.61,1.51.61,1.51c.46.1.17-.37.53-.58.28-.17,1.72-.7,1.05.13l.54.15c-.04-.35.08-.77.02-1.08-.06-.36-1.49-1.16-2-1.34-.69-.25-1.3-.37-1.96,0v-.91s1.82,0,1.82,0l-.94-.48.04-1.34h-1.52s1.07-1.51,1.07-1.51l1.96,1.21-.91.6c1.38.72,1.13-.17,1.36-.25.81-.3,3.78,2.75,4.48,3.52.88-.07,1.22-.21,1.6.7l1.65-.62v.91c1.19-.06,1.25-1.07,0-1.22l.6-.45-.91-.46c-.32-.74.58-.53.62-.79s-.19-1.51-.31-1.73c-.19-.33-.66-.13-.83-.27-.25-.21-.2-.7-.39-.92-.77-.88-1.63-1.73-2.44-2.53l.62-1.95c-1.47.88-2.68-.19-3-1.7-.14-.64.07-.33.43-.41,2.42-.58,1.28-.15,1.68.59h1.2s-.91.46-.91.46c1.24.66,1.35.32,1.24,1.95l1.79.63.3-1.82c-1.24.26-.83-1.3-2.12-.61l.24-1.14-.41-.67-1.05.29-.31-1.82.91-.3c-.65.03-.93-.61-.91-1.22l.3.6c.29.05.66-.06.91,0,.97.23.22.19.6.75,1.19,1.77,2.68,3.39,4.27,4.85.58.53,2.04.78,1.8,1.99,1.06-.55.68.11,1.51.31l-.64.74.64,1.68-.6.3c1.55.24.72,2.69.74,3.81.02.77,1.16,2.03-.74,2.57l.62.47-.32,1.04c2.3.45,1.84-.66,2.59-1.51.28-.31.77-.22.96-.4.17-.16,1.81-3.92,1.91-4.33l-.6-.44c1.61.51.81-2.07,1.21-2.43.16-.15,1.03.41.3-.91l.76.61.45-.61.46,1.82c1.47-1.16.14-1.55.15-1.66.03-.42.85-.81.9-.99.1-.32-.03-.69,0-.99.49.27.62.01.78.62.17.65.3,1.55.44,2.23l.6.17.88-2.39-.57-.33c1.24-.05.77-1.63.91-2.43l.9,1.36,1.23-.15c.39.75-.61.53-.62.78-.06,1.02,1.65,3.37.93,4.99l.61-.15c-.57.73-1.85,2.11-1.32,3.11.27.5.76.19.7.68l-.93.19-1.2,4.36c.61-.01,1.75.09,2.23-.27.25-.19.19-.65.38-.91.4-.55,1.05-.07.57-1.54.23.43,2.48-.54,2.58-.63.03-.03-.27-.39-.2-.52.5-.89,3.24-1.02.51-3.25.58-.42.41-1.47,1.21-1.38.12-.52-.45-.19-.56-.33-.23-.29.48-3.96,1.17-4.37-.8-1.05-.58.37-1.21.45l-.3-2.12c.43.75,1.7.22,1.82.3.08.06.16.67,1.21,1.21-.52,1.1.6,1.61.6,1.7.03,1.87,1.36,2.82,2.1,4.6.2.48.22,1.05.64,1.44l-.61.3.58.28.03,5.03c1.86-.43,3.29.02,3.94-2.12,1.05-.02,1.01,1.27,1.28,1.46.3.21,1.3,0,1.61.67l.15-.6c.53-.12.14.6.46.62.53.04.83-.39,1.97-.32.2.01.41-.03.61,0,.1.1.19.24.3.3.47.27.42.28,1.03.32,8.15.52,17.84.09,26.13-.01.51,0,1.35.19,1.66-.31.1,0,.2,0,.3,0h12.44c2.55,0,5.3,0,7.89,0,3.83.41,7.78.35,11.69.31.51,0,1.35.19,1.66-.31,2.97.06,5.99,0,8.95.31.79.08,1.97.21,2.58.75-.01.62-3.98,1-4.7,1.06-2.82.24-6.09.24-8.95.31-.32-.5-1.15-.3-1.66-.31-15.98-.2-31.75-.06-47.6-.11-7.39-.02-15-.44-22.52-.19-.58.02-1.22-.31-1.05.61h-.91c.15-1.01-.42-.49-.96-.52-4.89-.24-9.87.16-14.67.16-13.18-.01-26.87-.69-40.07-.25-.58.02-1.22-.31-1.05.61-1.25,0-2.94.26-3.94-.3l3.03-.3c-2.26-.04-4.53.06-6.8-.03-.49-.02-1.05-.63-.48.33-.85-.03-6.66-.1-6.67-1.06.32-.57.81-.35,1.21-.46,1.19.81,2.82.04,4.08-.01s2.65.06,3.97.01c.58-.02,1.22.31,1.05-.61.61-.02,1.21.01,1.82,0,.32.5,1.15.3,1.66.31,4.05.04,8.11-.1,12.15-.02.84.02,1.88.76,2.26-.29-.5-.02-1.01.01-1.52,0,.62-.37,1.69-.49,2.43-.61ZM281.7,435.18h-.6v.6h.6v-.6ZM278.06,438.52l-1.51.6.75.61.76-1.21ZM293.08,441.56v.3c.2-.1.2-.2,0-.3Z"/>
    <path class="st16" d="M256.51,404.23c.51-.6,1.32-1.69,1.81-2.35.66-.9.53-2.15,1.84-1.71l.64-1.66,1.17-.04-.6,1.21.91.3h-1.82c.55,1.94-1.46,1.65-1.52,3.18.79,1.04.59-.37,1.21-.45l.91.91c-.12-.86,1.96-3.44,2.73-2.73,0,.99-1.54,4.44-.3,4.85-.54,1.64-.95,2.65-.54,4.41.02.07.28.94.31,1,.07.18,1.3.43-.07,1.87l.52.06-.23.55h.92c.38.75-.62.55-.63.77-.01.34,2.65,5.42,3.07,5.98,2.48,3.31,6.6,6.08,9.27,9.47.2.25.04.91.72.78l-.6.6c1.57-.12,1.22,1.19,1.54,2.2.19.6.49-.42.28,1.14-.04.3.09.67,0,.99-.06.18-.87.57-.9.99,0,.11,1.32.5-.15,1.66l-.46-1.82-.45.61-.76-.61c.72,1.32-.14.76-.3.91.08-1.03-.62-1.57-.85-2.34-.2-.71.02-1.6-.33-2.4-.3-.69-.82-.64-.9-.76-.05-.06.35-.84.2-1.54-.22-.97-1.6-2.95-2.66-3.28l.6-.6c-.45.04-1.08-.16-1.46.08-.17.1.14.66-.36.53l-.16-.91c-1-.23-.66.7-.91.61-.56-.27-.82-1.14-1.13-1.42-.08-.07-.48.13-.71-.07-.5-.44-.1-.81-.31-1.22-.28-.54-1.6-1.01-1.68-1.11-.32-.46-.45-1.92-.59-2.55l-.91.3c.21-1.22-.18-2.78-1.52-2.13l.3-.91-1.8-.33c.37-.69-.08-1.98.05-2.56.04-.16.87-.2.54-1.06l-.45.61-.15-3.04h.91s-.23-1.09-.23-1.09l.85-.59-.92-1.66-.3,1.51-.45-.91c-1.04.93-2.53,3.66-1.04,4.41.06.8-.88,1.05-.93,1.27-.1.43.25,6.5.37,7.15.36,1.95,2.27,4.67,2.96,6.6-.25-.06-.62.04-.91,0l-.3-.6c-.03.6.26,1.25.91,1.22l-.91.3.31,1.82,1.05-.29.41.67-.24,1.14c1.28-.69.88.88,2.12.61l-.3,1.82-1.79-.63c.11-1.62,0-1.29-1.24-1.95l.91-.45h-1.2c-.41-.75.74-1.18-1.68-.6-.36.09-.56-.23-.43.41.32,1.51,1.53,2.58,3,1.7l-.62,1.95c.81.8,1.67,1.65,2.44,2.53.19.22.14.7.39.92.17.14.65-.07.83.27.13.22.36,1.47.31,1.73s-.94.05-.62.79l.91.46-.6.45c1.24.15,1.18,1.16,0,1.22v-.91s-1.65.62-1.65.62c-.38-.91-.73-.77-1.6-.7-.71-.77-3.68-3.82-4.48-3.52-.23.08.02.98-1.36.25l.91-.6-1.96-1.21-1.07,1.51h1.52s-.04,1.34-.04,1.34l.94.48h-1.82s0,.91,0,.91c.66-.36,1.27-.24,1.96,0,.51.18,1.94.99,2,1.34.05.31-.07.73-.02,1.08l-.54-.15c.67-.84-.77-.3-1.05-.13-.36.22-.07.68-.53.58l-.61-1.51v3.33c-.6.02-1.09-.24-.91.61,1.06-.02,2.25-.27,2.73.91l-2-.62c-.91,1.06-2.11.38-3.35.35-.62-.01-2.14.84-1.94-.34.38-.06,1.26.27,1.21-.3-2.9-.75-7.83-5.2-7.29-8.35.06-.35.15-.55.46-.75,1.36.86,3.04.84,4.48,1.22.24.06.21.5.45.57,1.16.31,2.56.19,3.73.02.19-.71-.19-.51-.39-.69-4.1-3.65-7.54-8.38-6.14-14.17,2.24,2.28,4.86,4.39,8.04,5.15-1.48-1.67-2.08-3.61-2.43-5.76l.31-1.66v-5.62c.23-1.13,1.08-2.74.6-3.64.7-.47.99.34,1.51-.46l-1.21-.3c.49-.45,1.4-1.04,1.78-1.55.87-1.16.86-1.04,1.69-1.96.92-1.01,1.12-3.69,2.9-3.63l-.36-.86-1.77-.05c-.34.78.65.55.61.75-.1.59-.88,1.18-1.52,1.09l.15.88-1.06-1.2c.81.1.68-.78,1.07-1.22.24-.28.71-.26.75-.3ZM259.55,406.96h-.6s0,.6,0,.6l.76.3-.16-.9ZM260.61,407.27v.3c.2-.1.2-.2,0-.3ZM253.63,443.68v.3c.2-.1.2-.2,0-.3Z"/>
    <path class="st11" d="M253.17,387.54c.22-.29.46-.34.3-.91h-2.12s.91-1.37.91-1.37l-.91-.15.15-1.51c.84.68.68-.17.99-.29,1.62-.66,3.23-.6,4.62-1.54-.4,1.31,1.21,1.96,1.22,2.73v.3l-1.21.91-2.12-.61c.18.55-.03,1.9.06,2.28.05.19.55.14.56.3.03.58-.76,1.02-.62,1.66h2.43s-.91,3.03-.91,3.03l1.83-.46v-1.04c1.69-.56,2.37-1.96,4.54-1.84v1.21s.77-.27.77-.27l.74.58c-.12.5-.34.98-.3,1.52h1.21s.6-.61.6-.61l-.63-.49.32-.88-1.21.46c.32-1.32.37-.65.82-1.45.77-1.36.93-3.25,3.09-1.4l-1.18,3.46-.6-.6.62,3.17-.62.17.6.6c-.7-.07-.64.05-.3.61h-1.52s.61.31.61.31l-.61,1.05.91.16c.52,1.27-.62,1.58-.62,1.68,0,.36.39.71.44,1.03.13.97-.19,2.67,1.1,2.76v.29c-1.14-.11-.62,2.21.6,1.83l-.24,1.59,1.76,2.65c-1.04-.41-2.12,1.53-1.76,2.08.18.27,1.18.19.84,1.26l-.73-.32-.24.55c-1.94.03-.99-1.25-1.15-2.14-.01-.08-.94-.73-.91-1.28l1.21.46v-.91s-1.51,0-1.51,0l.6-.44c-.45-.59-.37-1.64-1.12-1.94-.34-.14-.79.02-1-.05-1.24-.41.31-3.86.3-4.85-.77-.71-2.85,1.87-2.73,2.73l-.91-.91c-.61.08-.41,1.49-1.21.45.05-1.54,2.07-1.24,1.52-3.18h1.82s-.91-.31-.91-.31l.6-1.21-1.17.04-.64,1.66c-1.31-.43-1.18.81-1.84,1.71-.48.66-1.3,1.76-1.81,2.35-.04.05-.51.03-.75.3-.39.44-.26,1.32-1.07,1.22l1.06,1.2-.15-.88c.64.09,1.41-.5,1.52-1.09.04-.21-.95.03-.61-.75l1.77.05.36.86c-1.78-.06-1.98,2.62-2.9,3.63-.83.92-.82.79-1.69,1.96-.38.5-1.29,1.1-1.78,1.55l1.21.3c-.52.79-.81-.01-1.51.46-.4.27-4.32,3.62-4.55,3.34-.55-3.73.59-7.09,2.17-10.42,1.48-3.13,4.14-5.97,5.43-8.83.16-.36.41-.61.29-1.08-1.48-.22-6.47,2.57-7.3,1.99-.66-1.27.54-3.37,1.18-4.62,1.07-2.11,2.59-3.98,4-5.87ZM256.06,383.29v.3c.2-.1.2-.2,0-.3ZM256.97,383.29v.3c.2-.1.2-.2,0-.3ZM260.76,391.18l-.46-.6h-.45s0,.6,0,.6h.91ZM262.28,391.49c-.16.16-1.52.35-.45,1.21.34-.12.35-1.13.45-1.21.07-.06.43.05.61,0l-.46-.6c-.32-.03-.07.53-.15.61ZM263.19,394.22l-1.07.29c-.08,1.5-1.15,1.96-.75,3.65,2.26.22,1.3-1.93,2.73-2.88l-1.21-.46.3-.6ZM265.01,398.16l-.9-.31-.98,1.75-.54-.23.3,1.22c1.29-.17,1.72-1.28,2.12-2.43ZM262.73,398.16v.3c.2-.1.2-.2,0-.3ZM264.86,405.14v.3c.2-.1.2-.2,0-.3Z"/>
    <path class="st19" d="M282.61,327.15c1.88,1.12,4.07,1.46,6.07,2.27.71.29,1.42,1.05,2.14,1.25.5.13.54-.18.59-.18.1-.01.22.02.3,0,0,.79.3.79.91.91.1.02.21-.02.3,0l1,.98,2.64,1.14c-.08.19-.38.49-.3.6.16,0,.36.02.47.14,1.44,1.57,3.33,2.97,4.38,4.73-.69-.18-.89.63-.91,1.21h.91c.06.06-.47.74-.61.91-.16.22-.27.59-.3.61-.05.03-.19-.01-.3,0-.15.02-.59.02-.61,0s-.01-.46,0-.61l.91-.46-.61-.15h-.3c-.02-.56-.43-1.19-.3-2.12,0-.03.45-.17.3-.61l-.91.3c0-.23-.8-.93-1.04-1.25-.46-.61.24-.91-1.39-.87l.29-.58c-.7-.28-1.57-.61-2.23-.94-.34-.17.23-.5.12-.6-.63-.54-1.26,2.27-1.76.05.59-.04.62-.06.54-.66l-1.67-.6v.61s-2.87-.16-2.87-.16l1.21,1.37.3-1.21c.64.3-.02.98,1.09,1.2.74.14.16-.68.73-.59.01.55.02,1.11.29,1.6.13.22,2.34,2.53,2.6,1.77l.21.47.52-.19.33,1.8c-.17.23-2.27-1.6-2.44-1.68-.34-.16-.75.16-.85.1-.14-.08-1.05-2.06-1.26-.25h-.29c-.21-1.06-1.76-1.65-2.74-1.21l.3-.91-2.99.04c-.7,1.26-.86,1.12.15,2.09l1.33-.62v.91s2.13-.3,2.13-.3c.18.47-1.17.14-.3.75,1.42.99,3.75.34,4.25,1.97l.6-.6c-.24,1.53,1.23,2,2.11,2.97,1.08,1.19,3.05,3.56,4.09,5.22.1.16.44,2.57.78,3.04-.22.02-1.73.38-1.8.29-.21-.92-.58-2.25-.97-3.08-.15-.32-.51-.29-.67-.62-.38-.76-.98-2.72-1.7-3.37-.55-.51-2.01.1-1.25-1.4-.69.26-.91-.48-.98-.51-.41-.18-1.66.34-1.59-1.3-.86.65-.67-.15-1-.3-.74-.35-1.36.04-1.13-.92-.62.63-1.39-.64-2.13-.92l-.3.61-.76-.61-.61,1.82c-.07,0-.72.24-.91.3-.45-1.15-1.92-.62-2.07-.68-.04-.02-.07-.45-.29-.52-.77-.25-1.48.21-1.61-.91l-.89.89-.61-.15.16-.75c-.7.43-2.08-.08-2.7,0-.18.02-.26.97-1.09.59l.6-.6c-.61-.06-2.35-.96-1.97.29l-.61-.91c-.24,1.01-.39.31-1.19.34-1.91.07-3,.67-4.88.63-.85-.02-1.35.63-2.27-.36v.92c-1.15-.45-2.07-.09-2.15,1.19l-1.49.02c-.03-1.73,1.24-1.24,1.81-1.53.04-.02-.37-.59.12-.91.58-.39,2.21-.13,1.4-1.5,4.14-3.15,8.02-4.52,13.2-5.16,1.56-.19,3.73-.52,5.16-.01-.56-2.49-3.64-2.36-5.62-3.03.32-.56,1.58-.81,2.19-.99.94-.28,1.8-.32,2.66-.53Z"/>
    <path class="st19" d="M284.73,340.81c.05.12,0,.42,0,.61-.15-.05-.41.04-.61,0v-.45c-.02-.31.43-.09.61-.15Z"/>
    <path class="st19" d="M265.31,342.93c.2-.07.68.14.86-.05l.54-1.16,1.2.26c1.27-1.62,4.75-1.06,6.33-1.54.45-.14.6-1.8,1.84.06l.76-.91v1.51s.31-1.21.31-1.21c.69.47.75.83,1.36,0l.15.61c.91-.89,2.64-.87,2.43.61l.6-.6v.91c.52.14.15-.6.48-.63.84-.06,1.72.85,2.11,1.54.68.15.47-.49.45-.91.33.11,1.1.45,1.2.83.63,2.51-1.5.61-2.71,1.29l-.31-1.52-1.04,1.16c-1.13-.62-2.32.34-3.36-.55l-.44.6-.3-.91c-.15,1.6-1.51.17-2.57.92l-.47-.62-.3.91-.16-.53-.75-.38-.31,1.51-1.06-.54-.91.84-.29-.61-2.29.61.6,1.06c-.96-.25-1.02.32-1.67.62-.12.06-.52-.23-.68-.12-.15.09-.74,1.45-1.28,1.63.19.36.94.28,1.21.45.98.63.86,1.66,1.21,1.82.37.17,1.13-.41.91.61-.87-.6-1.37,1.13-1.81,1.7l-1.22-.18.3.91-.9-.15c.38.57-.31,1.53-.62,2.28-.29-.08-.76-.71-.91-.61v2.43c-.11.1-.19.21-.31.3l-.61-.3c-.03.19.04.44,0,.6l-.43-.58-1.08.28.6.9c-1.31-.04-2.03,1.87-2.94,2.37-2.15,1.17-6.14,1.95-8.29,2.99-.5.24-1,1.16-1.69,1.31l-.45-.56-.58-.03c.06.74-.6.82-1.22.91l.31.6c-.67.06-.99.12-.92-.6h-.3c.08.79-.11,1.35-.76,1.82l-.15-1.21-1.21.6c-.47-.45,1.02-1.08,1.11-1.3,1.03-2.44,1.23-1.85,2.16-3.3.06-.09,0-1.61.37-2.07l.9.91c-.11-2.17,1.72-1.63,2.89-2.73l.3.61c.54-1.41,2.49-.79,2.58-.91.06-.08-.15-.59.2-.94.21-.21,3.03-1.63,3.38-1.71.64-.14,1.25-.11,1.89-.08l.3.6c-.02-1.97,2.93-1.75,3.35-2.89.18-.49.04-.93-.61-.75l-.18.61-.58-.27c-.22.92-.72.13-1.07.38-.41.29-.02,1.15-.59,1.09v-1.21s-.89.78-.89.78l-1.23-.18.6-.6c-1.42.31-.59-.79-1.37-1.52l-.32.93c-1.1-.11-2.24.08-3.33-.01-.25-.02-2.85-.53-2.98-.6-.28-.15-.31-1.62-2.31-1.08l-1.53-1.36h2.12s-.31.75-.31.75l.61.16v-.91s1.21.31,1.21.31l.02-.88c.17-.17,2.79.06,3.46-.04s.88-.53,1.07-.59c1.99-.66,4.05-1.2,5.97-2.07,1.46-.67,3.1-2.06,4.35-2.48ZM280.79,342.63l-.6-.6v.61s.6,0,.6,0ZM254.24,348.39v.3c.2-.1.2-.2,0-.3ZM262.74,353.86l-.45.45.14.14c.17-.19.61-.4.31-.59ZM263.49,354.77v-.6h-.3v.6h.3ZM262.73,354.77v.3c.2-.1.2-.2,0-.3Z"/>
    <path class="st5" d="M352.71,394.52c.33-.11,1.79-.66,1.82,0-1.59-.36-.62,1.05-.91,1.52-.04.07-.22-.71-1.05.8-.37.68-.36.94-.59,1.71-.31,1.06-.52,2.11-.79,3.03-.07.23-1.23.89-1.36,1.44l-.45-.6-.27.88.57.33-.54.05c.55.46-1.19,1.72-1.24,1.83-.11.26.27.59.19.8-.04.1-1.11,1.15-1.3,1.57-.61-.49-1.3-.51-2.27-.91l-.31,1.51c-.48.09-.32-.61-.3-.91.02-.2-.01-.41,0-.61,0-.17.75-.65-.15-1.21l-.91.91-.45-.91-.6,1.2-.92-.6.6-.6-1.21-.31c.25.95-.72.88-.86,1.74-.09.61-.05,3.21-.11,3.38-.01.04-.45.05-.56.25-.91,1.63.32,3.83.31,5.56l-2.43-.91c-.1-.45-.7-.98,0-1.67l-.9.16c.19-.72-.3-1.53-.3-2.13,0-.1.55-.75.3-1.21l-2.12.3.31,1.21c-.34,0-.88,0-1.08.29-.07.1-.7,2.12-.74,2.33-.19,1.05.88,2.64-1.22,2.24l.6-.45c-1.83-1.25-.32-3.23-.61-5.01l-3.94.91.61.9c-.26.03-.64-.08-.84.05-.65.42-.92,8.18.54,8.91l-.52.2.22.55-.69-.02-.22,1.23-.3-1.21c-1.59.39-1.43-.91-1.83-2.12l-.6-.31c.16-.31.16-.86.3-1.21v-.3l.3-.3h-.91s-.3-.15-.3-.15l.92-.64c-.15-1.19-1.77-3.53-1.76-4.57,0-.57.45-.94.53-1.5.1-.72-.66-1.89.61-1.94l-.6-.45c.56-.38.52-1.01.72-1.56.04-.1.42-.11.48-.32.17-.66-.04-2.3.12-2.75.2-.59,2.3-.72,1.72-2.19l.6.15-.3,1.37h1.06s.14.6.14.6c-1.25.19-.55,2.07-1.12,3.28-.19.4-.7.35-.7.55,0,.31.37.69.27,1.13-.18.8-1.4.49-1.18,1.42,1.49.85,2.4.25,3.94,0,.11-.56-.49-.1-.61-.45-.26-.77.77-.03.89-.6l-.28-.76c1.5.26,2.45-1.83,3.49-2.72.66-.57,1.61-1.05,2.36-1.53.4-.26-.09-.85,1.13-.29l.31-1.22.6.15.31.77c-.29-.82.87-2.42,1.66-2.43.48,0,.92.52,1.22.51.35-.02.83-.86,1.4-.68l1.03,1.07c.23,0,2.83-2.67,3.34-3.03.8-.56,2.05-.71,2.49-1,.33-.22.49-1.15.75-1.35.11-.08.75.2,1.09-.14.29-.29.22-.92.37-1.15.19-.29.64-.72.91-.91.23-.16,1.74-.78,2.12-.91ZM346.64,404.84c-1.3.07-1.12.45-1.21,1.52l-.76-.3-.15.6,2.43-.3-.31-1.52ZM334.65,405.44v.3c.2-.1.2-.2,0-.3ZM335.41,409.39v-.91h-.3v.91h.3ZM335.87,410v.3c.2-.1.2-.2,0-.3ZM333.74,410.3v.3c.2-.1.2-.2,0-.3ZM331.31,414.24v.3c.2-.1.2-.2,0-.3Z"/>
    <path class="st3" d="M360.29,364.78c1.75.14,5.12,1.29,6.37,2.58,1.43,1.48,1.51,4.05,1.14,6-.23,1.24-2.15,4.58-2.96,5.69-.26.35-1.24.83-1.51,1.37l-5.47,8.94s-.34-.23-.16-.57c.3-.57,2.31-3.21,1.98-3.67l-1.52-.31c.17,1.24-.56,1.87-1.22,2.73,1.13-2.55,1.88-5.19,2.1-7.99-1.6-.92-2.81-2.57-4.52-3.24-.41-.87-.96-1.65-1.52-2.43-.08-.11-.22-.19-.3-.3-.37-1.42-.3-2.8-.3-4.25.69-3.44,4.7-4.8,7.89-4.55Z"/>
    <path class="st1" d="M335.41,411.82c0,.6.49,1.41.3,2.13l.9-.16c-.69.69-.09,1.23,0,1.67.19.86.51,2.21.77,3.01.16.51,1.14.67.45,1.84.84.22.73-.66.91-1.21l.77,1.22c.75-.27,1.52-.44,1.81-1.22.65.35.16,1.26.42,1.62.28.39,1.52.1,1.26,1.41l1.81-.9-.76-.62-.3.61c-1.09-.64-.84-2.18-2.23-2.16l-.05-1.48-1.21.3,1.52-.91c.62,1.27,3.09,3.28,4.35,4,2.5,1.43,5.31,2.09,8.09,2.68-1.4,2.03-3.63,3.28-5.99,3.87-.74.19-2.15-.34-1.9.67,4.79,1.97,8.7,5.61,10.32,10.62-.29.24-5.21-2.16-6.07-2.42l-1.91-2.03c-.6-.15-2.74-.97-3.1-1.3-.29-.26-.62-1.43-1.06-1.82l1.21-.61c-1.42-.46-1.11.92-2.12.9l.3-1.21-.45.6c-.7-.43-.1-1.11-.35-1.74-.15-.39-.65-.38-.67-.42-.11-.24.8-1.03-.35-.87l.91-.6c-.43.01-.85.04-1.28-.09-1.13-.35-3.55-2.3-4.5-3.17-.6-.56-.68-1.9-1.81-1.6l.31-.6h-1.52c-.13-.47.32-.99.31-1.34,0-.18-.39-.17-.49-.3-.15-.2-.1-.47-.13-.49h.61s0-.3,0-.3c-.33-.04-.63-.06-.61.3-.59-.6-1.01.08-.91-1.82l-.91.3c-.09-.28-.73-.17-.61-.6,2.53-.71,1.43,1.69,3.64,1.51-.42-.67.07-1.46,0-1.92-.03-.22-.53-.15-.6-.41-.38-1.31-.14-2.8.19-4.08.13-.5-.14-1.04.71-.87ZM342.08,426.99v-.6h-.3v.6h.3Z"/>
    <path class="st10" d="M323.58,329.28c.11.08.19.22.3.3v1.82s.3-.91.3-.91c.42-.07.5.02.74.32.16.2,1.71,4.22,1.89,4.79s.64,2.13.69,2.66c.15,1.51-.82,2.25.62,3.45-.99-.17-.43.92-.63,1.2-.26.14-.71-.05-.88.02v-.61s-.61,0-.61,0v.6s.61,0,.61,0c-.04.02-.45.42-.61.48.51,1.54.77,3.29,1.24,4.81.86,2.77,2.49,5.42,4.53,7.62,1.77,1.9,1.76,1.31,3.84,2.38.25.13.57.91.95,1.07,1.06.45,3.55.62,4.4,1.22.43.3.38.8.51,1.23.66.11,1.31-.97,1.62-.88,1.15.35,1.26,1.32,1.71,2.24l-3.15-.43c-.37-.21-.1-.7-.18-.94l-.31.91-.54-.21-.21.52-.75-.34.14-.87c-1.09.57-2.21,1.37-3.49,1.21-.32-1.37.82-.82,1.21-1.51l-1.19-.04c.14-2.13-4.18.19-3.81-2.69-.3.29-.75.36-1.15.25-.2-.05-3.05-2.3-3.27-2.54-1.17-1.29-.68-3.5-2.72-4.1l.61-.91h-.91s.91-1.52.91-1.52c-.9.15-1.11-.24-1.18-1.09-.14-1.75-.48-3.34-.76-5.07-.19-1.19-1.29-3.51.1-3.59l-.59-1.64.61-.3-1.47-1.41c.27-.6.22-1.15.25-1.78.04-.74.55-.99-.3-1.82.91.13.22-.56.6-1.22l-.91.3v-.6s1.21-.61,1.21-.61c-1.05.26-.36-1.48-.91-1.83h.91ZM324.33,332.01v.3c.2-.1.2-.2,0-.3ZM326.61,335.95h-.6v.6h.6v-.6Z"/>
    <path class="st1" d="M349.98,436.4c2.73,3.16,4.6,7.07,5.16,11.23-.4,0-.81,0-1.21,0-3.58-.39-7.53-.46-11.23-.3.8-.73,2.91.14,3.04-1.21.88,1.47,2.11.79,3.63.91-.37-.83-.4-2.46-.62-3.11-.11-.3-1.28-1.36-1.45-1.63-.72-1.11-3.02-4.38-3.39-5.27-.25-.6-.21-1.51,0-2.12.97-.23.26.88,1.19.58l.94-1.18c.64,0,.05,1,.59,1.38.34.24,2.66.54,3.35.74Z"/>
    <path class="st19" d="M332.07,418.19l.91-.3c-.1,1.91.33,1.22.91,1.82.02.02-.03.29.13.49.1.13.48.11.49.3.01.35-.44.87-.31,1.34h1.52s-.31.61-.31.61c1.14-.3,1.21,1.05,1.81,1.6.94.87,3.37,2.82,4.5,3.17.42.13.85.1,1.28.09l-.91.6c1.15-.16.24.64.35.87.02.04.51.03.67.42.25.63-.35,1.32.35,1.74l.45-.6-.3,1.21c1.02.02.7-1.36,2.12-.9l-1.21.61c.44.4.76,1.56,1.06,1.82.37.33,2.5,1.15,3.1,1.3l1.91,2.03c-.17-.05-.44.05-.61,0-.69-.2-3.02-.5-3.35-.74-.54-.38.05-1.38-.59-1.38l-.94,1.18c-.93.3-.22-.81-1.19-.58-.21.61-.25,1.52,0,2.12l-.3.16v-.47s-1.21.31-1.21.31c-.15-.95-.45-1.35.3-2.12l-1.49-.67.26-.71-.57.13c-.2-.36,0-1.46-.09-1.65-.1-.24-.82.05-.54-.74l.6-.15-.61-1.37c-.9-.23-.6.83-.93,1.35l.62.47c-.57-.05-.68.04-.6.61-1.45.08-.63.2-.7-.54-.05-.51.09-1.77.04-1.85-.12-.2-1.27-.3-.86-1.56l-1.21.31c-.2-.36-.61-2.27-.69-2.37-.15-.18-.62-.21-.94-.66-.04-.05-.54-1.17-.5-1.22.09-.11.73.25.61-.3l-.61-.91-.9.6-.33-1.2c-.52.32-.57.12-.89-.02l.61-1.21h-1.21s.6-1.06.6-1.06l-.58-.28c.23-.45.42-1.23.28-1.7Z"/>
    <path class="st17" d="M357.26,390.58c1.14-.93.42,1.48.61,1.82l.9-.44c-.4-.54-.46-.86.31-.77l-.91-.6,2.42.61c.11.46-.41.2-.6.51-.93,1.47.03,1.5-.05,2.01-.05.32-.69.64-.56,1.27l.91.46c-.18.22-.61.7-.92.47-.82-1-.46-2.62-1.81-3.2-1.28,3.94-2.33,8.3-5.01,11.53-2.06,2.49-4.76,3.99-6.98,5.74-.54.43-.97,1.1-1.52,1.54-.69.13-.42-.3-.45-.75-.07-.91-.2-2.41.3-3.19-.02.3-.18,1,.3.91l.31-1.51c.97.4,1.66.41,2.27.91.2-.42,1.27-1.47,1.3-1.57.08-.21-.31-.54-.19-.8.05-.11,1.78-1.37,1.24-1.83l.54-.05-.57-.33.27-.88.45.6c.14-.55,1.3-1.21,1.36-1.44.27-.92.48-1.97.79-3.03.23-.77.22-1.03.59-1.71.83-1.51,1-.73,1.05-.8.29-.47-.67-1.88.91-1.52-.03-.65-1.49-.11-1.82,0,1.24-1.2,3.55-2.62,4.55-3.94ZM346.33,408.78v-.6h-.3v.6h.3Z"/>
    <path class="st10" d="M312.35,326.85c-.82.37.6.39.84.68.21.25.25,1.06.38,1.44l.6-.6c.07.22-.04.63.09.97.61,1.55,1.94,2.39,2.64,3.89-2.52.46-1.81-1.81-2.5-2.65-.16-.19-.91-.36-1.31-.67-.52-.41-.53-1.8-1.94-.47.41,1.07,1.84,1.26,2.39,2.22,1.63,2.87,1.42,4.58,1.86,7.46.04.25.52.17.69.55.47,1.09.94,4.71.7,5.85-.09.45-.57.55-.94.45-.73-.2.03-1.74-.46-2.25,1.34-.42-.16-.89-.35-1.51-.24-.76-.06-2.22-.34-3.27-.21-.77-2.24-5.19-2.67-5.82-.47-.7-1.76-1.04-1.62-2.29-.34.47-1.58-.42-2.01-.75-.56-.44-.59-1.5-1.8-1.4l.31-.9c-.66.08-1.1-.6-1.54-.76s-.78.14-1.02.09c-.46-.1-.43-1.5-1.09-.55-.73-.88-1.6-1.63-2.43-2.43h4.4c2.08,0,5.36,1.61,7.13,2.73Z"/>
    <path class="st16" d="M258.94,383.9c0,.1-.02.23,0,.3l-.61.3c0-.77-1.61-1.42-1.22-2.73-1.39.94-3,.88-4.62,1.54-.31.13-.16.98-.99.29l-.15,1.51.91.15-.91,1.37h2.12c.16.57-.09.62-.3.91.12-1.26-2.1-.35-2.8-.39-3.94-.18-6.54-1.94-9.04-4.77.87.32,2.06.13,2.83.31.12.03.95,1.6,1.57-.01l.15.61.6-.6c.29,1.7,1.61.03,1.73,0,4.38-1.03,7.51-1.14,10.71-5.02l1.52-2.27c-.26,1.92-.48,3.89-.79,5.8-.13.82-.71,1.93-.72,2.7Z"/>
    <path class="st12" d="M336.62,415.46l2.43.91c.02-1.73-1.21-3.93-.31-5.56.11-.19.54-.21.56-.25.06-.16.01-2.77.11-3.38.13-.86,1.1-.79.86-1.74l1.21.31-.6.6.92.6.6-1.2.45.91.91-.91c.91.56.16,1.04.15,1.21-2.93,1.92-3.57,7.05-2.12,10.01l-1.52.91,1.21-.3.05,1.48c1.4-.01,1.14,1.53,2.23,2.16l.3-.61.76.62-1.81.9c.27-1.31-.97-1.02-1.26-1.41-.26-.36.23-1.27-.42-1.62-.29.79-1.06.95-1.81,1.22l-.77-1.22c-.18.55-.08,1.43-.91,1.21.69-1.17-.28-1.33-.45-1.84-.26-.8-.57-2.15-.77-3.01ZM341.48,407.26v-.6h-.3v.6h.3Z"/>
    <path class="st8" d="M285.95,340.51c.07.02.18.26.3.3.92.33,1.42,1.07,2.43.91l-.31.91c.48.33,1.51-.11,1.76.04.13.08,1.36,1.79,1.87,2.25.3.28,1.61.77,1.74,1.12.17.45,0,.86.1,1.22.08.29.59.12.63.66.06.78-.3,1.52-.34,2.29-1.61-2.5-4.87-4.24-7.78-4.82-.41-.08-.55-.04-.41.41.18.57.65,1.62.91,2.28l-.3.61c-.08-.11-.22-.19-.3-.3-.46-.6-.02-1.2-1.52-.91v-.3c.83.28.79-1.31.53-1.76-.07-.12-.56-.23-.81-.55-.52-.68.09-.99-1.25-1.04v-.3c1.22-.68,3.34,1.22,2.71-1.29-.1-.38-.87-.73-1.2-.83,0-.19.05-.49,0-.61.19-.07.84-.3.91-.3.09,0,.22-.02.3,0ZM286.25,341.72v-.6h-.3v.6h.3Z"/>
    <path class="st8" d="M265.01,336.86c.81,1.37-.82,1.1-1.4,1.5-.49.33-.08.89-.12.91-.57.29-1.84-.2-1.81,1.53l1.49-.02c.08-1.29,1-1.64,2.14-1.19v-.92c.92.99,1.43.34,2.28.36,1.88.04,2.97-.56,4.88-.63.8-.03.95.66,1.19-.34l.61.91c-.38-1.25,1.36-.35,1.97-.29l-.6.6c.84.38.91-.57,1.09-.59.62-.08,2,.43,2.7,0l-.16.75.61.15.89-.89c.14,1.12.84.65,1.61.91.21.07.24.51.29.52.15.06,1.62-.46,2.07.68-.18.06-.62-.16-.61.15v.45c.19.04.46-.05.61,0,.02.42.23,1.06-.45.91-.39-.68-1.27-1.6-2.11-1.54-.33.02.04.77-.47.63v-.91s-.61.6-.61.6c.22-1.48-1.51-1.49-2.43-.61l-.15-.61c-.62.83-.67.46-1.36,0l-.3,1.21v-1.51s-.76.91-.76.91c-1.25-1.86-1.4-.2-1.84-.06-1.57.49-5.05-.07-6.33,1.54l-1.2-.26-.54,1.16c-.18.19-.66-.02-.86.05l.91-1.21h-6.37c1.5-1.84,3.31-3.46,5.16-4.86Z"/>
    <path class="st3" d="M365.15,450.05c-24.11.57-48.67,0-72.83,0-.17-.92.46-.59,1.05-.61,7.52-.25,15.13.17,22.52.19,15.84.05,31.62-.09,47.6.11.51,0,1.35-.19,1.66.31Z"/>
    <path class="st9" d="M296.57,326.55c-.07,0-.39.26-.74.25-.77-.01-1.72-.47-2.6-.25v.91c1.12-.68.76.1,1.14.29.85.42,1.48-.12,1.29,1.23.12,0,.37-.24.74-.25,1.74-.04,2.03,1.02,3.51,1.17l-.31.6c.88-.13,1.04.03.92.91,1.01-.51,2.16,1.51,2.83,2.05.17.14,1.56,0,.67,1.31-.7,1.03-2.65-1.06-3.21-1.68-.33-.37-.55-1.25-.65-1.32-.27-.17-.95.03-1.45-.21-.67-.32-1.91-1.31-2.29-1.96l-.3.61-.77-.31c-.09-.35.27-.69.31-.91-.39.03-.75.05-1.08.28l-.26-.55-2-.03.31-.9h-.6s-.92,1.06-.92,1.06l.54.19-.24,1.48s-.09.32-.59.18c-.72-.2-1.43-.96-2.14-1.25-2-.81-4.19-1.16-6.07-2.27,4.61-1.09,9.24-1.94,13.96-.61Z"/>
    <path class="st3" d="M234.66,450.05c-.17-.92.46-.59,1.05-.61,13.2-.44,26.9.24,40.07.25,4.8,0,9.78-.4,14.67-.16.54.03,1.11-.5.96.52-18.91,0-37.84.06-56.75,0Z"/>
    <path class="st9" d="M322.36,328.37l-.3.9c.18.06.51-.05.6,0,.54.34-.14,2.08.91,1.83l-1.21.61v.6s.91-.3.91-.3c-.39.65.31,1.34-.6,1.22.85.83.34,1.08.3,1.82l-2.12-.31-.04-1.18c-.39-.11-.83-.11-1.18-.34-.05-2.44-1.12-4.54-2.12-6.67.52-.48,4.17,1.41,4.85,1.82ZM321.3,328.97v.3c.2-.1.2-.2,0-.3ZM322.51,334.13v.3c.2-.1.2-.2,0-.3Z"/>
    <path class="st3" d="M246.5,447.62c.5.01,1.01-.01,1.52,0-.38,1.04-1.43.3-2.26.29-4.05-.08-8.11.06-12.15.02-.51,0-1.35.19-1.66-.31,4.77-.09,9.8-.13,14.57,0Z"/>
    <path class="st3" d="M230.11,447.62c.17.92-.46.59-1.05.61-1.32.04-2.65-.07-3.97-.01s-2.9.82-4.08.01c2.3-.61,6.54-.54,9.1-.61Z"/>
    <path class="st3" d="M355.14,447.62c4.04.01,8.1-.08,12.14,0-.31.5-1.15.3-1.66.31-3.91.04-7.86.11-11.69-.31.4,0,.81,0,1.21,0Z"/>
    <path class="st18" d="M251.05,423.96c-.5-3.08-.31-4.31.3-7.28v5.62s-.3,1.66-.3,1.66Z"/>
    <path class="st3" d="M226.47,449.75c-.56-.96,0-.35.48-.33,2.26.09,4.54,0,6.8.03l-3.03.3c-1.41-.04-2.84.05-4.25,0Z"/>
    <path class="st6" d="M323.58,329.28h-.91c-.09-.06-.42.06-.6,0l.3-.9c.48.29.8.61,1.21.91Z"/>
    <path class="st17" d="M285.64,340.51l.61-1.82.76.61.3-.61c.75.28,1.51,1.55,2.13.92-.24.96.39.57,1.13.92.33.16.14.95,1,.3-.07,1.64,1.18,1.11,1.59,1.3.07.03.28.78.98.51-.76,1.5.69.9,1.25,1.4.71.65,1.32,2.61,1.7,3.37.17.33.52.3.67.62.39.83.76,2.16.97,3.08.07.09,1.57-.27,1.8-.29.29-.02.6-.28.92-.14.63.27.63,1.22,1.2,1.36.47-1.07-.77-1.79-.84-1.97-.33-.93.32-2.42.25-3.01-.01-.09-1.68-.57.28-1.09l.16.92.75-.48c-.38-1.17-1.16-2.1-1.57-3.27-.13-.36.08-.77.04-.79-.44-.26-1.16.29-1.19-1.23.13-.18.67-.86.61-.91h-.91c.02-.59.22-1.4.91-1.22l.6-.3v.61c0,.07.38.46.26.57l-.55.34c1.1-.19.38,1.11.63,1.5.33.32,1.15-.02,1.19.02.09.1-.17.78.87.64l.04,1.03.91-.15-.91.61.66,1.77.56-.26v.76c-1.56.53-.02.79,0,.94.11.71-.22,1.54.25,2.75.18.46.68.45.67.58-.01.6-.84.96-.33,1.74.14.21.58.2.58.35-.09,1.84-1.03,4.68-1.72,6.46-.13.33-.43.59-.67.85l.6.45-.91.15c.02.37.88-.13.46.45-1.17,1.64-2.52,3.74-4.37,4.59l.27,1.17-1.22.31.31.9-.91-.6c-.24,1.89-2.57,2.77-3.64,4.25-.52.08-1.72.27-1.52.91l-.3-.91-.91.31.6.6-1.81.92.18.6c.84-.11,1.97.8,2.54.91.72,1.46-.84.67-1.06,0l-.77.31.31.91-1.52.31.62.46-.63,1.51.62.46c-1.15-.3-1.61,1.77-1.96,2.74-.18.5-1.57,4.44-1.56,4.69.02.31.8,1.01.49,1.67l-.61-.75.31,2.88h1.82s-.61-.31-.61-.31l.59-.33-.29-.88,1.54-.13c.06-1.63,1.5-2.14,2.71-1.09l-.75,1.51c.1,1.08-.21,1.96-.76,2.9l1.21,1.06c-.03.09.04.22,0,.3-.1.22-.72.59-.46.9.43-.44.96-.13.76-.9l1.2.32v1.06s1.22.14,1.22.14c-.04.06.1.38-.06.54-.14.14-.49.02-.55.06.07-.07-.05-.31-.15-.3-.33.02,0,.45.15.3-.08.07-.12.37-.3.45,1.36,1.27.68,2.71.94,4.21s.63,3.94,1.13,5.23c.19.49,1.28,1.58,1.52,2.15s-1.01,1.19.64,1c.09.51-.76.34-1.04.28-.78-.16-1.41-.77-2.29-.59-3.3-3.47-5.65-5.12-7.6-9.84-.4-.97.13-1.97-1.19-1.69l.6-.44c-.22-.61-.75-1.41-.91-1.99-.27-1.01.05-2.1-.61-2.73l1.51-.15c-1.37-2.18-2.07-4.78-2.38-7.33-1.54-12.5,8.96-15.3,10.58-24.69.49-2.85-.26-6.38-1.82-8.8.04-.77.4-1.51.34-2.29-.04-.54-.56-.38-.63-.66-.1-.36.07-.76-.1-1.22-.13-.35-1.44-.85-1.74-1.12-.51-.47-1.74-2.18-1.87-2.25-.26-.15-1.28.28-1.76-.04l.31-.91c-1.01.16-1.51-.59-2.43-.91v-.61s-.3.3-.3.3c-.09-.02-.21,0-.3,0Z"/>
    <path class="st9" d="M334.2,368.42s.28.2.44.13c.39-.16.76-.48,1.22-.45.32.02-.05.77.46.63.15-1.84.85-.95,1.93-1.21.54-.13-.13-.2,1.53-.33,1.28-.1,1.8-.84,1.92-.87.79-.18,1.89.17,2.63,0,.36-.09,0-.74.49-.61l.15,1.5h1.37s0-.9,0-.9l1.05.32.17-.62h.45c.25.88.77.49,1.36.74,1.06.45,1.44,1.24,2.88.46l.45.45c-.71.68-.3,1.26-.3,1.67,0,1.44-.07,2.83.3,4.25-.33-.44-.5-1.09-.91-1.21-.16,1.08-1.8,2.53-2.73,2.85-.35.12-.78-.21-.92-.12-.07.05.21.42.13.63-.5,1.28-2.9,3.97-3.95,5.43-.35.48-1.03-.05-.43,1.22l-1.34-.32-.47.62c-.06-.62.6-1.44.94-1.94.19-.28,1.06-1.05,1.15-1.33.17-.51.37-1.03.32-1.58l-1.19-.31c-.68,1.33-.64,2.81-2.15,3.22-.03.64-.15,1.14.62,1.03v.29c-.74.23-.82.91-1.82.62l.23.54c-.21.19-1.36.96-1.39,1.04-.11.27.26.65.1,1.13-.08.24-2.11,3.73-2.38,4.17-.31.51-1.43.56-.81,1.31l-.89-.29c-.3.98-.72,1.78-1.84,1.81l.02.59.51.06-.24.55h.6s.43-.61.43-.61l1.09.32-.61.45,1.22.46c-2.35,1.1-5.63,1.67-8.19,2.12-.38-.13-1.06.34-.92-.46.09-.51.58-.87.76-1.36.44-1.22.98-2.65,1.06-3.94.25-.21.89-.27,1.08-.61.16-.29-.14-.68-.1-.76.09-.22.43-.13.45-.2.09-.22-.26-.59-.15-.93.35-1.06,1.4-2.65,2.66-2.36-.73-1.11.23-.81.3-1.11.32-1.37.79-2.99,1.6-4.27.15-.23.67-.26.83-.54l-.6-.45h.91c-.7-1.02.86-1.51,1.36-2.44.2-.37.16-.8.16-1.2h.3c.8,2.08,1.29-.25,1.59-.54.24-.24.76-.18.95-.34.33-.27.02-1.1.8-.94.15-.45-1.17-.22-.6-.9.35-.42,2.47-.81,2.13-2.13.93.87,1.09.47,2.07-.04l-.56-1.17s-.18-.48.21-.61c1.06-.34,3.01.56,3.13-1.21-.66.06-1.27.44-1.97.32-.81-.14-.53-.96-1.21-.96s-1.24.58-1.85.64c-.79.08-1.58-.44-2.4-.32l-.17.89h-1.94s-.19.9-.19.9c-1.67-.16-2.46.67-2.71,2.17l-.45-.6c-2.28,1.29-3.78,3.54-5.56,5.2l.25,2.08c.92.18.42-1.25,1.64-.31.66.51-.4.66-.58,1.22l-.3-.61-.61.61-.3-.61h-.75c-.12.62-.17,1.29-.92,1.23l1.21.61c.09.57-.72-.03-.59.72.12.68.5.96,1.2.79-.22.33.05,1.57-.14,1.83l-1.68.3.6.6c-.54-.07-.92.77-1.21.91h.61s0,.61,0,.61h-.6s0-.61,0-.61c-.15.08-.76-.13-.88.02-.13.17.06.69-.05.94-.39.88-1.83,1.12-2.71,1.16l.92-1.67-.61-.45,1.7-.6c-.56-1.67,1.16-1.18.73-3.05l.6.16c-.15-.33-.5-.78-.6-1.07-.48-1.39.15-.66.3-1.13.1-.34-.06-.8,0-.99.09-.24.75-.58.62-1.06l-.62-.3,1.51-.76-.6-.6c.94-.34,1.98-2.06,2.12-3.04l.91.31c.07-2.68,2.13-3.32,4.15-4.36.15-.08.08-.48.1-.49ZM347.09,367.21v.3c.2-.1.2-.2,0-.3ZM352.1,371.76v-1.82h-.3v1.82h.3ZM343,374.49l1.81-.76-.88-.41-.16.54-.77-.28v.91ZM342.44,374.73l.11-.84c-1,.72-2.07,2.11-2.78,3.13-1.71,2.46-2.99,6.06-4.75,8.3-.21.27-.93.42-1.12.85l.6.75c-.96.35-3.54,3.03-2.99,3.91l1.78.34v-2.12c.66.02,1.27.57,1.52-.3-1.22-.09-.3-.66.4-.93.41-.16-.21-.49-.09-.59.66-.57.57.91.91.6.9-1.05.26-1.42.31-2.73.53-.15.14.73.45.6.29-.11.55-.56.45-.91l-.6-.3.93-.2c-.3-1.52.37-.78,1.18-1.17,1.07-.51.1-2.35.45-2.88.18-.28,1.66-.82,1.88-1.28.05-.1.22-1.76.11-2.04l1.52-.33-.32-1.04.62-.17v-.6s-.55-.07-.55-.07ZM337.99,383.9v.3c.2-.1.2-.2,0-.3ZM335.26,388.15v.3c.2-.1.2-.2,0-.3Z"/>
    <path class="st19" d="M308.4,371.15c.21-.16,1.46-.45,1.88-.64.31-.14.38-.95,1.45-.57-.17,1.03-1.77,1-2.09,1.25-.04.03.22.5,0,.74-.76.81-2.9,1.36-3.98,1.96-.82.45-3.76,2.01-3.34,3.04l.6.3-.76.3-.6-.91c-.9,1.06-2.29,1.52-3.2,2.58-1.16,1.33-1.67,3.29-2.45,4.77-.6,1.15-.72,2.64-1.48,4.19-.12-.27-.48-.22-.61-.3l-.3-.3c-.05-.05.05-.26,0-.3-1.21-1.06-2.65-.54-2.71,1.09l-1.54.13.29.88-.59.33.61.3h-1.82s-.31-2.87-.31-2.87l.61.75c.31-.67-.47-1.36-.49-1.67-.01-.25,1.38-4.19,1.56-4.69.36-.97.81-3.04,1.96-2.74l-.62-.46.63-1.51-.62-.46,1.52-.31-.31-.91.77-.31c.22.68,1.77,1.46,1.06,0,.74.15,2.16.24,2.27-.61.84,1.27,1.72-.07,2.58-.3,2.27-.61,4.31-.75,6.68-1.52.67-.22,1.12-.21,1.82-.61.14-.08.39.07.61-.3,1.17.86.85-.26.91-.3ZM289.58,384.51c-.64-.63-1.28,2.03-1.21,2.43,1.38.39,1.45-.57,2.42-.91-.01-.67-.8-.31-.86-.36-.25-.24-.26-1.05-.36-1.15ZM290.35,384.81v.3c.2-.1.2-.2,0-.3Z"/>
    <path class="st9" d="M305.67,373.89l-.3,2.73c.46.11.17-.4.53-.59.55-.29,1.83-.81,2.36-.33l-.16-.6h1.34s.17,1.51.17,1.51l-1.21-.3.31.6-1.69-.26-.88.83-.76-.27c-.06,1.53-.95,1.27-1.75,1.73-.67.39,0,.92-1.59.4l1.51.9c-1.09-.1-.27.42-.3.61-.05.38-.44,1.65-.76,1.82l-.75-.6.3,1.21c-.78.34-.56-.63-.75-.61-1.13.1-1.1,1.99-1.41,2.39-.08.1-1.05,0-1.92,1.28-.28.42.1,1.35-.77,1.19v.6s.85.04.85.04l.32,1.45-.57.18.61.76.24.55c-.28.13-1.68,1.21-1.71,1.31-.07.19.36.62.23.82-.05.08-.78.72-1.19,1.26l-1.22-.14v-1.06s-1.2-.32-1.2-.32h-.3c.04-.08-.03-.21,0-.3.28-.76.67-1.37.64-2.29l-.64-.74c1.09-.06.92-.94,1.21-1.52.76-1.55.88-3.04,1.48-4.19.77-1.47,1.29-3.43,2.45-4.77.92-1.05,2.3-1.51,3.2-2.58l.6.91.76-.3-.6-.3c-.42-1.03,2.51-2.59,3.34-3.04ZM296.72,388.45v.3c.2-.1.2-.2,0-.3ZM297.33,389.36v.3c.2-.1.2-.2,0-.3ZM294.29,392.4v.3c.2-.1.2-.2,0-.3Z"/>
    <path class="st10" d="M338.44,364.17v1.22s-.56-.26-.56-.26l-.5.86-.63-.63c-1.32.33-2.35,1.06-3.77.63v.91c-1.12-.49-2.14.71-3.47.28-.16.77-1.66,2.1-2.58,1.85.3,1.58-.99,1.32-1.73,2.2-.07.09.45.65-.41.53l.6.9c-1.35-.27-.85.72-1.22,1.28-.79,1.2-.71,1.32-1.29,2.43-.24.46-1.58,2.96-1.71,3.07-.41.35-.78.19-1.24.2l.6.91-1.21-.3v.69s-1.21.22-1.21.22l.91-.61v-2.42s.93-.2.93-.2c-.21-1.1.69-1.75.87-2.17.39-.89.8-2.42,1.26-3.19.28-.47.88-.78.89-1.43l.9.61-.61-1.06c.6-.86.93-1.43,2.13-1.37l-.6-.9,1.51-.92.6.91.33-1.03-.63-.48c.55-.48,1.74-.3,1.97-.37.29-.09,1.62-1,2.1-1.17.8-.29,1.75-.49,2.6-.58l-.6.6,1.81.3v-.91s.91.46.91.46l-.3-.76,3.34-.31ZM320.69,379.04v.3c.2-.1.2-.2,0-.3Z"/>
    <path class="st10" d="M312,339.25l-.56.34c1.26-.29.95,1.04,1.82,1.67l-.61.3c.76,1.03.91,3.07.62,4.26l.9.3-1.22.15c-.12.5.46.12.6.51,1.02,2.92-.38,8.4-1.97,11.02l-.76-.91,1.2-.33v-1.61s-.6-.49-.6-.49l.93-.17-.02-6.2-.91-.16.89-.17c.37-1.14-.4-1.88-.64-2.81-.54-2.13-.67-3.78-1.78-5.75-.12-.22-.53-.23-.54-.27-.05-.15.37-.94.25-1.56-.04-.2-.5-.18-.66-.63-.45-1.31-.88-2.89-1.12-4.26l-.95-.34.91-1.36c-.41,1.97.75,1.49,1.54,2.26.71.69,3.16,5.67,2.67,6.2Z"/>
    <path class="st10" d="M326,378.74c-.81.45-1.83.07-1.69-.93.1-.67,1.84-2.95,2.31-3.76,1.53-2.66,1.75-3.9,4.75-5.63.68-.39,1.73,0,1.61-.91l.3.6.91.3s.05.41-.1.49c-2.02,1.04-4.08,1.69-4.15,4.36l-.91-.31c-.14.98-1.18,2.7-2.12,3.04l.6.6-1.51.76.62.3c.13.48-.53.82-.62,1.06Z"/>
    <path class="st9" d="M294.75,371.46c.22-.03.66.33.85.24.16-.08,1.95-1.42,2.09-1.45.39-.07,1.45.16,2.07-.07.13-.05.32-1.37.75.37l-3.34,1.22c.84,1.04,1.17.65,1.21,2.12-.87.23-1.74,1.58-2.58.3-.12.85-1.54.75-2.27.61-.57-.11-1.7-1.02-2.54-.91l-.18-.6,1.81-.92-.6-.6.91-.31.3.91c-.2-.63,1-.83,1.52-.91Z"/>
    <path class="st9" d="M292.93,331.4c.05.01.37-.33.91.3l.3-.61.3.6c-.12-.83.53-.61,1.22-.6l-.6.9,1.82.61c.2.54-.22.71-.31.91l-2.64-1.14-1-.98Z"/>
    <path class="st1" d="M301.73,339.29c.23-1.45,1.56.15,1.77.83.17.56.05,1.11-.25,1.6-.04-.04-.87.3-1.19-.02-.25-.39.47-1.69-.63-1.5l.55-.34c.12-.11-.27-.5-.25-.57Z"/>
    <path class="st10" d="M315.69,350.5c.4-.76-.1-2.23.06-2.87.04-.17.92-.12.39-1.35,1.12,1.24.14,3.12.75,4.4l-1.2-.17Z"/>
    <path class="st10" d="M319.03,381.78l-.32,1.21c-.57-.76-1.23.95-1.35.91l-.14-1.51.59.3.46-1.21.76.3Z"/>
    <path class="st9" d="M305.07,372.37l1.06-1.52c-.09,1.2,1.53-.37.76.91-.7.39-1.15.39-1.82.61Z"/>
    <path class="st10" d="M321.51,346.5c.44.27,1.21-.23,1.16.38l-1.51.91v-1.82c.5-.13.19.43.35.53Z"/>
    <path class="st9" d="M291.71,330.49c.26-.08.52-.4.91-.3v1.21c-.61-.12-.9-.12-.91-.91Z"/>
    <path class="st9" d="M311.13,374.8c.15.13-.07.57-.3.76-1.07.87-.67-1.62.3-.76Z"/>
    <path class="st10" d="M339.66,358.41l-.31.91h-.6c-.1-.57.36-1.01.91-.91Z"/>
    <path class="st9" d="M308.4,371.15c-.06.04.26,1.16-.91.3.06-.1-.05-.43,0-.61l.91.3Z"/>
    <rect class="st9" x="292.93" y="330.19" width=".6" height=".6"/>
    <rect class="st10" x="327.52" y="343.54" width=".3" height=".91"/>
    <rect class="st10" x="334.5" y="366.91" width=".3" height=".6"/>
    <path class="st9" d="M304.31,379.04c.2.1.2.2,0,.3v-.3Z"/>
    <path class="st1" d="M315.53,374.19c.2.1.2.2,0,.3v-.3Z"/>
    <path class="st10" d="M327.07,343.24c.2.1.2.2,0,.3v-.3Z"/>
    <path class="st9" d="M301.27,369.94c.2.1.2.2,0,.3v-.3Z"/>
    <path class="st10" d="M322.21,345.97c.2.1.2.2,0,.3v-.3Z"/>
    <path class="st17" d="M306.73,349.91c.2.1.2.2,0,.3v-.3Z"/>
    <path class="st10" d="M336.17,366.91c.2.1.2.2,0,.3v-.3Z"/>
    <path class="st10" d="M322.29,348.16c.97.85.63,1.94,1.06,3.04.27.69.67,1.12.99,1.75.37.73-.25,1.47,1.36,1.52l-.91,1.2c1.21.19,1.22,1.99,2.42,1.22-.1,1.07.07,1.56,1.22,1.54l-.16.89c1.61-1.35,2.25,1.11,2.97,1.43.81.35,2.04.5,3.05,1.01.2.1.21.53.25.55.14.06,1.53-.69,1.16.2-.18.45-4.95,1.15-5.76,1.07l.6.6c-1.65.1-3.04.15-4.54.95l.14.86-1.07-.16-3.34,3.51c.04-.49-.59-.86-.56-1.32,0-.12,1.08-1.92,1.17-2.02.3-.34.2,1.07.91.61-.18-1.46.39-.56.54-.69.31-.27.8-1.05,1.17-1.41.3-.3.79-.26.94-.41.59-.57-.31-1.97,1.78-2.02.51-1.82-.46-2.83-2.33-2.33-.55.15-.5.67-.8.77-1.5.5-2.41.81-3.66,1.35-.05.02-.78.67-.85.8l-.73-.31c.25,1.56-1.19,1-1.47,1.28-.21.21-.18.37-.92,1.03-.69.61-.48,1.42-1.78.81s1.21-2.17,1.75-2.66c.97-.88.67-.38.85-.5.12-.09,1.49-2.45,1.53-2.59.1-.41-.34-.93-.26-1,.75-.31,1.21.85,1.43.9,1.78.45,1.63-1.15,1.89-1.34.57-.43,3.38-.84,2.6-2.29-1.74-.22-1.97.84-3.22,1.64l-2.09,1.09,1.44-4.17.06-5.94,1.15-.44ZM323.73,353.25v.3c.2-.1.2-.2,0-.3ZM328.28,359.62v.3c.2-.1.2-.2,0-.3Z"/>
    <path class="st0" d="M293.84,413.03c.31-.02.61-.22.91-.31.04,1.62.86,1,1.74,1.45.6.31,3.53,1.75,3.73,1.89.64.46,2.41,2.49,3.03,3.11,2.28,2.29,4.4,4.7,6.13,7.44.16.14.36.08.55.07,1.96,4.58,3.06,9.9,2.43,14.87h.91s-.6-.6-.6-.6c.46-.02.93-.1,1.33-.34,1.4-.88,3.98-5.05,4.44-6.64,1.3-.06.91,2.18.31,2.58,2.24-.47.63,3.94.71,5.42s1.1,3.46,1.11,5.05c-.2,0-.4,0-.61,0-1.26.02-2.52-.03-3.78.02l-.32-.93-.17.89-1.5.02c.48-.97.03-.78-.46-1.52l-.42,1.19.57.33c-1.55-.11-3.5-.15-5.03,0-.63.06-.7.31-.74.32-.2.02-.41-.02-.61,0s-.42-.03-.61,0l-1.21.3c-.3.02-.61-.02-.91,0-.09-.3-.35-.27-.61-.3-.19-.03-.41.01-.61,0,4.12-5,5.67-11.77,2.28-17.6-.82,1.41-.81,2.96-1.61,4.46-.2.38-2.04,3.29-2.19,3.43-.67.57-.56-.57-.6-.6-.42-3.99-1.3-7.67-3.95-10.77-4.17-4.86-11.21-6.29-15.17-11.31-.84-1.06-1.19-2.38-1.81-3.41,2.04.69,4.39,1.26,6.53,1.51s4.61.17,6.82,0ZM316.44,445.8v.3c.2-.1.2-.2,0-.3Z"/>
    <path class="st11" d="M269.56,408.48s.41.08.53-.04l.08-1.17-.91.3.61-2.43.45.61.3-.61.61.52.61-.51.76,1.81.59-.78.92-.43c.71.5.47.97.68,1.16.4.36,1.18-.52.54.93,1.31.96,3.81,1.64,3.94,3.37l.6-.6c-.09.5.49.71.61.91.63,1.03.98,2.35,1.81,3.41,3.96,5.02,11.01,6.45,15.17,11.31,2.66,3.1,3.53,6.77,3.95,10.77-.09-.07-1.46.53-1.52.82-.09.42.09.94,0,1.39-.05.24-.78.25-.85,1.03-.14,1.61-.11.79-.34,1.5-.12.37.31,1.75.23,2.06-.1.36-.66.36-.79.54-.23.33.02.87-.07,1.14-.66,2.14-2.09,1.69-3.94,2.12l-.03-5.03-.58-.28.61-.3c-.42-.39-.44-.95-.64-1.44-.74-1.78-2.07-2.72-2.1-4.6,0-.1-1.12-.61-.6-1.7.5.26,1.3.11,1.66,1.22l.46-.91.91.3c.05-.88.19-1.76-.91-1.83l.6-.75-3.09-5.25-.54.24.26-1.77c-.94-.38-1.54-.77-1.32-1.86l-1.06-.17.63-1.22-.68-1.29-1.42-.13-.04-1.45c-1.76.16-2.62-1.12-3.76-2.17-1.31-1.2-2.05-1.83-3.08-2.97-.54-.6-2.88-2.52-3.17-1.23,1.13-.23.38,1.63.61,1.83.09.08.69-.09.97.01.08.03,1.36.72,1.43.77.16.11,1.2,1.25,1.19,1.43-.09,1.81-1.32.06-1.85-.16-.69-.29-1.52-.26-2.35-.53-.04-.15.09-.43-.04-.56s-.45,0-.56-.04c-.1-.04-.2-.28-.3-.3-.13-.45-.31-1.25-.01-1.67l-1.36-.44.15,2.12c-1.78-1.69-2-2.38-3.39-4.37-.37-.53-1.28-.65-1.17-1.7l-.6.31v-.91c.9.6.5-.19.6-.3ZM276.69,415.46v.3c.2-.1.2-.2,0-.3ZM288.83,421.53v.3c.2-.1.2-.2,0-.3Z"/>
    <path class="st11" d="M275.33,415.46c.03.09.25.19.3.3.05.09-.09.4.06.55s.42.02.55.06c.49,2.09,1.33.77,1.82,2.73h-.61c.15.48.17,1.07.3,1.52-1.34.05-.83-1.84-1.28-2.36-.21-.25-.75-.18-.95-.34-.32-.26-.02-1.09-.8-.94l.6-.6c-1.17.25-1.05-.76-1.21-.91.37.06.89-.08,1.21,0Z"/>
    <path class="st4" d="M275.63,415.76c-.06-.11-.28-.21-.3-.3.1.03.2.26.3.3Z"/>
    <path class="st4" d="M263.49,405.75c.21.07.66-.09,1,.05.74.3.67,1.35,1.12,1.94l-.6.44h1.52s0,.91,0,.91l-1.21-.46c-.03.56.9,1.2.91,1.28.15.88-.8,2.17,1.15,2.14l.24-.55.73.32c.33-1.07-.66-.99-.84-1.26-.37-.55.72-2.48,1.76-2.08h.3c-.11.11.3.9-.6.3v.91s.6-.31.6-.31c-.1,1.05.8,1.17,1.17,1.7,1.39,1.99,1.6,2.68,3.39,4.37.16.15.04,1.16,1.21.91l-.6.6c.78-.15.47.69.8.94.21.17.74.1.95.34.45.52-.05,2.41,1.28,2.36.48,1.65,2.06,3.69,2.53,4.94.37.99.04,4.36,1.4,4.79-.62.67-.45,1.28-.59,2.11s.34,2.38-.91,2.43l.57.33-.88,2.39-.6-.17c-.13-.68-.27-1.59-.44-2.23-.16-.61-.29-.35-.78-.62.21-1.56-.09-.53-.28-1.14-.32-1.02.03-2.32-1.54-2.2l.6-.6c-.69.13-.52-.53-.72-.78-2.67-3.39-6.79-6.16-9.27-9.47-.42-.57-3.08-5.64-3.07-5.98,0-.22,1.01-.02.63-.76h-.92s.23-.56.23-.56l-.52-.06c1.36-1.43.14-1.69.07-1.87-.03-.06-.29-.94-.31-1-.41-1.76,0-2.77.54-4.41Z"/>
    <path class="st4" d="M276.24,416.37c.83.27,1.66.24,2.35.53.53.22,1.77,1.97,1.85.16,0-.18-1.03-1.32-1.19-1.43-.07-.05-1.35-.74-1.43-.77-.29-.11-.89.06-.97-.01-.22-.2.52-2.05-.61-1.83.29-1.29,2.63.64,3.17,1.23,1.03,1.15,1.77,1.77,3.08,2.97,1.14,1.05,2.01,2.33,3.76,2.17l.04,1.45,1.42.13.68,1.29-.63,1.22,1.06.17c-.22,1.09.38,1.48,1.32,1.86l-.26,1.77.54-.24,3.09,5.25-.6.75c1.1.07.96.95.91,1.83l-.91-.3-.46.91c-.36-1.1-1.16-.96-1.66-1.22-1.06-.55-1.13-1.16-1.21-1.21l-.71-2.02c-.91-.89-1.96-2.16-2.71-3.19-.34-.47-.46-1.3-.56-1.42-.04-.04-.78.26-1.11-.1-.3-.33-.22-1.12-.53-1.46-.1-.11-1.01-.98-1.26-1.22-.31-.3-2.73-2.55-2.91-2.63-.37-.17-.75-.1-1.14-.09l.91-.9h-1.52c.22-.38.09-.57,0-.91-.49-1.96-1.33-.64-1.82-2.73ZM280.33,418.49v.3c.2-.1.2-.2,0-.3ZM291.86,432.46c-.3.21.16.42.31.59.3-.2-.14-.4-.31-.59Z"/>
    <path class="st4" d="M275.33,415.46c-.32-.08-.85.06-1.21,0l-.15-2.12,1.36.44c-.3.42-.12,1.22.01,1.67Z"/>
    <path class="st4" d="M275.63,415.76c.11.05.42-.09.56.04s0,.41.04.56c-.12-.04-.39.09-.55-.06s-.01-.46-.06-.55Z"/>
    <path class="st11" d="M261.06,427.9c-.69-1.92-2.6-4.65-2.96-6.6-.12-.65-.47-6.72-.37-7.15.05-.21.99-.46.93-1.27-1.49-.75,0-3.48,1.04-4.41l.45.91.3-1.51.92,1.66-.85.59.23,1.08h-.91s.15,3.04.15,3.04l.45-.61c.34.86-.5.89-.54,1.06-.14.58.32,1.88-.05,2.56l1.8.33-.3.91c1.34-.65,1.73.9,1.52,2.13l.91-.3c.14.63.26,2.09.59,2.55.08.11,1.39.57,1.68,1.11.21.4-.19.78.31,1.22.23.2.63,0,.71.07.31.28.57,1.15,1.13,1.42.25.1-.09-.84.91-.61l.16.91c.49.13.19-.43.36-.53.38-.23,1.01-.03,1.46-.08l-.6.6c1.06.33,2.45,2.31,2.66,3.28.16.7-.24,1.48-.2,1.54.08.12.6.07.9.76.35.8.13,1.69.33,2.4.22.77.93,1.31.85,2.34-.4.36.4,2.94-1.21,2.43l.6.44c-.09.4-1.73,4.16-1.91,4.33-.19.18-.68.09-.96.4-.76.85-.29,1.96-2.59,1.51l.32-1.04-.62-.47c1.9-.54.76-1.8.74-2.57-.02-1.12.81-3.57-.74-3.81l.6-.3-.64-1.68.64-.74c-.83-.19-.45-.86-1.51-.31.24-1.21-1.23-1.46-1.8-1.99-1.59-1.46-3.08-3.08-4.27-4.85-.38-.56.36-.52-.6-.75ZM271.68,429.42v-.91s-.3,0-.3,0l-.31.91h.61ZM272.14,429.11v.3c.2-.1.2-.2,0-.3Z"/>
    <path class="st15" d="M278.06,419.1c.09.34.22.53,0,.91h1.52s-.91.91-.91.91c.39,0,.76-.07,1.14.09.18.08,2.6,2.33,2.91,2.63.25.25,1.16,1.11,1.26,1.22.31.35.22,1.14.53,1.46.33.35,1.07.05,1.11.1.1.12.22.95.56,1.42.75,1.03,1.8,2.3,2.71,3.19l.71,2.02c-.12-.08-1.39.45-1.82-.3l.3,2.12c.63-.08.41-1.49,1.21-.45-.69.41-1.4,4.08-1.17,4.37.11.14.68-.2.56.33-.8-.09-.62.96-1.21,1.38,2.73,2.23-.02,2.36-.51,3.25-.07.13.23.49.2.52-.1.1-2.35,1.06-2.58.63.48,1.47-.17.99-.57,1.54-.19.26-.13.72-.38.91-.48.36-1.63.26-2.23.27l1.2-4.36.93-.19c.05-.48-.44-.18-.7-.68-.54-1,.75-2.38,1.32-3.11l-.61.15c.72-1.62-.99-3.97-.93-4.99.01-.25,1.01-.02.62-.78l-1.23.15-.9-1.36c.14-.83-.03-1.43.59-2.11-1.37-.43-1.03-3.8-1.4-4.79-.47-1.25-2.05-3.28-2.53-4.94-.13-.45-.15-1.04-.3-1.52h.61ZM279.73,421.83v.3c.2-.1.2-.2,0-.3ZM281.55,428.51v.3c.2-.1.2-.2,0-.3ZM283.37,441.86c-.3.21.16.42.31.59.3-.2-.14-.4-.31-.59Z"/>
    <path class="st16" d="M303.55,447.32c-1.14-.07-1.44.36-1.97.32-.32-.03.07-.75-.46-.62l-.15.6c-.31-.67-1.31-.46-1.61-.67-.26-.18-.23-1.47-1.28-1.46.08-.28-.16-.81.07-1.14.13-.18.69-.18.79-.54.08-.31-.35-1.69-.23-2.06.23-.71.2.11.34-1.5.07-.77.8-.78.85-1.03.09-.45-.09-.98,0-1.39.06-.29,1.44-.89,1.52-.82.04.03-.07,1.18.6.6.15-.13,1.99-3.05,2.19-3.43.8-1.5.79-3.05,1.61-4.46,3.39,5.83,1.84,12.6-2.28,17.6ZM300.06,439.74c-.3.21.16.42.31.59.3-.2-.14-.4-.31-.59Z"/>
    <path class="st3" d="M307.49,447.32c.15.4.58.29.91.3.2.01.41,0,.61,0,.91.02,1.82,0,2.73,0,.2,0,.4,0,.61,0h.3c.2,0,.4,0,.61,0h.3c.2,0,.4,0,.61,0,.71,0,1.42,0,2.12,0,.3,0,.61,0,.91,0,1.11,0,2.23,0,3.34,0,.2,0,.4,0,.61,0,1.51,0,3.04,0,4.55,0,.2,0,.4,0,.61,0h6.98c-.32.5-1.15.3-1.66.31-8.29.1-17.98.54-26.13.01-.61-.04-.56-.05-1.03-.32h.3c.3-.02.61.02.91,0,.65-.05.92-.26,1.21-.3.19-.03.41.02.61,0Z"/>
    <path class="st13" d="M342.69,447.32c3.69-.16,7.65-.08,11.23.3-2.58,0-5.34,0-7.89,0-1.41,0-2.84,0-4.25,0,.15-.4.58-.29.91-.3Z"/>
    <path class="st13" d="M329.65,447.32c.3,0,.61,0,.91,0s.61,0,.91,0c.2,0,.4,0,.61,0h7.89v.3c-2.12,0-4.25,0-6.37,0-.1,0-.2,0-.3,0h-6.98c.8-.56,2.29-.3,3.34-.3Z"/>
    <path class="st3" d="M339.96,447.62c.3,0,.61,0,.91,0,.1,0,.2,0,.3,0,.2,0,.4,0,.61,0,1.41,0,2.84,0,4.25,0h-12.44c2.12,0,4.25,0,6.37,0Z"/>
    <polygon class="st16" points="278.06 438.52 277.3 439.73 276.54 439.12 278.06 438.52"/>
    <rect class="st15" x="281.09" y="435.18" width=".6" height=".6"/>
    <path class="st13" d="M304.76,447.62h-.3c-.12-.07-.21-.21-.3-.3.25.03.52,0,.61.3Z"/>
    <path class="st11" d="M293.08,441.56c.2.1.2.2,0,.3v-.3Z"/>
    <path class="st5" d="M273.81,365.39c.35-.2.78-.2,1.14-.37l1.9-4.78,1.51,1.37-.91.91c1.63,1.33,1.12-.15,1.38-1.05.24-.84.56-1.87,1.05-2.6l-.91-.45,1.09-.29-.06-1.24,1.1-.29c-.85-2.27-.14-1.41.45-1.79,1.68-1.07,1.3-3.28,2.83-4.02l-.25-.55.89.28.32-.58.45.6.77-1.21.6.21.3-.21c.08.28.22.41.3.91-1.49.5-1.71,1.47-.39,2.35l.39-.23c.11,6.04-3.07,8.74-4.87,14.1-2.09,6.22-2.02,13.46-6.97,18.37l-1.51.91-1.22-8.19c-.7-.17-.5.13-.69.38-.82,1.06-1.4,2.41-2.34,3.56l-.47-1.22,1.68-1.21-.6-.6,1.21-.31c-1.19-2.29.33-4.28,0-6.67h.3s.31.75.31.75l-.61-1.66h.91s-.58-.43-.58-.43c.76-1.2.12-2.81.55-3.98.21-.58.43-.45.94-.75ZM287.16,352.65l-.9-.16.45.46h.45v-.3ZM273.05,370.85v.3c.2-.1.2-.2,0-.3Z"/>
    <path class="st12" d="M279.88,344.45h-.3c.1,0,.29,0,.3,0Z"/>
    <path class="st12" d="M282,344.15c.21,1.1-1.18,1.36-1.51,2.28l1.21-.15-1.24,1.64c2.05,1.05-.29,1.64-1.37,2.28l-.72-.58c.32.95-.89,1.16-.94,1.41-.09.4.3.61.33.71.08.27.09.55.29.77-.31.55-2,1.29-2.07,1.4-.2.3.11,1.02-.1,1.41-.21.37-1.87.41-1.46,1.58l-.59-.29c.1,1.29-.93,1.08-1.12,1.29-2.84,3.08-4.21,4.33-8.3,5.98l-.31-1.82c-1.44.52-2.48.41-3.64-.61.76-1.23,2.12-2.8,2.43-3.94.35.1.43-.16.61-.3.11-.09.2-.2.3-.3.63-.64.67-1.25.91-1.82.21.06.66.06.84-.06.64-1.1,1.7-2.14,2.66-2.96,1.13-.98,4.66-3.6,5.91-4.26.37-.19,1.29-.41,1.82-.61.18-.07.65.1.98-.02.63-.22,1.12-1.19.54-1.8h1.21s-.61,1.05-.61,1.05l.77.45-.15-.91.6.16-.3-1.68c.2-.02.41,0,.61,0l-.3,1.21h.45s.15-1.21.15-1.21c.9-.06,1.44-.26,2.12-.3ZM277.6,346.88v.3c.2-.1.2-.2,0-.3ZM278.36,347.48v-.6h-.3v.6h.3ZM277.3,347.79v.3c.2-.1.2-.2,0-.3ZM277.15,348.4h-.6v.91h.6v-.91ZM277,351.73v.3c.2-.1.2-.2,0-.3ZM262.88,362.05v-.91h-.3v.91h.3Z"/>
    <path class="st16" d="M270.17,381.47c.94-1.15,1.52-2.5,2.34-3.56.19-.25,0-.55.69-.38l1.22,8.19,1.51-.91.27.25c-1.81.08-.66,5.31-.87,5.52l-.88-.02c-.07-.73-.58-1.33-.77-1.97s.5-1.51-.46-1.35l.55-.33c.51-.66-.97-1.51-1.42-1.92l.25-2.1.61-.49c-1.06.07-.08-1.28-1.51-.91l.31.91c-1.08-.23-.76,1.08-1.82.3-.27.46-.02,1.14-.1,1.45-.01.06-.5-.01-.54.51s.32,1.55.29,1.64c-.01.04-.51.04-.65.41-1.21,3.14-.08,5.33.71,8.44.63,2.5,1.15,4.91,2.1,7.15.51,1.2,1.5,3.02,2.14,3.47l-.92.43-.59.78-.76-1.81-.61.51-.61-.52-.3.61-.45-.61-.61,2.43.91-.3-.08,1.17c-.12.13-.48,0-.53.04h-.3l-1.76-2.65.24-1.59c-1.22.37-1.75-1.94-.61-1.83v-.29c-1.29-.09-.96-1.79-1.1-2.76-.04-.32-.44-.67-.44-1.03,0-.1,1.15-.41.62-1.68l-.91-.16.61-1.05-.61-.3h1.52c-.34-.56-.4-.68.3-.61l-.6-.6.62-.17-.62-3.17.6.6,1.18-3.46c-2.16-1.85-2.31.04-3.09,1.4-.45.79-.5.12-.82,1.45l1.21-.46-.32.88.63.49-.6.61h-1.21c-.04-.53.18-1.01.3-1.51l-.74-.58-.77.27v-1.21c-2.17-.12-2.86,1.28-4.54,1.84v1.04s-1.83.46-1.83.46l.91-3.03h-2.43c-.14-.65.65-1.09.62-1.67,0-.16-.51-.11-.56-.3-.09-.38.12-1.73-.06-2.28l2.12.61,1.21-.91-1.52,3.64c5.16-.21,10.13-3.01,13.35-6.98ZM270.93,381.77v.3c.2-.1.2-.2,0-.3ZM257.88,388.75v.3c.2-.1.2-.2,0-.3ZM263.34,388.75v.3c.2-.1.2-.2,0-.3Z"/>
    <path class="st19" d="M282,344.15c.1,0,.48.39.58.27l.03-.57.6.6v-.61c1.34.04.73.36,1.25,1.04.24.32.74.43.81.55.26.44.3,2.04-.53,1.76v.3c1.5-.28,1.06.31,1.51.91l-.3.3h.61s.3-.6.3-.6c.09.23.35.32.61,1.21l-.3.21-.6-.21-.77,1.21-.45-.6-.32.58-.89-.28.25.55c-1.54.75-1.15,2.95-2.83,4.02-.59.38-1.3-.48-.45,1.79l-1.1.29.06,1.24-1.09.29.91.45c-.48.72-.8,1.76-1.05,2.6-.26.9.25,2.38-1.38,1.05l.91-.91-1.51-1.37-1.9,4.78c-.36.18-.79.17-1.14.37-.33-1.09-.49-3.47.91-3.65l-.59-.43.58-3.02,1.53-.8-.6-.6c.35.04,1.9-1.95,1.99-2.14.29-.67-.94-1.07,1.05-.9l-.61-.3c.59-.56.91-1.82-.3-1.82-.03-.11-.43-.32-.33-.71.06-.25,1.26-.46.94-1.41l.72.58c1.08-.64,3.42-1.23,1.37-2.28l1.24-1.64-1.21.15c.33-.92,1.72-1.17,1.51-2.28ZM282.15,345.97v.3c.2-.1.2-.2,0-.3Z"/>
    <path class="st19" d="M260.46,361.44c1.16,1.02,2.2,1.12,3.64.61l.31,1.82c-.52.21-.95.4-1.53.45v1.07c-1.3-.74-1.99.68-2.42,1.82l.91-.15-.91,1.06c.11.09,2.37-1.43,2.12,0l-.91-.15v1.36s-.6-.16-.6-.16l.29.77-1.21-.3.6,1.21-.6-.14-.92,3.48-.59-.3-.31,1.82-.77-.27-.19.48c-.99-.48-.24.37-.73.73-.24.17-.93.27-1.19-.02l.12.84-1.33.97c-.78-1.55,2.34-2.68,2.8-3.42.61-.98,1.35-2.66,1.93-3.62.51-.84,1.6-1.42,1.04-2.67l-1.36.63.29.58-1.48.34-.04,1.18c-.38-.51-1.09.29-1.31.69-.26.49.67,1.02-.81.83l.91.6c-1-.06-1.66,1.14-2.32,1.95-.14.17-.06.58-.17.71-.34.38-1.07.09-1.11.13-.46.45,0,2.14-1.86.71l.54-.2-.24-.56.91.6c-.19-1.74.82-3.35,2.73-3.04l-1.21-.3.31-1.52c1.37.87,1.87-1.99,2.52-2.93.24-.36,1.37-.74,1.42-1.62l-.91-.3,1.38-.28.14-1.35-.61-.2c-.26-.22.92-.59,1.23-1.04.44-.64.87-1.88,1.5-2.9ZM260.15,368.12v-.6h-.3v.6h.3ZM260.91,368.42v.3c.2-.1.2-.2,0-.3Z"/>
    <path class="st19" d="M259.85,384.2c.27-.86,1.12-1.95,1.9-2.33.12-.06.46.29.53.21.59-.68-.75-.47-.6-.91.97.11,1.21-2.66,1.59-2.99.2-.18.76.01.84-.05.05-.04-.25-.8-.17-1.22.43-2.54,1.19-2.5,2.5-4.03.33-.39.28-1.58,1.31-1.41-.21.78-.34,1.77-.62,2.5-.21.55-.54,1.36-.8,1.98-.2.5-1.12.26-.41,1.14l-.9-.16c.4.8-.13,1.06-.31,1.67-.23.8,1.8.09,2.12.61-.96.26-1.33,1.7-1.56,1.91-.05.05-.44-.16-.55-.06-.68.64-1.49,1.31-1.22,2.25l-.6-.31c.22,1.25-1.15,1.2-1.22,2.12h-.45c-.54-1.05-.52-.75-1.37-.91-.07.22.05.63,0,.91-.25-.04-.87-.78-.91-.91-.02-.07,0-.2,0-.3.28.18.59.25.91.3Z"/>
    <rect class="st19" x="262.89" y="365.69" width=".91" height=".3"/>
    <path class="st19" d="M262.73,378.13c.2.1.2.2,0,.3v-.3Z"/>
    <path class="st19" d="M258.79,370.24c.2.1.2.2,0,.3v-.3Z"/>
    <path class="st19" d="M256.36,368.42c.2.1.2.2,0,.3v-.3Z"/>
    <path class="st19" d="M263.34,366.6c.2.1.2.2,0,.3v-.3Z"/>
    <polygon class="st11" points="259.55 406.96 259.7 407.87 258.94 407.57 258.94 406.96 259.55 406.96"/>
    <path class="st11" d="M260.61,407.27c.2.1.2.2,0,.3v-.3Z"/>
    <path class="st18" d="M253.63,443.68c.2.1.2.2,0,.3v-.3Z"/>
    <path class="st16" d="M263.19,394.22l-.3.6,1.21.46c-1.43.95-.47,3.11-2.73,2.88-.4-1.69.67-2.14.75-3.65l1.07-.29Z"/>
    <path class="st16" d="M265.01,398.16c-.4,1.15-.83,2.26-2.12,2.43l-.3-1.22.54.23.98-1.75.9.31Z"/>
    <path class="st16" d="M262.28,391.49c.08-.08-.17-.63.15-.61l.46.6c-.18.05-.53-.05-.61,0-.11.08-.11,1.09-.45,1.21-1.07-.87.3-1.06.45-1.21Z"/>
    <polygon class="st16" points="260.76 391.18 259.85 391.18 259.85 390.58 260.3 390.58 260.76 391.18"/>
    <path class="st16" d="M262.73,398.16c.2.1.2.2,0,.3v-.3Z"/>
    <path class="st4" d="M264.86,405.14c.2.1.2.2,0,.3v-.3Z"/>
    <path class="st16" d="M256.97,383.29c.2.1.2.2,0,.3v-.3Z"/>
    <path class="st16" d="M256.06,383.29c.2.1.2.2,0,.3v-.3Z"/>
    <path class="st5" d="M283.22,343.54v.91s-.6-.6-.6-.6l-.03.57c-.1.12-.48-.28-.58-.27-.69.05-1.23.25-2.12.3-.02,0-.2,0-.3,0-.2,0-.41-.02-.61,0s-.41-.02-.61,0c-.32.04-.63.14-.91.3-2.33-.1-5.74,1.27-8.2,1.66l-2.42,1.68c-.28-.18-1.02-.1-1.21-.45.53-.18,1.13-1.54,1.28-1.63.17-.1.56.18.68.12.66-.3.72-.87,1.67-.62l-.6-1.06,2.29-.61.29.61.91-.84,1.06.54.31-1.51.75.38.16.53.3-.91.47.62c1.05-.76,2.41.68,2.57-.92l.3.91.44-.6c1.05.9,2.23-.06,3.36.55l1.04-1.16.31,1.52Z"/>
    <polygon class="st5" points="279.88 344.45 279.72 345.67 279.27 345.66 279.58 344.45 279.88 344.45"/>
    <path class="st8" d="M268.04,349.91l.61-.9h.6s.3.9.3.9c0-.39.07-.77.29-1.1.21-.31,2.67-.91,2.45-1.63l.3.6c.68-.13-.11-1.03.91-.3l.61.3c-1.25.65-4.78,3.28-5.91,4.26-.95.82-2.02,1.86-2.66,2.96-.18.12-.63.12-.84.06-.24.57-.28,1.18-.91,1.82v-2.43c.15-.11.62.52.91.61.31-.75,1-1.71.62-2.28l.9.15-.3-.91,1.22.18c.44-.57.95-2.3,1.81-1.7.22-1.01-.54-.44-.91-.61Z"/>
    <path class="st8" d="M255,347.48c-.19.06-.38.49-1.07.59s-3.29-.12-3.46.04l-.02.88-1.21-.31v.91s-.61-.16-.61-.16l.31-.75h-2.12s1.53,1.36,1.53,1.36c2-.55,2.03.92,2.31,1.08.13.07,2.73.58,2.98.6,1.09.09,2.23-.1,3.33.01l.32-.93c.78.73-.06,1.82,1.37,1.52l-.6.6,1.23.18.89-.78v1.21c.58.06.19-.8.6-1.09.35-.25.85.54,1.07-.38l.58.27.18-.61c.65-.19.79.25.61.75-.42,1.14-3.37.91-3.35,2.89l-.3-.6c-.64-.03-1.25-.05-1.89.08-.36.08-3.17,1.5-3.38,1.71-.34.35-.13.85-.2.94-.09.12-2.04-.51-2.58.91l-.3-.61c-1.16,1.1-3,.56-2.89,2.73l-.9-.91c-.38.47-.31,1.98-.37,2.07-.93,1.46-1.13.86-2.16,3.3-.09.22-1.58.85-1.11,1.3l1.21-.6.15,1.21c.66-.47.84-1.02.76-1.82h.3c-.07.72.25.66.92.6l-.31-.6c.62-.09,1.28-.18,1.22-.91l.58.03.45.56c.69-.15,1.19-1.07,1.69-1.31,2.16-1.04,6.15-1.82,8.29-2.99.91-.5,1.63-2.41,2.94-2.37l-.6-.9,1.08-.28.43.58c.04-.16-.03-.41,0-.6l.61.3c-.18.15-.26.4-.61.3-.31,1.14-1.67,2.71-2.43,3.94-.63,1.02-1.06,2.25-1.5,2.9-.3.45-1.49.82-1.23,1.04l.61.2-.14,1.35-1.38.28.91.3c-.05.88-1.17,1.26-1.42,1.62-.65.94-1.15,3.8-2.52,2.93l-.31,1.52,1.21.3c-1.92-.32-2.92,1.3-2.73,3.04l-.91-.6.24.56-.54.2c1.86,1.43,1.4-.27,1.86-.71.04-.04.77.25,1.11-.13.11-.12.03-.53.17-.71.66-.8,1.32-2.01,2.32-1.95l-.91-.6c1.48.19.55-.35.81-.83.22-.4.93-1.2,1.31-.69l.04-1.18,1.48-.34-.29-.58,1.36-.63c.56,1.25-.53,1.83-1.04,2.67-.58.96-1.33,2.63-1.93,3.62-.46.75-3.58,1.87-2.8,3.42l1.33-.97-.12-.84c.25.29.95.2,1.19.02.49-.37-.26-1.21.73-.73l.19-.48.77.27.31-1.82.59.3.92-3.48.6.14-.6-1.21,1.21.3-.29-.77.6.16v-1.36s.91.15.91.15c.25-1.43-2.01.09-2.12,0l.91-1.06-.91.15c.43-1.14,1.12-2.56,2.43-1.82v-1.07c.57-.04,1-.23,1.52-.45,4.09-1.65,5.46-2.9,8.3-5.98.19-.21,1.22,0,1.12-1.29l.59.29c-.41-1.17,1.25-1.21,1.46-1.58.22-.4-.09-1.11.1-1.41.07-.11,1.76-.85,2.07-1.4-.21-.22-.21-.5-.29-.77,1.21,0,.89,1.26.3,1.82l.61.3c-1.98-.16-.75.23-1.05.9-.08.19-1.63,2.18-1.99,2.14l.6.6-1.53.8-.58,3.02.59.43c-1.39.18-1.24,2.56-.91,3.65-.51.29-.73.16-.94.75-.43,1.18.21,2.79-.55,3.98l.58.43h-.91s.61,1.67.61,1.67l-.31-.75h-.3c.33,2.39-1.19,4.38,0,6.67l-1.21.31.6.6-1.68,1.21.47,1.22c-3.22,3.96-8.19,6.77-13.35,6.98l1.52-3.64v-.3l.61-.3c.04.13.66.87.91.91.05-.28-.07-.69,0-.91.85.15.83-.14,1.37.91h.45c.08-.93,1.45-.88,1.22-2.13l.6.31c-.27-.94.55-1.61,1.22-2.25.12-.11.5.11.55.06.23-.21.6-1.65,1.56-1.91-.32-.52-2.35.19-2.12-.61.17-.61.7-.87.31-1.67l.9.16c-.72-.88.21-.64.41-1.14.25-.62.59-1.43.8-1.98.28-.73.41-1.72.62-2.5-1.04-.16-.98,1.03-1.31,1.41-1.32,1.54-2.07,1.49-2.5,4.03-.07.42.23,1.18.17,1.22-.08.06-.64-.12-.84.05-.37.33-.62,3.1-1.59,2.99-.15.44,1.19.23.6.91-.07.08-.41-.27-.53-.21-.77.39-1.62,1.48-1.9,2.33-.32-.06-.63-.12-.91-.3,0-.77.59-1.88.72-2.7.31-1.9.53-3.88.79-5.8l-1.52,2.27c-3.19,3.88-6.32,4-10.71,5.02-.12.03-1.44,1.7-1.73,0l-.6.6-.15-.61c-.63,1.62-1.45.04-1.57.01-.77-.18-1.96.01-2.83-.31-.16-.18-.62-.33-.76-.59l.15-.78c7.19-.83,7.57-7.1,9.11-12.74-3.27-1.12-5.26,2.42-8.2,2.58-.22-7.11,3.9-12.87,9.71-16.54-4.34-1.36-7.55-4.5-7.58-9.25,3.59,2.34,6.98,2.76,11.22,2.43ZM263.79,365.69h-.91v.3h.91v-.3ZM263.34,366.6v.3c.2-.1.2-.2,0-.3ZM256.36,368.42v.3c.2-.1.2-.2,0-.3ZM258.79,370.24v.3c.2-.1.2-.2,0-.3ZM262.73,378.13v.3c.2-.1.2-.2,0-.3Z"/>
    <polygon class="st5" points="280.79 342.63 280.18 342.63 280.19 342.02 280.79 342.63"/>
    <rect class="st8" x="263.19" y="354.16" width=".3" height=".6"/>
    <path class="st8" d="M254.24,348.39c.2.1.2.2,0,.3v-.3Z"/>
    <path class="st8" d="M262.73,354.77c.2.1.2.2,0,.3v-.3Z"/>
    <path class="st8" d="M262.74,353.86c.3.2-.14.4-.31.59l-.14-.14.45-.45Z"/>
    <path class="st1" d="M300.51,350.82c-.35-.47-.68-2.88-.78-3.04-1.04-1.65-3.01-4.03-4.09-5.22-.88-.97-2.35-1.43-2.11-2.97l-.6.6c-.5-1.63-2.82-.98-4.25-1.97-.87-.61.48-.28.3-.75l-2.12.3v-.91s-1.33.62-1.33.62c-1.01-.97-.85-.83-.15-2.09l2.99-.04-.3.91c.98-.44,2.53.15,2.74,1.21h.29c.21-1.82,1.12.16,1.26.25.1.06.51-.26.85-.1.17.08,2.27,1.91,2.44,1.68l-.33-1.8-.52.19-.21-.47c-.26.75-2.47-1.55-2.6-1.77-.28-.49-.28-1.06-.29-1.6-.57-.09.02.73-.73.59-1.1-.21-.45-.9-1.09-1.2l-.3,1.21-1.21-1.37,2.87.16v-.61s1.67.6,1.67.6c.08.61.05.62-.54.66.5,2.22,1.13-.6,1.76-.05.11.09-.46.43-.12.6.66.33,1.53.66,2.23.94l-.29.58c1.63-.04.92.27,1.39.87.24.32,1.05,1.02,1.04,1.25-.01.53-.74,1.96.61.3-.13.94.28,1.56.3,2.12,0,.09-.8,1.03,0,1.21.02.02.46.02.61,0l.15.3.15-.3s.14-.39.3-.61c.04,1.53.75.97,1.19,1.23.03.02-.17.43-.04.79.41,1.17,1.19,2.1,1.57,3.27l-.75.48-.16-.92c-1.96.52-.29,1-.28,1.09.07.59-.59,2.08-.25,3.01.06.18,1.31.9.84,1.97-.57-.14-.57-1.09-1.2-1.36-.31-.13-.63.12-.92.14ZM301.27,345.36v.3c.2-.1.2-.2,0-.3Z"/>
    <path class="st17" d="M298.39,338.08l.91-.3c.15.44-.3.57-.3.61-1.35,1.65-.62.23-.61-.3Z"/>
    <path class="st17" d="M299.6,340.51c-.06.19-.29.44-.3.61-.01.15-.02.59,0,.61-.8-.18,0-1.12,0-1.21h.3Z"/>
    <path class="st1" d="M299.6,340.51l.61.15-.91.46c.02-.16.25-.41.3-.61Z"/>
    <path class="st17" d="M299.91,341.72c.11-.01.25.03.3,0l-.15.3-.15-.3Z"/>
    <path class="st15" d="M340.57,391.49c-1,1.35-1.65,3.33-3.03,4.55,1.54.12,3.09-.11,4.55-.6,1.98-.68,4.56-2.05,5.92-3.64l-1.06,2.72c.95-.32,1.83-.78,2.73-1.21l2.12.46-1.51.15c-.29.85.54.52.6.61.51.75-1.01.51-.3.91-.27.19-.72.62-.91.91-2.54.34-4.9,1.54-7.47,1.78-4.44.43-10.17-.35-14.38-1.78,2.56-.46,5.84-1.02,8.19-2.12,1.61-.75,2.85-2.37,4.55-2.73Z"/>
    <path class="st18" d="M356.96,387.54c.66-.86,1.38-1.49,1.22-2.73l1.52.31c.33.46-1.68,3.1-1.98,3.67-.18.34.18.55.16.57-.12.25-.53,1.12-.61,1.21-1,1.33-3.31,2.75-4.55,3.94-.38.13-1.89.75-2.12.91-.71-.4.81-.15.3-.91-.06-.08-.89.25-.6-.61l1.51-.15-2.12-.46c2.83-1.37,5.36-3.24,7.28-5.77Z"/>
    <path class="st17" d="M346.64,404.84l.31,1.52-2.43.3.15-.6.76.3c.09-1.06-.09-1.45,1.21-1.52Z"/>
    <polygon class="st19" points="322.97 418.8 323.88 418.8 323.58 419.1 322.97 418.8"/>
    <rect class="st12" x="335.11" y="408.48" width=".3" height=".91"/>
    <path class="st8" d="M334.65,405.44c.2.1.2.2,0,.3v-.3Z"/>
    <path class="st12" d="M335.87,410c.2.1.2.2,0,.3v-.3Z"/>
    <path class="st12" d="M333.74,410.3c.2.1.2.2,0,.3v-.3Z"/>
    <path class="st12" d="M331.31,414.24c.2.1.2.2,0,.3v-.3Z"/>
    <path class="st12" d="M354.53,376.31c1.71.67,2.93,2.32,4.52,3.24-.21,2.8-.97,5.44-2.1,7.99-1.93,2.53-4.46,4.4-7.28,5.77-.9.43-1.78.89-2.73,1.21l1.06-2.72c-1.36,1.59-3.94,2.96-5.92,3.64-1.82-1.08,2.01-1.37,2.12-1.53l-.23-.54,1.3-1.27.45.6c.2-1.01.79-2.2,1.38-3.03.99-1.39,2.15-2.38,2.52-4.48.11-.62-.24-1.01-.26-1.59.06-.07.99.72,1.47-.5.3-.78-1.12-.93-.56-1.62s.53.78.9.6c.03-1.61,2.21-1.48,1.29-3.21l.84-.73-.6-.15.91-1.98c.36-.06.61.19.91.3Z"/>
    <path class="st9" d="M354.53,376.31c-.3-.12-.55-.37-.91-.3l-.91,1.98.6.15-.84.73c.91,1.73-1.27,1.59-1.29,3.21-.37.18-.35-1.29-.9-.6s.87.84.56,1.62c-.48,1.22-1.42.44-1.47.5.02.58.37.97.26,1.59-.37,2.1-1.54,3.1-2.52,4.48-.59.83-1.18,2.02-1.38,3.03l-.45-.6-1.3,1.27.23.54c-.11.16-3.94.44-2.12,1.53-1.46.5-3.01.72-4.55.6,1.39-1.22,2.03-3.2,3.03-4.55.41-.55,1.15-1.44,1.82-1.52l-.57-.33c-.1-1.34,1.04-1.63,1.35-2.1.18-.28-.15-.68-.07-.84.27-.58,1.77-.56,1.75-1.72,0-.32-.76.05-.63-.47l.88-.15c-.71-1.85.8-1.61,1.2-2.02.04-.04-.25-.61.18-1.17.34-.44,1-.59,1.04-.65.14-.21-1.05-1.44.6-1.2.09-.69,2.48-4.04,3.13-4.43.38-.23,1.49.42,1.75-1.01.55.78,1.11,1.56,1.52,2.43ZM348.91,385.11v.3c.2-.1.2-.2,0-.3ZM345.27,385.42v.3c.2-.1.2-.2,0-.3ZM343.9,388.15v-.6h-.3v.6h.3ZM341.78,392.09h-.6v.6h.6v-.6Z"/>
    <path class="st12" d="M352.71,373.58c.08.11.22.19.3.3-.26,1.43-1.38.78-1.75,1.01-.65.39-3.04,3.74-3.13,4.43-1.65-.23-.46,1-.6,1.2-.04.06-.7.21-1.04.65-.44.56-.14,1.13-.18,1.17-.41.41-1.92.17-1.2,2.02l-.88.15c-.13.52.62.15.63.47.02,1.16-1.48,1.14-1.75,1.72-.08.16.25.56.07.84-.31.48-1.44.76-1.35,2.1l.57.33c-.67.08-1.41.97-1.82,1.52-1.71.36-2.95,1.98-4.55,2.73l-1.22-.46.61-.45-1.09-.32-.43.61h-.6s.24-.55.24-.55l-.51-.06-.02-.59c1.12-.04,1.55-.83,1.84-1.81l.89.29c-.61-.75.5-.8.81-1.31.27-.44,2.3-3.93,2.38-4.17.16-.48-.21-.87-.1-1.13.03-.08,1.18-.85,1.39-1.04l-.23-.54c1,.29,1.08-.39,1.82-.62v-.29c-.76.11-.65-.39-.62-1.03,1.51-.41,1.47-1.89,2.15-3.22l1.19.31c.04.54-.16,1.07-.32,1.58-.09.28-.96,1.06-1.15,1.33-.35.5-1,1.32-.94,1.94l.47-.62,1.34.32c-.6-1.27.08-.74.43-1.22,1.05-1.46,3.46-4.15,3.95-5.43.08-.21-.21-.58-.13-.63.14-.08.57.24.92.12.93-.32,2.57-1.77,2.73-2.85.4.13.57.77.91,1.21ZM343.15,385.72v.3c.2-.1.2-.2,0-.3Z"/>
    <rect class="st19" x="341.79" y="426.38" width=".3" height=".6"/>
    <path class="st12" d="M333.89,419.71c-.02-.36.28-.34.61-.3v.3s-.61,0-.61,0Z"/>
    <rect class="st6" x="326.01" y="335.95" width=".6" height=".6"/>
    <path class="st6" d="M324.33,332.01c.2.1.2.2,0,.3v-.3Z"/>
    <path class="st5" d="M330.25,436.7c-1.58-.23-.4-1.33-.61-1.52h-.91s.15-.94.15-.94l.75-.11v-1.54s-.6.16-.6.16v-.91s.91-.61.91-.61l-1.82.91c-.39-.82.57-.92.61-1.11.21-1.26-1.65-4.28-2.43-5.42l.62-.32-.32-.73,1.22-.31.02.88.58-.13-.32.88.54.25-.2.52,1.19.33-.91.9h2.12s-.6.46-.6.46l1.27,1.94.84-.12c-1.01,1.57.32,1.75,1,2.6.56.72.63,1.85,2.04,1.5-.14.18-1.02.44-.6.91.1.12.42-.49.59-.1.19.44,1.46,2.16,1.85,2.37.21.12,1.12-.2,1.41.52.09.22-.42.81.26,1.15l1.64-.64-.31-1.01.63-.33-.91-.91.61-.3c-.44-.56-.13-.75-.91-.6l.32-.88c-.86-.28-.48-1.19-.63-2.32-.07-.57.04-.66.6-.61l-.62-.47c.33-.52.03-1.58.93-1.35l.61,1.37-.6.15c-.28.79.44.51.54.74.08.19-.11,1.28.09,1.65l.57-.13-.26.71,1.49.67c-.75.77-.45,1.17-.3,2.12l1.21-.31v.47s.31-.16.31-.16c.36.89,2.67,4.16,3.39,5.27.17.27,1.34,1.33,1.45,1.63.23.65.25,2.28.62,3.11-1.53-.12-2.75.56-3.63-.91-.13,1.35-2.24.48-3.04,1.21-.33.01-.76-.09-.91.3-.2,0-.4,0-.61,0l-.15-.3-.15.3c-.3,0-.61,0-.91,0v-.3c-.47-.27-.75-.43-.6-1.06l1.21-.76-.91-.91c-.81.39-.49,2.06-1.41,2.38-.55.18-2.52.34-2.23-.55l-.49.63c-.54.13-1.09-.33-1.33-.32l-1.21-.31.27-.77-.58-.14c-.08-.46.52-.37.82-.53,1.4-.74-.2-.47-.22-.53l-.28-1.23.58-.27-.32-.76-.59.3c-.17-.81.18-.45.61-.76-.62-.55-.91-1.47-.61-2.27h-.91c-.11-.12.36-2.36.22-2.89-.05-.18-.43-.16-.5-.39-.2-.68-.29-1.48-.33-2.2-1.09-.24-.47,1.52-.61,2.28-.06.3-.28.4-.3.45ZM328.58,428.2v.3c.2-.1.2-.2,0-.3ZM342.09,436.4h-.6v.3h.6v-.3ZM337.69,438.22v.3c.2-.1.2-.2,0-.3ZM345.58,444.89v.3c.2-.1.2-.2,0-.3ZM344.81,445.8v-.6h-.3v.6h.3ZM345.42,446.41v-.6h-.3v.6h.3ZM346.49,445.8v.3c.2-.1.2-.2,0-.3Z"/>
    <path class="st1" d="M335.41,434.27c.48-.62.37-1.33,1.82-1.22,0-1.8-2.01-2.79-2.55-4.43l-1.69-1.63c1.4.03.06-1.89.23-2.38l-.53-.05.6-.6c-.69-.06-1.43-.06-1.57-.85l-.55.24c.47-1.05-.25-1.28-.91-1.98l.6-.45c-.25,1.01.73,1.18,1.52,1.52.32.14.37.34.89.02l.33,1.2.9-.6.61.91c.12.55-.51.19-.61.3-.04.05.46,1.17.5,1.22.32.45.79.47.94.66.08.1.49,2.01.69,2.37l1.21-.31c-.41,1.26.73,1.36.86,1.56.05.08-.09,1.34-.04,1.85.07.74-.74.61.7.54.15,1.12-.23,2.04.63,2.32l-.32.88c.78-.15.46.04.91.6l-.61.3.91.91-.63.33.31,1.01-1.64.64c-.67-.34-.17-.92-.26-1.15-.29-.72-1.2-.41-1.41-.52-.39-.21-1.66-1.93-1.85-2.37-.17-.39-.49.21-.59.1-.42-.47.47-.73.6-.91Z"/>
    <rect class="st5" x="346.03" y="408.18" width=".3" height=".6"/>
    <path class="st1" d="M360.29,395.43l-.91-.46c-.13-.63.51-.95.56-1.27.08-.51-.87-.54.05-2.01.2-.31.72-.05.6-.51l-2.42-.61.91.6c-.77-.09-.71.23-.31.77l-.9.44c-.19-.34.53-2.75-.61-1.82.07-.1.49-.97.61-1.21l5.47-8.94c.27-.54,1.25-1.02,1.51-1.37-.73,2.99-.55,5.8-1.36,8.8-.42,1.54-2.28,6.48-3.19,7.58Z"/>
    <rect class="st5" x="341.18" y="406.66" width=".3" height=".6"/>
    <path class="st6" d="M321.3,328.97c.2.1.2.2,0,.3v-.3Z"/>
    <path class="st6" d="M322.51,334.13c.2.1.2.2,0,.3v-.3Z"/>
    <path class="st6" d="M329.04,381.77c-.69.17-1.07-.11-1.2-.79-.13-.75.67-.15.59-.72l-1.21-.61c.75.07.8-.61.92-1.21h.75s.3.6.3.6l.61-.61.3.61c.17-.57,1.23-.72.58-1.22-1.22-.94-.72.49-1.64.31l-.25-2.08c1.78-1.67,3.28-3.91,5.56-5.2l.45.6c.25-1.5,1.04-2.32,2.71-2.17l.19-.89h1.94s.17-.9.17-.9c.81-.12,1.6.4,2.4.32.61-.06,1.15-.64,1.85-.64s.39.83,1.21.96c.7.12,1.31-.26,1.97-.32-.11,1.77-2.07.87-3.13,1.21-.39.12-.17.58-.21.61-1.18.84-2.61.88-3.85,1.46-3.45,1.62-5.48,4.99-8.13,7.34-.45.4-1.32.55-1.37.61-.08.11.88,2.13-.92,1.81.72.92-.39.59-.6.91ZM340.11,368.12v.3c.2-.1.2-.2,0-.3Z"/>
    <polygon class="st9" points="300.82 386.02 300.81 387.84 300.36 386.93 299.61 387.84 299.75 386.34 300.82 386.02"/>
    <path class="st9" d="M299.45,385.72c.2.1.2.2,0,.3v-.3Z"/>
    <path class="st9" d="M324.33,387.54c.2.1.2.2,0,.3v-.3Z"/>
    <path class="st9" d="M298.84,388.45c.2.1.2.2,0,.3v-.3Z"/>
    <path class="st13" d="M285.95,369.33c1.01-2.64,3.22-5.87,4-8.3.26-.81.73-4.05.92-4.38.1-.18.71-.23.85-.52l-.58-.28c.3-1.05.77-3.75-.24-4.19l.22-.54h-1.22s.92-1.07.92-1.07l-.62-1.06c.62-.46,2.03,1.44,2.21,1.91.34.86-.43,2.43.98,3.25l-.46-2.73h.91s-.25.55-.25.55c1.53.73,1.79,3.07,1.46,4.6l.6-.6c.57.92-1.76,3.35.31,3.03-1.62,9.4-12.12,12.19-10.58,24.69.31,2.54,1.01,5.14,2.38,7.33l-1.51.15c-.74-.71-1.98-1.29-2.73-2.12-.33-.37-1.53-2.21-1.82-2.73l.91-.6c-1.47-.15-.58-1.06-.73-1.85-.11-.57-.69-.59-.71-.63-.05-.11.17-2.08.23-2.38.08-.36.81-.23.3-1.21-.12-.24-.69-.81-.61-.91h.61c.25.03,1.29-.35,1.82,0v-2.12s.6.31.6.31c.38-1-.78-3.56.91-3.49-1.12-1.42-.24-.78.1-1.44.42-.82.64-2.19.82-2.66Z"/>
    <path class="st8" d="M286.25,391.18c.65.63.34,1.72.61,2.73l-1.52-.3c.07.54.06,1.02-.61.92.06.6,1.37.64,1.52,1.11.28.87-.08,1.18-.92,1.01-.24.23.68,1.93.91,2.29,1.06,1.66,1.41,1.81,1.96,3.8.17.62.71.54.77.81.09.38-.13,1.04.05,1.26.37.46,2.73.13,1.47,2.16l1.81.32-.3.59.91.02v1.5c1.73-.81,1.76,1.54.38.82-.05-.03-.06-.32-.19-.4-.25-.16-.68-.08-.74-.15-.37-.4.74-2.33-1.87-1.48v-.92s-.6.3-.6.3c.17-.9-.7-1.08-1.07-1.82l-1.06.91.62-1.06c0-.15-1.5-2.42-1.63-2.5-.27-.17-.75-.03-.82-.08-.02-.02.28-.4.21-.53-.27-.47-.82-1.74-.89-1.82-.22-.22-1.81-.36-1.38-1.24.03-.06.39-.04.44-.13.45-.82.1-1.38-.81-1.14,1.08-1.04.09-1.42,0-2.57-.17-2.06-.13-4.46,0-6.53.76.83,1.99,1.42,2.73,2.12Z"/>
    <path class="st5" d="M293.53,387.24c.05.04-.05.26,0,.3.1.09.16.2.3.3.13.09.49.04.61.3-.29.59-.12,1.46-1.21,1.52l.64.74c.03.91-.36,1.52-.64,2.29l-1.21-1.06c.55-.93.87-1.82.76-2.9l.75-1.51Z"/>
    <path class="st5" d="M293.53,393c.2.78-.33.46-.76.9-.26-.32.36-.69.46-.9h.3Z"/>
    <path class="st19" d="M286.25,340.81c-.13-.04-.24-.29-.3-.3l.3-.3v.61Z"/>
    <path class="st9" d="M295.35,395.13c-.14.14-.48-.28-.15-.3.11,0,.22.24.15.3Z"/>
    <path class="st12" d="M342.44,374.73l.55.07v.6s-.62.17-.62.17l.32,1.04-1.52.33c.11.28-.06,1.94-.11,2.04-.22.46-1.7,1-1.88,1.28-.35.54.62,2.37-.45,2.88-.82.39-1.48-.35-1.18,1.17l-.93.2.6.3c.09.35-.17.79-.45.91-.31.12.08-.76-.45-.6-.05,1.31.59,1.67-.31,2.73-.33.31-.25-1.17-.91-.6-.12.1.5.44.09.59-.69.26-1.61.84-.4.93-.24.87-.85.32-1.51.3v2.12s-1.78-.34-1.78-.34c-.55-.88,2.03-3.56,2.99-3.91l-.6-.75c.19-.43.91-.59,1.12-.85,1.76-2.24,3.05-5.84,4.75-8.3.71-1.02,1.78-2.41,2.78-3.13l-.11.84Z"/>
    <polygon class="st12" points="343 374.49 343 373.58 343.77 373.86 343.94 373.32 344.81 373.73 343 374.49"/>
    <rect class="st6" x="351.8" y="369.94" width=".3" height="1.82"/>
    <path class="st12" d="M337.99,383.9c.2.1.2.2,0,.3v-.3Z"/>
    <path class="st1" d="M343.91,369.64l.56,1.17c-.98.51-1.15.91-2.07.04.34,1.32-1.78,1.71-2.13,2.13-.57.68.75.45.6.9-.78-.16-.47.67-.8.94-.2.16-.71.11-.95.34-.3.3-.79,2.62-1.59.54h-.3c0,.4.04.83-.16,1.2-.49.93-2.06,1.42-1.36,2.43h-.91s.6.46.6.46c-.16.28-.68.3-.83.54-.81,1.28-1.28,2.9-1.6,4.27-.07.3-1.03,0-.3,1.11-1.26-.28-2.32,1.3-2.66,2.36-.11.33.23.71.15.93-.03.06-.37-.02-.45.2-.03.08.27.47.1.76-.19.34-.83.4-1.08.61-1.74,1.47-3.09,3.49-5.17,3.16l-.29,1.09h-.61s.31-.61.31-.61c-.06-.05-1.38.23-1.57.32-.23.11-1.44,1.4-1.54,1.44-.71.28-1.54.31-2.74.98-.35.2-.05.71-.52.6-.39-1.37-.01-2.06.49-3.3.37-.9,1.21-3.01,2.23-2.77l-.61-.46c.26-.69.66-1.11.85-1.89.07-.29.3-1.07-.23-.99-.68,1.55-2.76,2.46-4.1,3.64-.49.43-1.97,2.41-2.28,2.6s-.82-.19-.88-.15c-.22.15-2.29,4.08-2.52,4.61-.94,2.2-1.54,4.95-1.13,7.31l-.6.32c.46,1.45.65,2.95,1.04,4.42.1.36.34.43-.31.31-1.25-.22-1.59-1.12-2.58-1.53l.6-.9c-1.58-.27-3.29-2.24-3.8-3.67-.14-.4.19-.86.16-.89-.35-.26-1.27.31-1.24-1.64l.63-.48-.93-.2c-.11-1.07-.52-2.26-.58-3.3-.25-3.93.96-7.1,2.45-10.53.12-.29.54-.25.53-.38-.2-2.62-1.77.57-2.84,1.05l-.45-.6c.06,1.12-1.19,1.98-2.13,2.43l-.61-.76.57-.18-.32-1.45-.86-.04v-.6c.88.15.49-.78.77-1.19.87-1.28,1.84-1.18,1.92-1.28.31-.39.28-2.29,1.41-2.39.19-.02-.03.95.75.61l-.3-1.21.75.6c.32-.17.71-1.43.76-1.82.82-1.52,1.63-.8,2.13-1.04.41-.21.47-.86.66-1,.13-.1,2.62-.41,3.26-.85.29-.2.35-.71.64-.89.47-.29,1.36.12,1.2-.76l.45.6c.34-.58.96-.46,1.42-.65.28-.12.96-.86,1.04-.86.26-.02.54.32,1.02.15.69-.25,1.57-1.17,1.23-1.98h.3c-.13.94.81.57,1.52.6l-.3-.91c1.89.41,2.34-2.12,3.79-2.43l-1.33,2.85-.94.19.6.45c-.56.29-.64,1.19-.89,1.47s-.68.12-.94.4c-2.08,2.25-2.67,5.72-4.54,8.14l.58.27-1.15,2.57.56.33c-.76-.08-.82.92-.91,1.52.82-.12,1.73-.62,1.52-1.51l.75.6c1.95-1.63,3.88-3.08,6.53-3.34l-.3-.91c1.03.49,1.15-.27,1.92-.69.25-.13.66.07.76,0,.26-.21.4-1.24,1.27-1.14l-.6-.6,1.21-.61c.1.29.45.74.6,1.07l-.6-.16c.43,1.87-1.29,1.38-.73,3.05l-1.7.6.61.45-.92,1.67c.88-.04,2.32-.29,2.71-1.16.11-.25-.08-.77.05-.94.12-.16.72.05.88-.02v.61s.61,0,.61,0v-.6s-.61,0-.61,0c.29-.14.67-.98,1.21-.91l-.6-.6,1.68-.3c.19-.26-.08-1.5.14-1.83s1.32.01.6-.91c1.8.32.85-1.7.92-1.81.04-.06.91-.21,1.37-.61,2.65-2.35,4.68-5.72,8.13-7.34,1.24-.58,2.66-.63,3.85-1.46ZM299.45,385.72v.3c.2-.1.2-.2,0-.3ZM300.82,386.02l-1.07.31-.14,1.51.76-.91.45.91v-1.82ZM324.33,387.54v.3c.2-.1.2-.2,0-.3ZM298.84,388.45v.3c.2-.1.2-.2,0-.3Z"/>
    <path class="st6" d="M347.09,367.21c.2.1.2.2,0,.3v-.3Z"/>
    <path class="st12" d="M335.26,388.15c.2.1.2.2,0,.3v-.3Z"/>
    <path class="st17" d="M289.58,384.51c.1.1.11.91.36,1.15.06.06.84-.3.86.36-.98.35-1.05,1.3-2.42.91-.08-.4.57-3.05,1.21-2.43ZM289.44,386.02v.3c.2-.1.2-.2,0-.3Z"/>
    <path class="st17" d="M290.35,384.81c.2.1.2.2,0,.3v-.3Z"/>
    <path class="st17" d="M293.84,387.84c-.15-.1-.21-.21-.3-.3l.3.3Z"/>
    <path class="st6" d="M328.28,359.62c.2.1.2.2,0,.3v-.3Z"/>
    <path class="st6" d="M323.73,353.25c.2.1.2.2,0,.3v-.3Z"/>
    <path class="st17" d="M294.29,392.4c.2.1.2.2,0,.3v-.3Z"/>
    <path class="st1" d="M296.72,388.45c.2.1.2.2,0,.3v-.3Z"/>
    <path class="st1" d="M297.33,389.36c.2.1.2.2,0,.3v-.3Z"/>
    <path class="st6" d="M320.69,379.04c.2.1.2.2,0,.3v-.3Z"/>
    <path class="st17" d="M305.67,415.15c.59-.03,1.22-.04,1.76.22.19.09,2.75,2.31,2.94,2.52.28.32.43.78.47,1.2l.61-.46c.37,1.73,3.02,2.08,2.12,4.1l1.81-.3.31,2.43c.54-.26.82-.42,1.21.16-1.08,1.54.05.56,0,1.96l1.51.31-.62.46.94,2.14-.62.74c1.42.2.58,2.38.3,3.34-.46,1.59-3.04,5.76-4.44,6.64-.4.25-.87.33-1.33.34l.6.6h-.91c.63-4.97-.47-10.29-2.43-14.87.03,0,.24-.43.61-.3.02.6-.24,1.09.61.91-.51-.46.07-1.75,0-1.82-.07-.07-1.02.18-1.52-1.07l.6-.45-1.66-.63-.46.63c-.1-.58.15-1.4,0-1.91-.1-.38-1.31-.34-.65-1.29l-.53.1c.17-1.33-1.19-.36-.98-1.7l-.59.09c-.35-.29-.12-1.2-.89-1.06l.75-.6.81,1.18,1.47-.28c.2-1.24-1.47-.55-1.99-.88-.56-.36-1.48-1.69-.44-1.85l.3.61c-.12-.41.3-.98.31-1.21ZM305.82,416.98v.3c.2-.1.2-.2,0-.3ZM308.71,418.8h-.61s.31,1.82.31,1.82h.3s0-1.82,0-1.82ZM309.47,420.17c-.14-.19-.23-.76-.46-.3l-.3,1.66.45-.61.76.61c-.18-.73-.01-.75-.45-1.36ZM308.1,420.92v-.91h-.3v.91h.3Z"/>
    <path class="st13" d="M269.86,395.13c1.47-.31,1.35,2.45,2.13,3.19l-.61.29c.58.27.31,1.27.36,1.33.87.97,1.42.05,1.46-1.01s-.5-4.3-1.82-4.25l.57-.18-.27-1.19.91.3.6-1.52c-.27.76.84.5.93.75v.87s-.62.34-.62.34l.91.61-.61.45,1.21-.3c.31.77-.56.57-.61.76-.22.88.44.68.61.98.74,1.36,1.23,2.9,2.14,4.17.6.82,1.79,1.66,2.08,2.17.34.6.24,1.45.35,1.63.02.03.38-.25.74-.02.57.37.84,1.03,1.21,1.54l1.06-1.52c2.74,3.7,5.3,4.9,9.1,6.98.48.26,1.47,1.21,2.12,1.52-2.21.16-4.61.25-6.82,0s-4.49-.82-6.53-1.51c-.12-.19-.7-.41-.61-.91l-.6.6c-.13-1.73-2.63-2.41-3.94-3.37.64-1.45-.14-.57-.54-.93-.21-.19.03-.65-.68-1.16-.64-.45-1.63-2.27-2.14-3.47-.96-2.25-1.47-4.65-2.1-7.15Z"/>
    <path class="st5" d="M300.21,416.07l.46-1.22c-1.52-.39-.77-.58-.85-.74-.11-.21-.59-.98-.82-.78v-.6s.88-.01.88-.01l.03-1.2c1.07.08,1.42,1.25,1.22,2.12l.32-.89c1.05-.08,2.65-.15,2.55,1.18,1.04-.64,1.7.09,1.68,1.23,0,.24-.43.81-.31,1.21l-.3-.61c-1.04.16-.12,1.49.44,1.85.52.33,2.19-.36,1.99.88l-1.47.28-.81-1.18-.75.6c.77-.14.54.77.89,1.06l.59-.09c-.21,1.35,1.15.37.98,1.7l.53-.1c-.66.95.55.91.65,1.29.14.52-.1,1.33,0,1.91l.46-.63,1.66.63-.6.45c.49,1.24,1.44.99,1.52,1.07.07.07-.51,1.35,0,1.82-.85.18-.59-.31-.61-.91-.36-.13-.57.3-.61.3-.19.01-.38.07-.55-.07-1.73-2.74-3.85-5.15-6.13-7.44-.62-.62-2.4-2.66-3.03-3.11ZM300.36,412.42v.3c.2-.1.2-.2,0-.3Z"/>
    <path class="st8" d="M308.1,447.32s.11-.26.74-.32c1.53-.14,3.47-.1,5.03,0l-.57-.33.42-1.19c.48.74.94.55.46,1.52l1.5-.02.17-.89.32.93c1.26-.05,2.52,0,3.78-.02v.3c-.81-.05-2.17-.2-2.73.3-.3,0-.61,0-.91,0-.38-.5-1.74-.5-2.12,0-.2,0-.4,0-.61,0-.1,0-.2,0-.3,0-.2,0-.4,0-.61,0-.1,0-.2,0-.3,0-.2,0-.4,0-.61,0-.57-.51-2.17-.51-2.73,0-.2,0-.41.01-.61,0l-.3-.3Z"/>
    <path class="st13" d="M306.89,447.32c-.3.05-.56.25-1.21.3l1.21-.3Z"/>
    <path class="st13" d="M308.1,447.32l.3.3c-.33-.02-.76.1-.91-.3.2-.02.41.02.61,0Z"/>
    <path class="st8" d="M298.39,390.58c.94-.44,2.19-1.3,2.13-2.43l.45.6c1.07-.48,2.64-3.67,2.84-1.05,0,.13-.41.09-.53.38-1.49,3.43-2.7,6.6-2.45,10.53.07,1.04.48,2.23.58,3.3l.93.2-.63.48c-.03,1.96.89,1.38,1.24,1.64.04.03-.3.49-.16.89.5,1.43,2.21,3.39,3.8,3.67l-.6.9c.99.41,1.32,1.3,2.58,1.53.65.12.41.05.31-.31-.39-1.47-.59-2.97-1.04-4.42l.6-.32c-.41-2.36.2-5.11,1.13-7.31.23-.54,2.3-4.47,2.52-4.61.06-.04.56.35.88.15s1.79-2.17,2.28-2.6c1.34-1.18,3.42-2.09,4.1-3.64.53-.08.3.7.23.99-.19.77-.59,1.2-.85,1.89l.61.46c-1.02-.24-1.87,1.87-2.23,2.77-.51,1.24-.88,1.93-.49,3.3.47.11.17-.4.52-.6,1.2-.67,2.03-.7,2.74-.98.1-.04,1.31-1.32,1.54-1.44.19-.09,1.51-.37,1.57-.32l-.31.6h.61s.29-1.09.29-1.09c2.09.33,3.44-1.69,5.17-3.16-.08,1.29-.62,2.73-1.06,3.94-.18.5-.67.85-.76,1.36-.14.8.54.33.92.46,4.21,1.43,9.93,2.21,14.38,1.78,2.57-.25,4.93-1.44,7.47-1.78-.15.23-.08.86-.37,1.15-.34.34-.98.06-1.09.14-.26.2-.43,1.14-.75,1.35-.44.29-1.69.44-2.49,1-.51.36-3.12,3.03-3.34,3.03l-1.03-1.07c-.58-.18-1.05.66-1.4.68-.3.01-.74-.51-1.22-.51-.8,0-1.95,1.61-1.66,2.43l-.31-.77-.6-.15-.31,1.22c-1.22-.56-.73.03-1.13.29-.75.49-1.7.96-2.36,1.53-1.04.9-1.99,2.99-3.49,2.72l.28.76c-.12.57-1.15-.17-.89.6.12.36.72-.1.61.45-1.54.25-2.46.85-3.94,0-.22-.93,1-.61,1.18-1.42.1-.44-.27-.83-.27-1.13,0-.2.51-.14.7-.55.56-1.21-.13-3.09,1.12-3.28l-.14-.59h-1.06s.3-1.38.3-1.38l-.6-.15c.58,1.47-1.52,1.6-1.72,2.19-.15.45.06,2.09-.12,2.75-.06.22-.44.23-.48.32-.2.55-.17,1.18-.72,1.56l.6.45c-1.27.05-.51,1.22-.61,1.94-.08.56-.52.94-.53,1.5,0,1.04,1.61,3.38,1.76,4.57l-.92.64.3.15.61.3v.3c-.61.01-.64.63-.97-.08-.72-1.56-1.47-3.1-1.92-4.77-.38-1.42-.99-4.85-1.02-6.25,0-.14.53-.09.58-.33.18-.82-.76-2.19.29-2.38-1.05-1.35-1.38-.66-1.79.64l.87.72h-1.82s.27.78.27.78c-1.26.24.2,2.05.03,2.26l-.9.31c-.1-.66-.4-1.61-1.22-1.52.31,1.23-1.06,1.06-1.54,1.74-.1.14-.54,3.07-.54,3.28,0,.15.47.14.54.36.25.78.8,2.08-.28,2.35.62.79,1.1,1.76,1.53,2.66.09.19.49.22.51.28.07.15-.18.55-.08.85.17.52.67,2.64.78,2.74s.93-.55,1.21.15l-.31.9.61-.15c-.48,1.1.1,1.72,1.22,2.13.36,1.49,1.8,2.12,1.52,3.95l.9-.16c-.64.92.28,1.93.54,2.83.67,2.35,1.5,5.14.69,7.5l1.21.15c.1.6-.76.16-.91.3-.11.11.21,1.15.19,1.52-.07.96-.77,1.55-.76,1.65.02.29.36.64.28,1.21s-.83,1.19-.63,1.98c-.7.07-1.41,0-2.11.02,0-1.59-1.03-3.61-1.11-5.05s1.53-5.89-.71-5.42c.6-.4.99-2.64-.31-2.58.28-.97,1.12-3.14-.3-3.34l.62-.74-.94-2.14.62-.46-1.51-.31c.04-1.4-1.09-.42,0-1.96-.39-.58-.67-.42-1.21-.16l-.31-2.43-1.81.3c.9-2.02-1.75-2.37-2.12-4.1l-.61.46c-.05-.42-.19-.88-.47-1.2-.19-.22-2.75-2.43-2.94-2.52-.54-.26-1.17-.25-1.76-.22.01-1.14-.65-1.87-1.68-1.23.1-1.32-1.5-1.26-2.55-1.18l-.32.89c.2-.88-.15-2.05-1.22-2.12l-.03,1.2h-.88s0,.62,0,.62c.23-.2.71.57.82.78.08.16-.67.35.85.74l-.46,1.22c-.2-.14-3.13-1.59-3.73-1.89-.88-.45-1.69.17-1.74-1.45-.3.09-.59.28-.91.31-.65-.31-1.64-1.25-2.12-1.52,1.03-.49,1.85-.78,3.04-.61v-1.52c.94.71,1.42-.17,2.28-.02.4-.25-.85-1.28-1.06-1.5.89-.17,1.52.43,2.29.59.28.06,1.13.23,1.04-.28-1.66.19-.41-.43-.64-1s-1.33-1.67-1.52-2.15c-.5-1.29-.88-3.77-1.13-5.23s.42-2.94-.94-4.21c.18-.08.21-.39.3-.45.06-.05.4.08.55-.06.16-.16.02-.49.06-.54.41-.55,1.14-1.19,1.19-1.26.13-.2-.29-.63-.23-.82.04-.1,1.44-1.18,1.71-1.31l-.24-.55ZM318.72,405.14v-.6h-.3v.6h.3ZM300.34,408.97c-.26-.28-.36-.74-.73-.8l.3,2.12c.64-.04-.04-1.13.9-.91.12-.45-.3-.22-.48-.41ZM299.6,409.99v-.6h-.3v.6h.3ZM321.6,410.3v.3c.2-.1.2-.2,0-.3ZM317.05,423.35v.3c.2-.1.2-.2,0-.3Z"/>
    <path class="st8" d="M316.44,445.8c.2.1.2.2,0,.3v-.3Z"/>
    <path class="st4" d="M276.69,415.46c.2.1.2.2,0,.3v-.3Z"/>
    <path class="st4" d="M288.83,421.53c.2.1.2.2,0,.3v-.3Z"/>
    <polygon class="st16" points="271.68 429.42 271.08 429.41 271.39 428.51 271.68 428.51 271.68 429.42"/>
    <path class="st16" d="M272.14,429.11c.2.1.2.2,0,.3v-.3Z"/>
    <path class="st4" d="M279.73,421.83c.2.1.2.2,0,.3v-.3Z"/>
    <path class="st4" d="M281.55,428.51c.2.1.2.2,0,.3v-.3Z"/>
    <path class="st18" d="M283.37,441.86c.17.19.61.4.31.59-.15-.18-.61-.38-.31-.59Z"/>
    <path class="st11" d="M280.33,418.49c.2.1.2.2,0,.3v-.3Z"/>
    <path class="st11" d="M291.86,432.46c.17.19.61.4.31.59-.15-.18-.61-.38-.31-.59Z"/>
    <path class="st11" d="M300.06,439.74c.17.19.61.4.31.59-.15-.18-.61-.38-.31-.59Z"/>
    <path class="st13" d="M325.7,447.62c-1.51,0-3.04,0-4.55,0,1.12-.51,3.37-.51,4.55,0Z"/>
    <path class="st13" d="M319.93,447.32c.26.02.53.01.61.3-1.11,0-2.23,0-3.34,0,.56-.51,1.92-.35,2.73-.3Z"/>
    <path class="st13" d="M311.74,447.62c-.91,0-1.82.02-2.73,0,.57-.51,2.17-.51,2.73,0Z"/>
    <path class="st13" d="M316.29,447.62c-.71,0-1.42,0-2.12,0,.38-.5,1.74-.5,2.12,0Z"/>
    <path class="st13" d="M312.65,447.62h-.3c.1,0,.2,0,.3,0Z"/>
    <path class="st13" d="M313.56,447.62h-.3c.1,0,.2,0,.3,0Z"/>
    <path class="st8" d="M330.25,436.7c.02-.06.24-.15.3-.45.14-.76-.48-2.52.61-2.28.04.71.13,1.52.33,2.2.07.23.46.21.5.39.14.54-.33,2.77-.22,2.88h.91c-.3.81-.01,1.73.61,2.28-.42.31-.77-.06-.61.76l.59-.3.32.76-.58.27.28,1.23c.02.07,1.62-.21.22.53-.3.16-.9.06-.82.53l.58.14-.27.77,1.21.31c-.65,0-1.61.18-2.12.61-.2,0-.4,0-.61,0-.04-.46-.87-.46-.91,0-.3,0-.61,0-.91,0-1.07-.61-2.59-.24-3.8-.3-.34-.02-.83.2-.75-.3l.97-.85.54.24,1.52-5.46c2.07.8,1.46-2.4,1.67-3.39.06-.3.41-.46.45-.56Z"/>
    <path class="st12" d="M334.2,446.71c.24,0,.79.45,1.33.32l.49-.63c-.28.89,1.69.74,2.23.55.92-.31.6-1.99,1.41-2.38l.91.91-1.21.76c-.15.62.14.78.6,1.06h-7.89c.52-.42,1.48-.6,2.12-.61Z"/>
    <path class="st12" d="M331.47,447.32c-.3,0-.61,0-.91,0,.04-.46.87-.46.91,0Z"/>
    <path class="st13" d="M341.18,447.62c-.1,0-.2,0-.3,0l.15-.3.15.3Z"/>
    <path class="st19" d="M287.77,352.34l-.39.23c-1.32-.88-1.1-1.85.39-2.35.1.6-.01,1.46,0,2.12Z"/>
    <polygon class="st19" points="287.16 352.65 287.16 352.94 286.71 352.94 286.26 352.49 287.16 352.65"/>
    <path class="st8" d="M273.05,370.85c.2.1.2.2,0,.3v-.3Z"/>
    <path class="st5" d="M275.93,347.18c-.53.2-1.45.41-1.82.61l-.61-.3c.64-1.01,2.02-1.06,2.88-2.12l-.46,1.82Z"/>
    <rect class="st17" x="276.54" y="348.4" width=".6" height=".91"/>
    <rect class="st19" x="262.58" y="361.14" width=".3" height=".91"/>
    <rect class="st17" x="278.06" y="346.88" width=".3" height=".6"/>
    <path class="st17" d="M277.45,344.75c.06,0,.31.56.91-.3.2-.02.41.02.61,0l.3,1.68-.6-.16.15.91-.77-.45.61-1.05h-1.21c.58.62.09,1.58-.54,1.8-.33.12-.8-.05-.98.02l.46-1.82c-.86,1.06-2.25,1.11-2.88,2.12-1.01-.72-.23.18-.91.3l-.3-.6c.23.72-2.24,1.32-2.45,1.63-.22.33-.29.72-.29,1.1l-.3-.91h-.6s-.61.91-.61.91c-.35-.16-.23-1.19-1.21-1.82l2.42-1.68c2.46-.39,5.87-1.76,8.2-1.66Z"/>
    <path class="st17" d="M277.6,346.88c.2.1.2.2,0,.3v-.3Z"/>
    <path class="st17" d="M277.3,347.79c.2.1.2.2,0,.3v-.3Z"/>
    <path class="st19" d="M277,351.73c.2.1.2.2,0,.3v-.3Z"/>
    <path class="st11" d="M270.93,381.77c.2.1.2.2,0,.3v-.3Z"/>
    <path class="st11" d="M257.88,388.75c.2.1.2.2,0,.3v-.3Z"/>
    <path class="st11" d="M263.34,388.75c.2.1.2.2,0,.3v-.3Z"/>
    <path class="st5" d="M286.55,348.7h-.61s.3-.3.3-.3c.08.11.22.19.3.3Z"/>
    <path class="st12" d="M282.15,345.97c.2.1.2.2,0,.3v-.3Z"/>
    <rect class="st8" x="259.85" y="367.51" width=".3" height=".6"/>
    <path class="st8" d="M260.91,368.42c.2.1.2.2,0,.3v-.3Z"/>
    <rect class="st19" x="285.95" y="341.11" width=".3" height=".6"/>
    <path class="st12" d="M278.36,344.45c-.6.86-.85.31-.91.3.28-.17.59-.26.91-.3Z"/>
    <path class="st17" d="M301.27,345.36c.2.1.2.2,0,.3v-.3Z"/>
    <path class="st17" d="M300.34,408.97c.17.19.59-.04.48.41-.95-.22-.27.87-.9.91l-.3-2.12c.37.06.47.51.73.8Z"/>
    <rect class="st19" x="318.42" y="404.54" width=".3" height=".6"/>
    <rect class="st17" x="299.3" y="409.39" width=".3" height=".6"/>
    <path class="st0" d="M281.7,386.33c.29.52,1.49,2.36,1.82,2.73-.14,2.07-.18,4.47,0,6.53.1,1.15,1.09,1.53,0,2.57.92-.23,1.26.32.81,1.14-.05.09-.41.07-.44.13-.44.88,1.16,1.01,1.38,1.24.07.08.62,1.35.89,1.82.07.13-.23.51-.21.53.07.05.55-.09.82.08.13.08,1.63,2.35,1.63,2.5l-.62,1.06,1.06-.91c.37.73,1.25.92,1.07,1.82l.6-.3v.92c2.61-.84,1.5,1.08,1.87,1.48.06.07.49,0,.74.15.13.08.14.37.19.4,1.38.72,1.35-1.63-.37-.82v-1.5s-.92-.02-.92-.02l.3-.59-1.81-.32c1.26-2.04-1.11-1.7-1.47-2.16-.18-.22.04-.88-.05-1.26-.06-.27-.6-.19-.77-.81-.55-1.99-.89-2.14-1.96-3.8-.23-.36-1.15-2.06-.91-2.29.83.17,1.2-.14.92-1.01-.15-.47-1.46-.51-1.52-1.11.66.1.67-.37.61-.92l1.52.3c.15.57.68,1.38.91,1.99l-.6.44c1.33-.28.79.72,1.19,1.69,1.96,4.73,4.31,6.37,7.6,9.84.21.22,1.46,1.25,1.06,1.5-.86-.15-1.34.73-2.28.02v1.52c-1.19-.18-2,.11-3.04.61-3.8-2.08-6.37-3.28-9.1-6.98-4.23-5.71-5.56-13.83-1.67-20.03.38.52.44,1.25.76,1.82Z"/>
    <path class="st5" d="M321.6,410.3c.2.1.2.2,0,.3v-.3Z"/>
    <path class="st19" d="M317.05,423.35c.2.1.2.2,0,.3v-.3Z"/>
    <path class="st19" d="M319.63,426.08c-1.12-.41-1.7-1.03-1.22-2.13l-.61.15.31-.9c-.28-.71-1.1-.05-1.21-.15s-.6-2.22-.78-2.74c-.1-.3.15-.7.08-.85-.03-.06-.42-.09-.51-.28-.44-.9-.91-1.87-1.53-2.66,1.09-.27.54-1.57.28-2.35-.07-.22-.54-.21-.54-.36,0-.21.44-3.15.54-3.28.48-.69,1.85-.51,1.54-1.74.82-.1,1.12.85,1.22,1.52l.9-.31c.17-.21-1.29-2.02-.03-2.26l-.27-.77h1.82s-.87-.72-.87-.72c.4-1.3.73-1.99,1.79-.64-1.05.18-.11,1.55-.29,2.38-.05.24-.58.19-.58.33.03,1.4.64,4.83,1.02,6.25.45,1.67,1.2,3.21,1.92,4.77.33.72.36.1.97.08-.14.35-.14.91-.3,1.21-.45.86-1.19.57-1.52,1.21l.91.16-.46.2-.15.55.91.3-.91.3c1.13.06,1.14.47,1.51,1.37l-1.62-.17-.35.62-2.89-5.16c-.66.25-1.08.9-.87,1.61,1.2.75.98,2.1,2.39,1.73l-.6.6h.91s-1.21.31-1.21.31l.6.45c-.66.46-.45.74-.3,1.37ZM314.62,413.33v.3c.2-.1.2-.2,0-.3ZM319.48,420.01v.3c.2-.1.2-.2,0-.3ZM318.57,423.04v.3c.2-.1.2-.2,0-.3Z"/>
    <path class="st8" d="M314.62,413.33c.2.1.2.2,0,.3v-.3Z"/>
    <path class="st12" d="M319.48,420.01c.2.1.2.2,0,.3v-.3Z"/>
    <path class="st8" d="M318.57,423.04c.2.1.2.2,0,.3v-.3Z"/>
    <rect class="st12" x="341.18" y="392.09" width=".6" height=".6"/>
    <rect class="st12" x="343.61" y="387.54" width=".3" height=".6"/>
    <path class="st12" d="M345.27,385.42c.2.1.2.2,0,.3v-.3Z"/>
    <path class="st12" d="M348.91,385.11c.2.1.2.2,0,.3v-.3Z"/>
    <path class="st9" d="M343.15,385.72c.2.1.2.2,0,.3v-.3Z"/>
    <rect class="st19" x="341.48" y="436.4" width=".6" height=".3"/>
    <rect class="st1" x="344.52" y="445.2" width=".3" height=".6"/>
    <rect class="st1" x="345.12" y="445.81" width=".3" height=".6"/>
    <path class="st12" d="M328.58,428.2c.2.1.2.2,0,.3v-.3Z"/>
    <path class="st12" d="M323.27,420.62l.6.31c.41,1.21.24,2.51,1.83,2.12l.3,1.21.22-1.23.69.02-.22-.55.52-.2c-1.46-.73-1.19-8.49-.54-8.91.2-.13.59-.03.84-.05l-.61-.9,3.94-.91c.29,1.78-1.22,3.76.61,5.01l-.6.45c2.1.4,1.03-1.19,1.22-2.24.04-.21.67-2.23.74-2.33.2-.29.74-.29,1.08-.29l-.31-1.21,2.12-.3c.25.47-.3,1.11-.3,1.21-.85-.17-.58.36-.71.87-.33,1.28-.57,2.77-.19,4.08.08.26.57.2.6.41.06.46-.43,1.26,0,1.92-2.21.18-1.11-2.22-3.64-1.51-.12.43.52.32.61.6.14.46-.05,1.25-.28,1.7l.58.28-.6,1.06h1.21s-.61,1.22-.61,1.22c-.79-.34-1.77-.5-1.52-1.52l-.6.45c.66.7,1.38.92.91,1.98l.55-.24c.14.79.88.79,1.57.85l-.6.6.53.05c-.17.49,1.17,2.42-.23,2.38l1.69,1.63c.55,1.64,2.55,2.64,2.55,4.43-1.45-.11-1.34.59-1.82,1.22-1.41.35-1.48-.78-2.04-1.5-.67-.85-2.01-1.03-1-2.6l-.84.12-1.27-1.94.6-.45h-2.12s.91-.91.91-.91l-1.19-.33.2-.52-.54-.25.32-.88-.58.13-.02-.88-1.22.31.32.73-.62.32c.78,1.14,2.65,4.16,2.43,5.42-.03.19-1,.29-.61,1.11l1.82-.91-.91.61v.91s.6-.16.6-.16v1.54s-.76.11-.76.11l-.15.94h.91c.21.19-.98,1.28.61,1.52-.04.11-.39.26-.45.56-.22.99.39,4.18-1.67,3.39l-1.52,5.46-.54-.24-.97.85c-.08.5.41.28.75.3,1.21.06,2.73-.3,3.8.3-1.05,0-2.54-.26-3.34.3-.2,0-.4,0-.61,0-1.19-.51-3.43-.51-4.55,0-.2,0-.4,0-.61,0-.08-.29-.35-.29-.61-.3v-.3c.2,0,.4,0,.61,0,.7-.02,1.41.05,2.11-.02-.2-.79.56-1.43.63-1.98.08-.57-.26-.92-.28-1.21,0-.1.69-.69.76-1.65.03-.37-.3-1.4-.19-1.52.15-.15,1.01.29.91-.3l-1.21-.15c.81-2.36-.02-5.15-.69-7.5-.26-.9-1.18-1.91-.54-2.83l-.9.16c.28-1.83-1.16-2.46-1.52-3.95-.15-.63-.36-.91.3-1.37l-.6-.45,1.21-.31h-.91s.6-.6.6-.6c-1.41.37-1.19-.98-2.39-1.73-.21-.71.21-1.36.87-1.61l2.89,5.16.35-.62,1.62.17c-.37-.91-.37-1.31-1.51-1.37l.91-.3-.91-.3.15-.55.46-.2-.91-.16c.33-.64,1.07-.35,1.52-1.21Z"/>
    <path class="st1" d="M337.69,438.22c.2.1.2.2,0,.3v-.3Z"/>
    <path class="st1" d="M345.58,444.89c.2.1.2.2,0,.3v-.3Z"/>
    <path class="st1" d="M346.49,445.8c.2.1.2.2,0,.3v-.3Z"/>
    <path class="st9" d="M340.11,368.12c.2.1.2.2,0,.3v-.3Z"/>
    <path class="st4" d="M288.38,361.45l-.31,1.21c-.52-.23-.29-.84-1.19-.62v-.9s1.5.31,1.5.31Z"/>
    <path class="st4" d="M281.4,380.86l-.91-1.21.45.61.76-.61c.5.98-.23.85-.3,1.21Z"/>
    <polygon class="st16" points="273.2 386.63 272.6 386.63 272.6 386.02 273.2 386.63"/>
    <path class="st16" d="M273.66,389.66c.2.1.2.2,0,.3v-.3Z"/>
    <path class="st16" d="M271.53,385.12c.17.19.61.4.31.59-.15-.18-.61-.38-.31-.59Z"/>
    <path class="st4" d="M281.7,378.74s-.32-.42-.6-.31l.6-.44c-.37-.44-.15-1.2-.9-1.08v-.29c1.27-.09.7-2.24.91-3.13.03-.11,1.03-1.59,1.2-1.43v-.6s-.9.3-.9.3l.3-1.21.9.61.49-1.97-.79-.91c.24-.52,1.38-.65,1.47-.8.17-.3-.05-.87.05-1.26.02-.09.6-1.44.7-1.64.44-.88,1.58-1.6,2.32-2.21.45,1.36-1.15,1.69-.6,2.42h-.92c.7.72.35,1.22.3,2.13l-.6-.31c.05.8.2,1.14-.61,1.37l.61.3c-1.32.53-.89,1.34-.91,2.58l1.21-1.52c-.18.47-.4,1.84-.82,2.66-.34.66-1.22.02-.1,1.44-1.69-.08-.53,2.49-.91,3.49l-.6-.31v2.12c-.54-.34-1.58.03-1.82,0Z"/>
    <path class="st19" d="M289.44,386.02c.2.1.2.2,0,.3v-.3Z"/>
    <polygon class="st5" points="308.71 418.8 308.7 420.62 308.41 420.62 308.1 418.8 308.71 418.8"/>
    <path class="st5" d="M309.47,420.17c.43.61.27.63.45,1.36l-.76-.61-.45.61.3-1.66c.23-.46.33.11.46.3Z"/>
    <rect class="st5" x="307.8" y="420.01" width=".3" height=".91"/>
    <path class="st5" d="M305.82,416.98c.2.1.2.2,0,.3v-.3Z"/>
    <path class="st8" d="M300.36,412.42c.2.1.2.2,0,.3v-.3Z"/>
    <path class="st11" d="M286.86,348.09c-.26-.66-.73-1.71-.91-2.28-.14-.45,0-.49.41-.41,2.91.58,6.17,2.32,7.78,4.82s2.31,5.95,1.82,8.8c-2.07.31.27-2.11-.31-3.03l-.6.6c.33-1.53.06-3.88-1.46-4.6l.25-.55h-.91s.46,2.73.46,2.73c-1.41-.82-.63-2.39-.98-3.25-.19-.47-1.59-2.37-2.21-1.91l.62,1.06-.92,1.06h1.22s-.22.54-.22.54c1.01.44.54,3.14.24,4.19l.58.28c-.13.29-.74.34-.85.52-.19.33-.66,3.57-.92,4.38-.78,2.43-2.99,5.66-4,8.3l-1.21,1.52c.02-1.24-.42-2.05.91-2.58l-.61-.3c.82-.23.67-.57.61-1.37l.6.31c.05-.91.4-1.41-.3-2.12h.92c-.55-.74,1.05-1.07.6-2.43-.75.61-1.89,1.33-2.32,2.21-.1.2-.68,1.55-.7,1.64-.1.39.12.96-.05,1.26-.09.16-1.24.28-1.47.8l.79.91-.49,1.97-.9-.61-.3,1.21.91-.3v.6c-.17-.16-1.18,1.32-1.2,1.43-.21.89.35,3.04-.92,3.13v.29c.76-.12.54.64.9,1.08l-.6.44c.29-.11.57.3.6.31h-.61c-.09.1.48.67.61.91l-.76.61-.45-.61.91,1.21c-.06.3-.28,2.27-.23,2.38.02.04.6.06.71.63.15.8-.74,1.7.73,1.85l-.91.6c-.32-.57-.38-1.3-.76-1.82-3.89,6.2-2.56,14.32,1.67,20.03l-1.06,1.52c-.38-.52-.65-1.17-1.21-1.54-.37-.24-.72.05-.74.02-.11-.18,0-1.03-.35-1.63-.29-.51-1.49-1.34-2.08-2.17-.92-1.27-1.4-2.81-2.14-4.17-.16-.3-.83-.1-.61-.98.05-.19.92.01.61-.76l-1.21.3.61-.45-.91-.61.61-.34v-.87c-.08-.26-1.19,0-.92-.75l-.6,1.52-.91-.3.27,1.19-.57.18c1.32-.05,1.87,3.16,1.82,4.25s-.6,1.99-1.46,1.01c-.05-.05.22-1.06-.36-1.33l.61-.29c-.77-.75-.66-3.51-2.13-3.19-.79-3.1-1.92-5.29-.71-8.44.14-.37.64-.37.65-.41.03-.09-.33-1.1-.29-1.64s.53-.45.54-.51c.08-.31-.16-.99.1-1.45,1.06.78.75-.54,1.82-.3l-.31-.91c1.44-.37.46.98,1.51.91l-.61.49-.25,2.1c.45.42,1.93,1.26,1.42,1.92l-.55.33c.97-.15.28.72.46,1.35s.7,1.24.77,1.97l.88.02c.22-.21-.94-5.44.87-5.52l-.27-.25c4.94-4.91,4.88-12.15,6.97-18.37,1.8-5.36,4.98-8.06,4.87-14.1-.01-.66.1-1.53,0-2.12-.08-.5-.22-.63-.3-.91-.25-.89-.52-.98-.61-1.21ZM288.38,361.45l-1.52-.31v.9c.92-.22.69.39,1.21.62l.31-1.21ZM271.53,385.12c-.3.21.16.42.31.59.3-.2-.14-.4-.31-.59ZM273.2,386.63l-.6-.6v.61s.6,0,.6,0ZM273.66,389.66v.3c.2-.1.2-.2,0-.3Z"/>
  </g>
  <text class="st7" transform="translate(206.95 484.48)"><tspan x="0" y="0">shaggylab</tspan></text>
</svg>